M48
; DRILL file {KiCad 8.0.6} date 2024-11-11T10:00:28-0500
; FORMAT={-:-/ absolute / metric / decimal}
; #@! TF.CreationDate,2024-11-11T10:00:28-05:00
; #@! TF.GenerationSoftware,Kicad,Pcbnew,8.0.6
; #@! TF.FileFunction,Plated,1,2,PTH
FMAT,2
METRIC
; #@! TA.AperFunction,Plated,PTH,ViaDrill
T1C0.400
; #@! TA.AperFunction,Plated,PTH,ComponentDrill
T2C0.650
; #@! TA.AperFunction,Plated,PTH,ComponentDrill
T3C0.700
; #@! TA.AperFunction,Plated,PTH,ComponentDrill
T4C0.900
; #@! TA.AperFunction,Plated,PTH,ComponentDrill
T5C1.000
; #@! TA.AperFunction,Plated,PTH,ComponentDrill
T6C1.400
%
G90
G05
T1
X136.54Y-53.33
X137.0Y-39.25
X137.1Y-42.5
X137.525Y-47.875
X138.0Y-37.25
X138.2Y-80.6
X138.25Y-40.25
X138.6Y-25.8
X138.6Y-68.9
X138.65Y-73.5
X138.75Y-31.25
X138.75Y-32.75
X138.75Y-34.25
X138.765Y-70.97
X138.765Y-91.29
X138.765Y-96.37
X138.765Y-98.91
X138.765Y-101.45
X138.765Y-103.99
X138.765Y-106.53
X138.765Y-109.07
X138.765Y-111.61
X138.765Y-114.15
X138.765Y-116.69
X138.765Y-119.23
X138.765Y-121.77
X138.765Y-124.31
X138.765Y-126.85
X138.765Y-129.39
X138.765Y-131.93
X138.765Y-134.47
X138.765Y-137.01
X138.765Y-139.55
X138.765Y-142.09
X138.765Y-144.63
X138.765Y-147.17
X138.765Y-149.71
X138.765Y-152.25
X138.765Y-154.79
X138.765Y-157.33
X138.765Y-159.87
X138.765Y-162.41
X138.765Y-164.95
X138.925Y-56.825
X139.0Y-38.25
X139.3Y-26.4
X139.5Y-20.0
X139.864Y-57.253
X140.2Y-15.3
X140.4Y-53.022
X140.6Y-82.85
X140.7Y-78.05
X140.7Y-101.95
X140.9Y-36.7
X140.9Y-46.2
X140.979Y-39.621
X141.05Y-109.7
X141.2Y-94.6
X141.25Y-20.0
X141.305Y-65.89
X141.305Y-106.53
X141.305Y-116.69
X141.305Y-119.23
X141.305Y-121.77
X141.305Y-124.31
X141.305Y-126.85
X141.305Y-129.39
X141.305Y-131.93
X141.305Y-134.47
X141.305Y-142.09
X141.305Y-149.71
X141.305Y-152.25
X141.305Y-154.79
X141.305Y-157.33
X141.305Y-159.87
X141.305Y-162.41
X141.305Y-164.95
X141.305Y-175.11
X141.305Y-177.65
X141.305Y-180.19
X141.305Y-182.73
X141.575Y-53.022
X142.2Y-49.05
X142.219Y-103.675
X142.3Y-172.6
X142.301Y-51.401
X142.4Y-62.3
X142.459Y-56.73
X142.459Y-58.835
X142.7Y-29.3
X142.725Y-54.925
X142.75Y-14.0
X142.75Y-17.25
X143.25Y-20.0
X143.4Y-54.1
X143.59Y-55.98
X143.779Y-73.135
X143.8Y-181.6
X143.845Y-121.77
X143.845Y-124.31
X143.845Y-126.85
X143.845Y-134.47
X143.845Y-139.55
X143.845Y-142.09
X143.845Y-159.87
X143.845Y-162.41
X144.0Y-76.4
X144.0Y-78.6
X144.2Y-94.6
X144.35Y-53.425
X144.359Y-137.925
X144.375Y-177.725
X144.4Y-55.09
X144.55Y-109.7
X144.6Y-40.4
X144.75Y-146.75
X145.0Y-31.8
X145.24Y-54.31
X145.25Y-20.0
X145.285Y-45.836
X145.35Y-64.1
X145.592Y-71.342
X145.6Y-101.65
X145.697Y-43.302
X145.771Y-50.625
X145.8Y-37.7
X146.094Y-30.725
X146.175Y-51.7
X146.262Y-59.486
X146.385Y-114.15
X146.385Y-116.69
X146.385Y-119.23
X146.385Y-121.77
X146.385Y-124.31
X146.385Y-126.85
X146.385Y-131.93
X146.385Y-134.47
X146.385Y-137.01
X146.385Y-142.09
X146.385Y-149.71
X146.385Y-154.79
X146.385Y-159.87
X146.385Y-162.41
X146.55Y-129.3
X146.681Y-43.127
X146.9Y-173.7
X147.25Y-111.7
X147.259Y-59.555
X147.35Y-55.711
X147.4Y-19.7
X147.6Y-93.6
X147.607Y-98.437
X147.744Y-44.2
X147.8Y-183.6
X147.869Y-99.575
X148.0Y-66.2
X148.124Y-21.105
X148.125Y-71.325
X148.254Y-42.41
X148.441Y-177.597
X148.452Y-19.752
X148.5Y-35.7
X148.544Y-97.8
X148.65Y-128.85
X148.65Y-137.625
X148.65Y-138.825
X148.708Y-28.3
X148.853Y-113.75
X148.925Y-76.05
X148.925Y-78.59
X148.925Y-118.875
X148.925Y-121.77
X148.925Y-124.31
X148.925Y-126.025
X148.925Y-131.93
X148.925Y-134.47
X148.925Y-149.71
X148.925Y-154.79
X148.925Y-159.87
X148.925Y-162.41
X148.978Y-116.0
X149.319Y-42.45
X149.352Y-91.4
X149.4Y-51.325
X149.639Y-36.537
X149.724Y-88.765
X149.829Y-58.34
X149.879Y-56.315
X149.9Y-173.2
X150.147Y-47.047
X150.48Y-44.01
X150.8Y-98.8
X150.869Y-22.075
X151.0Y-177.1
X151.025Y-51.075
X151.199Y-83.235
X151.344Y-30.7
X151.375Y-180.955
X151.375Y-182.405
X151.389Y-53.475
X151.465Y-129.39
X151.465Y-131.5
X151.465Y-134.47
X151.465Y-137.525
X151.465Y-138.9
X151.465Y-154.79
X151.465Y-159.87
X151.475Y-126.0
X151.475Y-141.575
X151.5Y-92.2
X151.7Y-20.2
X151.769Y-38.2
X151.8Y-28.1
X151.819Y-96.075
X151.944Y-32.95
X152.02Y-75.79
X152.05Y-77.64
X152.4Y-66.2
X152.4Y-70.4
X152.619Y-60.175
X152.882Y-37.737
X153.1Y-101.7
X153.119Y-72.825
X153.2Y-35.8
X153.287Y-49.807
X153.289Y-55.745
X153.334Y-41.109
X153.4Y-17.4
X153.929Y-57.419
X154.005Y-129.39
X154.005Y-134.47
X154.005Y-142.09
X154.005Y-147.17
X154.005Y-149.71
X154.005Y-152.25
X154.2Y-29.0
X154.2Y-81.7
X154.251Y-50.095
X154.3Y-178.3
X154.4Y-25.6
X154.745Y-59.845
X154.77Y-44.88
X154.775Y-180.925
X154.95Y-144.5
X154.969Y-16.575
X155.05Y-15.35
X155.114Y-50.601
X155.2Y-37.4
X155.268Y-41.299
X155.4Y-33.6
X155.4Y-178.3
X155.6Y-156.0
X155.7Y-175.0
X155.769Y-102.125
X156.15Y-21.5
X156.197Y-51.127
X156.2Y-123.5
X156.393Y-42.224
X156.4Y-67.2
X156.4Y-68.4
X156.4Y-69.8
X156.422Y-48.888
X156.469Y-104.075
X156.545Y-116.69
X156.545Y-134.47
X156.545Y-142.09
X156.545Y-147.17
X156.545Y-149.71
X156.545Y-152.25
X156.6Y-81.7
X157.119Y-51.515
X157.169Y-13.875
X157.194Y-102.475
X157.2Y-176.0
X157.25Y-17.2
X157.307Y-60.887
X157.35Y-110.05
X157.4Y-154.2
X157.55Y-144.45
X158.044Y-64.525
X158.469Y-101.075
X158.8Y-182.2
X159.085Y-22.71
X159.085Y-35.41
X159.085Y-147.17
X159.085Y-149.71
X159.085Y-164.95
X159.085Y-172.57
X159.085Y-175.11
X159.4Y-161.2
X159.6Y-152.2
X159.6Y-177.8
X160.469Y-88.825
X160.5Y-71.25
X160.5Y-74.75
X160.5Y-78.25
X160.5Y-81.5
X160.5Y-84.75
X160.5Y-97.25
X160.5Y-100.25
X160.5Y-103.5
X160.5Y-106.75
X160.5Y-110.5
X160.5Y-114.5
X160.5Y-117.75
X160.5Y-120.75
X160.5Y-123.5
X160.5Y-126.0
X160.5Y-129.0
X160.5Y-131.5
X160.5Y-134.0
X160.5Y-136.75
X160.5Y-139.25
X160.5Y-141.75
X160.5Y-144.25
X160.6Y-163.2
X161.2Y-159.4
X161.284Y-54.216
X161.6Y-28.8
X161.625Y-15.09
X161.625Y-17.63
X161.625Y-20.17
X161.625Y-22.71
X161.625Y-25.25
X161.625Y-32.87
X161.625Y-35.41
X161.625Y-37.95
X161.625Y-40.49
X162.194Y-88.125
X162.2Y-58.2
X162.2Y-60.8
X162.6Y-161.2
X162.8Y-157.8
T4
X144.294Y-83.612
X146.294Y-83.612
X148.294Y-83.612
X155.294Y-72.612
X155.294Y-74.612
X155.294Y-76.612
T5
X142.919Y-35.125
X143.344Y-165.15
X143.825Y-184.925
X145.419Y-35.125
X145.884Y-165.15
X146.365Y-184.925
X148.424Y-165.15
X148.905Y-184.925
X150.964Y-165.15
X151.445Y-184.925
X153.504Y-165.15
X153.985Y-184.925
X156.044Y-165.15
X156.525Y-184.925
X159.519Y-31.0
X159.519Y-33.54
X159.594Y-37.45
X159.594Y-39.99
X159.644Y-43.93
X159.644Y-46.47
X159.644Y-49.01
X159.644Y-51.55
X159.644Y-54.09
X159.644Y-56.63
X159.644Y-59.17
X159.644Y-61.71
X159.644Y-64.25
X159.644Y-66.79
T6
X145.619Y-152.675
X145.619Y-157.675
X150.619Y-152.675
X150.619Y-157.675
T2
G00X145.489Y-18.0
M15
G01X145.489Y-18.4
M16
G05
G00X150.329Y-18.0
M15
G01X150.329Y-18.4
M16
G05
T3
G00X145.179Y-14.95
M15
G01X145.179Y-15.45
M16
G05
G00X150.639Y-14.95
M15
G01X150.639Y-15.45
M16
G05
M30
