%TF.GenerationSoftware,KiCad,Pcbnew,8.0.6*%
%TF.CreationDate,2024-11-11T10:00:56-05:00*%
%TF.ProjectId,rulerSchematic,72756c65-7253-4636-9865-6d617469632e,rev?*%
%TF.SameCoordinates,Original*%
%TF.FileFunction,Soldermask,Bot*%
%TF.FilePolarity,Negative*%
%FSLAX46Y46*%
G04 Gerber Fmt 4.6, Leading zero omitted, Abs format (unit mm)*
G04 Created by KiCad (PCBNEW 8.0.6) date 2024-11-11 10:00:56*
%MOMM*%
%LPD*%
G01*
G04 APERTURE LIST*
G04 Aperture macros list*
%AMRoundRect*
0 Rectangle with rounded corners*
0 $1 Rounding radius*
0 $2 $3 $4 $5 $6 $7 $8 $9 X,Y pos of 4 corners*
0 Add a 4 corners polygon primitive as box body*
4,1,4,$2,$3,$4,$5,$6,$7,$8,$9,$2,$3,0*
0 Add four circle primitives for the rounded corners*
1,1,$1+$1,$2,$3*
1,1,$1+$1,$4,$5*
1,1,$1+$1,$6,$7*
1,1,$1+$1,$8,$9*
0 Add four rect primitives between the rounded corners*
20,1,$1+$1,$2,$3,$4,$5,0*
20,1,$1+$1,$4,$5,$6,$7,0*
20,1,$1+$1,$6,$7,$8,$9,0*
20,1,$1+$1,$8,$9,$2,$3,0*%
G04 Aperture macros list end*
%ADD10C,1.600000*%
%ADD11O,3.204000X1.704000*%
%ADD12O,1.704000X3.204000*%
%ADD13C,1.000000*%
%ADD14C,2.200000*%
%ADD15R,1.700000X1.700000*%
%ADD16O,1.700000X1.700000*%
%ADD17R,2.100000X2.100000*%
%ADD18C,2.100000*%
%ADD19O,1.350000X1.700000*%
%ADD20O,1.100000X1.500000*%
%ADD21C,0.500000*%
%ADD22RoundRect,0.250000X0.600000X0.750000X-0.600000X0.750000X-0.600000X-0.750000X0.600000X-0.750000X0*%
%ADD23O,1.700000X2.000000*%
G04 APERTURE END LIST*
D10*
%TO.C,S2*%
X140294231Y-80612498D03*
X152294231Y-68612498D03*
D11*
X155294231Y-74612498D03*
X155294231Y-76612498D03*
X155294231Y-72612498D03*
D12*
X146294231Y-83612498D03*
X148294231Y-83612498D03*
X144294231Y-83612498D03*
%TD*%
D13*
%TO.C,J8*%
X143556731Y-120374998D03*
X143556731Y-128374998D03*
%TD*%
D14*
%TO.C,H3*%
X141169231Y-138574998D03*
%TD*%
D15*
%TO.C,J10*%
X143344231Y-165149998D03*
D16*
X145884231Y-165149998D03*
X148424231Y-165149998D03*
X150964231Y-165149998D03*
X153504231Y-165149998D03*
X156044231Y-165149998D03*
%TD*%
D14*
%TO.C,H2*%
X154919231Y-113574998D03*
%TD*%
D15*
%TO.C,J4*%
X156525000Y-184925000D03*
D16*
X153985000Y-184925000D03*
X151445000Y-184925000D03*
X148905000Y-184925000D03*
X146365000Y-184925000D03*
X143825000Y-184925000D03*
%TD*%
D15*
%TO.C,J5*%
X159644231Y-43929998D03*
D16*
X159644231Y-46469998D03*
X159644231Y-49009998D03*
X159644231Y-51549998D03*
X159644231Y-54089998D03*
X159644231Y-56629998D03*
X159644231Y-59169998D03*
X159644231Y-61709998D03*
X159644231Y-64249998D03*
X159644231Y-66789998D03*
%TD*%
D14*
%TO.C,H1*%
X141169231Y-113574998D03*
%TD*%
D17*
%TO.C,J3*%
X150619231Y-157674998D03*
D18*
X145619231Y-157674998D03*
X150619231Y-152674998D03*
X145619231Y-152674998D03*
%TD*%
D15*
%TO.C,J1*%
X159594231Y-37449998D03*
D16*
X159594231Y-39989998D03*
%TD*%
D19*
%TO.C,J7*%
X150639231Y-15200000D03*
D20*
X150329231Y-18200000D03*
X145489231Y-18200000D03*
D19*
X145179231Y-15200000D03*
%TD*%
D15*
%TO.C,J6*%
X159519231Y-30999998D03*
D16*
X159519231Y-33539998D03*
%TD*%
D14*
%TO.C,H4*%
X154919231Y-138574998D03*
%TD*%
D21*
%TO.C,mouse-bite-3mm-slot*%
X148538000Y-167900000D03*
X148538000Y-170900000D03*
X149288000Y-170900000D03*
X149300000Y-167900000D03*
X150050000Y-167900000D03*
X150050000Y-170900000D03*
X150800000Y-167900000D03*
X150800000Y-170900000D03*
X151574000Y-167900000D03*
X151574000Y-170900000D03*
%TD*%
D22*
%TO.C,J2*%
X145419231Y-35124998D03*
D23*
X142919231Y-35124998D03*
%TD*%
M02*
