ISO-10303-21;
HEADER;
FILE_DESCRIPTION (( 'STEP AP214' ),
    '1' );
FILE_NAME ('BLM18EG101TH1D.STEP',
    '2019-11-18T22:46:42',
    ( '' ),
    ( '' ),
    'SwSTEP 2.0',
    'SolidWorks 2017',
    '' );
FILE_SCHEMA (( 'AUTOMOTIVE_DESIGN' ));
ENDSEC;

DATA;
#1 = ORIENTED_EDGE ( 'NONE', *, *, #251, .T. ) ;
#2 = DIRECTION ( 'NONE',  ( 1.000000000000000000, 0.0000000000000000000, 0.0000000000000000000 ) ) ;
#3 = LINE ( 'NONE', #154, #801 ) ;
#4 = CARTESIAN_POINT ( 'NONE',  ( -0.3999999999999998600, 0.6099999999999999900, -0.3599999999999999300 ) ) ;
#5 = CARTESIAN_POINT ( 'NONE',  ( 0.0000000000000000000, 0.0000000000000000000, -0.3599999999999998800 ) ) ;
#6 = ORIENTED_EDGE ( 'NONE', *, *, #24, .F. ) ;
#7 = ORIENTED_EDGE ( 'NONE', *, *, #447, .F. ) ;
#8 = DIRECTION ( 'NONE',  ( 0.0000000000000000000, -1.000000000000000000, 0.0000000000000000000 ) ) ;
#9 = SPHERICAL_SURFACE ( 'NONE', #936, 0.04000000000000000100 ) ;
#10 = FACE_OUTER_BOUND ( 'NONE', #384, .T. ) ;
#11 = DIRECTION ( 'NONE',  ( 0.0000000000000000000, 0.0000000000000000000, -1.000000000000000000 ) ) ;
#12 = LINE ( 'NONE', #232, #322 ) ;
#13 = DIRECTION ( 'NONE',  ( 0.0000000000000000000, 1.000000000000000000, 0.0000000000000000000 ) ) ;
#14 = FILL_AREA_STYLE ('',( #987 ) ) ;
#15 = CYLINDRICAL_SURFACE ( 'NONE', #424, 0.03999999999999999400 ) ;
#16 = ORIENTED_EDGE ( 'NONE', *, *, #467, .T. ) ;
#17 = VECTOR ( 'NONE', #1061, 1000.000000000000000 ) ;
#18 = ADVANCED_FACE ( 'NONE', ( #260 ), #1256, .F. ) ;
#19 = DIRECTION ( 'NONE',  ( -1.000000000000000000, 0.0000000000000000000, 0.0000000000000000000 ) ) ;
#20 = DIRECTION ( 'NONE',  ( 1.000000000000000000, 0.0000000000000000000, 2.032879073410321300E-016 ) ) ;
#21 = EDGE_CURVE ( 'NONE', #567, #408, #617, .T. ) ;
#22 = SURFACE_SIDE_STYLE ('',( #367 ) ) ;
#23 = ORIENTED_EDGE ( 'NONE', *, *, #242, .T. ) ;
#24 = EDGE_CURVE ( 'NONE', #233, #294, #1280, .T. ) ;
#25 = CARTESIAN_POINT ( 'NONE',  ( -0.3999999999999996900, 0.0000000000000000000, 0.3599999999999997600 ) ) ;
#26 = CARTESIAN_POINT ( 'NONE',  ( -0.7599999999999996800, 0.03999999999999999400, 0.3600000000000000400 ) ) ;
#27 = AXIS2_PLACEMENT_3D ( 'NONE', #694, #996, #788 ) ;
#28 = CIRCLE ( 'NONE', #885, 0.03999999999999999400 ) ;
#29 = FILL_AREA_STYLE_COLOUR ( '', #955 ) ;
#30 = ORIENTED_EDGE ( 'NONE', *, *, #594, .T. ) ;
#31 = VECTOR ( 'NONE', #977, 1000.000000000000000 ) ;
#32 = AXIS2_PLACEMENT_3D ( 'NONE', #286, #378, #1274 ) ;
#33 = CIRCLE ( 'NONE', #278, 0.03999999999999999400 ) ;
#34 = DIRECTION ( 'NONE',  ( 2.710505431213761600E-016, 0.0000000000000000000, -1.000000000000000000 ) ) ;
#35 = CARTESIAN_POINT ( 'NONE',  ( 0.7599999999999996800, 0.6099999999999999900, 0.3600000000000000400 ) ) ;
#36 = EDGE_CURVE ( 'NONE', #343, #843, #1021, .T. ) ;
#37 = SPHERICAL_SURFACE ( 'NONE', #1236, 0.04000000000000000100 ) ;
#38 = ADVANCED_FACE ( 'NONE', ( #1223 ), #877, .F. ) ;
#39 = EDGE_CURVE ( 'NONE', #315, #1022, #526, .T. ) ;
#40 = CARTESIAN_POINT ( 'NONE',  ( -0.7599999999999996800, 0.03999999999999999400, 0.4000000000000000200 ) ) ;
#41 = ORIENTED_EDGE ( 'NONE', *, *, #884, .F. ) ;
#42 = PLANE ( 'NONE',  #553 ) ;
#43 = AXIS2_PLACEMENT_3D ( 'NONE', #328, #1211, #34 ) ;
#44 = VERTEX_POINT ( 'NONE', #667 ) ;
#45 = EDGE_CURVE ( 'NONE', #473, #937, #958, .T. ) ;
#46 = CARTESIAN_POINT ( 'NONE',  ( -0.7599999999999999000, 0.6500000000000000200, -0.3599999999999998800 ) ) ;
#47 = ORIENTED_EDGE ( 'NONE', *, *, #1190, .T. ) ;
#48 = PLANE ( 'NONE',  #214 ) ;
#49 = DIRECTION ( 'NONE',  ( 0.0000000000000000000, -1.000000000000000000, 0.0000000000000000000 ) ) ;
#50 = ORIENTED_EDGE ( 'NONE', *, *, #24, .T. ) ;
#51 = EDGE_CURVE ( 'NONE', #1169, #1259, #156, .T. ) ;
#52 = VECTOR ( 'NONE', #100, 1000.000000000000000 ) ;
#53 = ORIENTED_EDGE ( 'NONE', *, *, #513, .F. ) ;
#54 = AXIS2_PLACEMENT_3D ( 'NONE', #1055, #460, #961 ) ;
#55 = DIRECTION ( 'NONE',  ( 0.0000000000000000000, 0.0000000000000000000, 1.000000000000000000 ) ) ;
#56 = EDGE_LOOP ( 'NONE', ( #679, #183, #1161, #1180 ) ) ;
#57 = ORIENTED_EDGE ( 'NONE', *, *, #39, .F. ) ;
#58 = DIRECTION ( 'NONE',  ( 1.000000000000000000, 0.0000000000000000000, 2.032879073410321300E-016 ) ) ;
#59 = CARTESIAN_POINT ( 'NONE',  ( -0.3999999999999998600, 0.03999999999999999400, -0.3866666666666665500 ) ) ;
#60 = FACE_OUTER_BOUND ( 'NONE', #379, .T. ) ;
#61 = FACE_OUTER_BOUND ( 'NONE', #130, .T. ) ;
#62 = DIRECTION ( 'NONE',  ( 0.0000000000000000000, 0.0000000000000000000, -1.000000000000000000 ) ) ;
#63 = ORIENTED_EDGE ( 'NONE', *, *, #1193, .T. ) ;
#64 = DIRECTION ( 'NONE',  ( 0.0000000000000000000, -1.000000000000000000, 0.0000000000000000000 ) ) ;
#65 = EDGE_CURVE ( 'NONE', #975, #582, #1020, .T. ) ;
#66 = ORIENTED_EDGE ( 'NONE', *, *, #51, .T. ) ;
#67 = APPLICATION_CONTEXT ( 'automotive_design' ) ;
#68 = ORIENTED_EDGE ( 'NONE', *, *, #497, .F. ) ;
#69 = FACE_OUTER_BOUND ( 'NONE', #250, .T. ) ;
#70 = CYLINDRICAL_SURFACE ( 'NONE', #292, 0.03999999999999999400 ) ;
#71 = FACE_OUTER_BOUND ( 'NONE', #706, .T. ) ;
#72 = FILL_AREA_STYLE ('',( #759 ) ) ;
#73 = AXIS2_PLACEMENT_3D ( 'NONE', #528, #724, #826 ) ;
#74 = CARTESIAN_POINT ( 'NONE',  ( 0.7599999999999996800, 0.6099999999999999900, 0.3600000000000000400 ) ) ;
#75 = VERTEX_POINT ( 'NONE', #468 ) ;
#76 =( NAMED_UNIT ( * ) SI_UNIT ( $, .STERADIAN. ) SOLID_ANGLE_UNIT ( ) );
#77 = CYLINDRICAL_SURFACE ( 'NONE', #954, 0.03999999999999999400 ) ;
#78 = ORIENTED_EDGE ( 'NONE', *, *, #677, .T. ) ;
#79 = DIRECTION ( 'NONE',  ( -1.000000000000000000, -0.0000000000000000000, 8.673617379884036700E-017 ) ) ;
#80 = CARTESIAN_POINT ( 'NONE',  ( -0.7599999999999996800, 0.6500000000000000200, 0.4000000000000000200 ) ) ;
#81 = ORIENTED_EDGE ( 'NONE', *, *, #532, .T. ) ;
#82 = CARTESIAN_POINT ( 'NONE',  ( 0.4000000000132786200, 0.6099999999999999900, 0.3599999999999998800 ) ) ;
#83 = CARTESIAN_POINT ( 'NONE',  ( 0.3999999999999998600, 0.03999999999999999400, -0.3999999999999998600 ) ) ;
#84 = ORIENTED_EDGE ( 'NONE', *, *, #330, .F. ) ;
#85 = EDGE_CURVE ( 'NONE', #548, #608, #926, .T. ) ;
#86 = EDGE_LOOP ( 'NONE', ( #78, #1231, #1229 ) ) ;
#87 = VECTOR ( 'NONE', #271, 1000.000000000000000 ) ;
#88 = CARTESIAN_POINT ( 'NONE',  ( 500000.0000000000600, 0.03999999999999999400, -0.3600000000433680700 ) ) ;
#89 = AXIS2_PLACEMENT_3D ( 'NONE', #892, #1083, #1183 ) ;
#90 = ADVANCED_FACE ( 'NONE', ( #983 ), #398, .T. ) ;
#91 = STYLED_ITEM ( 'NONE', ( #238 ), #921 ) ;
#92 = CARTESIAN_POINT ( 'NONE',  ( 0.7999999999999999300, 0.6500000000000000200, -0.3999999999999998600 ) ) ;
#93 = DIRECTION ( 'NONE',  ( -1.000000000000000000, -0.0000000000000000000, 8.673617379884036700E-017 ) ) ;
#94 = DIRECTION ( 'NONE',  ( 1.000000000000000000, -0.0000000000000000000, 0.0000000000000000000 ) ) ;
#95 = ADVANCED_FACE ( 'NONE', ( #1114 ), #383, .T. ) ;
#96 = EDGE_CURVE ( 'NONE', #44, #207, #690, .T. ) ;
#97 = DIRECTION ( 'NONE',  ( 0.0000000000000000000, -1.000000000000000000, -0.0000000000000000000 ) ) ;
#98 = ORIENTED_EDGE ( 'NONE', *, *, #45, .T. ) ;
#99 = AXIS2_PLACEMENT_3D ( 'NONE', #562, #827, #757 ) ;
#100 = DIRECTION ( 'NONE',  ( -1.000000000000000000, -0.0000000000000000000, 8.673617379884036700E-017 ) ) ;
#101 = ORIENTED_EDGE ( 'NONE', *, *, #594, .F. ) ;
#102 = DIRECTION ( 'NONE',  ( 1.000000000000000000, 0.0000000000000000000, 2.032879073410321300E-016 ) ) ;
#103 = CARTESIAN_POINT ( 'NONE',  ( 0.4000000000132786200, 0.01333333333333333200, -0.3599999999999998200 ) ) ;
#104 = CYLINDRICAL_SURFACE ( 'NONE', #636, 0.03999999999999999400 ) ;
#105 = CARTESIAN_POINT ( 'NONE',  ( 0.3999999999999998600, 0.6099999999999999900, -0.3999999999999998600 ) ) ;
#106 = EDGE_CURVE ( 'NONE', #244, #807, #353, .T. ) ;
#107 = PRESENTATION_STYLE_ASSIGNMENT (( #267 ) ) ;
#108 = EDGE_LOOP ( 'NONE', ( #308, #643, #1108, #111 ) ) ;
#109 = ADVANCED_FACE ( 'NONE', ( #1253 ), #681, .F. ) ;
#110 = CARTESIAN_POINT ( 'NONE',  ( 0.7599999999999996800, 0.0000000000000000000, 0.3600000000000000400 ) ) ;
#111 = ORIENTED_EDGE ( 'NONE', *, *, #396, .F. ) ;
#112 = EDGE_CURVE ( 'NONE', #1039, #659, #433, .T. ) ;
#113 = ORIENTED_EDGE ( 'NONE', *, *, #376, .F. ) ;
#114 = DIRECTION ( 'NONE',  ( 1.000000000000000000, 0.0000000000000000000, 2.032879073410321300E-016 ) ) ;
#115 = EDGE_CURVE ( 'NONE', #843, #305, #1080, .T. ) ;
#116 = ORIENTED_EDGE ( 'NONE', *, *, #21, .T. ) ;
#117 = ADVANCED_FACE ( 'NONE', ( #1147 ), #104, .T. ) ;
#118 = ORIENTED_EDGE ( 'NONE', *, *, #794, .T. ) ;
#119 = PRODUCT_DEFINITION_FORMATION_WITH_SPECIFIED_SOURCE ( 'ANY', '', #570, .NOT_KNOWN. ) ;
#120 = EDGE_LOOP ( 'NONE', ( #879, #1192, #1195, #84 ) ) ;
#121 = CARTESIAN_POINT ( 'NONE',  ( 0.3999999999999996900, 0.6099999999999999900, 0.3600000000000000400 ) ) ;
#122 = EDGE_CURVE ( 'NONE', #567, #126, #895, .T. ) ;
#123 = DIRECTION ( 'NONE',  ( 0.0000000000000000000, 1.000000000000000000, 0.0000000000000000000 ) ) ;
#124 = CARTESIAN_POINT ( 'NONE',  ( -0.3999999999999998600, 0.6099999999999997600, -0.3866666666666665500 ) ) ;
#125 = AXIS2_PLACEMENT_3D ( 'NONE', #132, #1123, #516 ) ;
#126 = VERTEX_POINT ( 'NONE', #1277 ) ;
#127 = CARTESIAN_POINT ( 'NONE',  ( -0.3999999999999998600, 0.6500000000000000200, -0.3999999999999998600 ) ) ;
#128 = CARTESIAN_POINT ( 'NONE',  ( 0.7999999999999997100, 0.6099999999999999900, 0.3600000000000000400 ) ) ;
#129 =( LENGTH_UNIT ( ) NAMED_UNIT ( * ) SI_UNIT ( .MILLI., .METRE. ) );
#130 = EDGE_LOOP ( 'NONE', ( #248, #869, #317, #564, #216, #1089, #1263, #293 ) ) ;
#131 = ORIENTED_EDGE ( 'NONE', *, *, #705, .T. ) ;
#132 = CARTESIAN_POINT ( 'NONE',  ( 0.7999999999999997100, 0.6500000000000000200, 0.4000000000000000200 ) ) ;
#133 = DIRECTION ( 'NONE',  ( 0.0000000000000000000, 0.0000000000000000000, 1.000000000000000000 ) ) ;
#134 = ORIENTED_EDGE ( 'NONE', *, *, #844, .F. ) ;
#135 = AXIS2_PLACEMENT_3D ( 'NONE', #959, #662, #264 ) ;
#136 = VECTOR ( 'NONE', #683, 1000.000000000000000 ) ;
#137 = ADVANCED_FACE ( 'NONE', ( #1001 ), #971, .T. ) ;
#138 = CARTESIAN_POINT ( 'NONE',  ( -0.7999999999999999300, 0.6099999999999999900, -0.3599999999999998800 ) ) ;
#139 = CIRCLE ( 'NONE', #851, 0.02666666666666664800 ) ;
#140 = ORIENTED_EDGE ( 'NONE', *, *, #1060, .F. ) ;
#141 = CARTESIAN_POINT ( 'NONE',  ( 0.7599999999999999000, 0.03999999999999999400, -0.3599999999999998800 ) ) ;
#142 = AXIS2_PLACEMENT_3D ( 'NONE', #121, #20, #1116 ) ;
#143 = ORIENTED_EDGE ( 'NONE', *, *, #39, .T. ) ;
#144 = DIRECTION ( 'NONE',  ( 1.000000000000000000, 0.0000000000000000000, 2.032879073410321300E-016 ) ) ;
#145 = CARTESIAN_POINT ( 'NONE',  ( 0.4000000000132786200, 0.6366666666666667100, -0.3600000001450119300 ) ) ;
#146 = ORIENTED_EDGE ( 'NONE', *, *, #65, .F. ) ;
#147 = ORIENTED_EDGE ( 'NONE', *, *, #448, .T. ) ;
#148 = ORIENTED_EDGE ( 'NONE', *, *, #1025, .T. ) ;
#149 = AXIS2_PLACEMENT_3D ( 'NONE', #547, #1141, #825 ) ;
#150 = VECTOR ( 'NONE', #93, 1000.000000000000000 ) ;
#151 = FACE_OUTER_BOUND ( 'NONE', #700, .T. ) ;
#152 = DIRECTION ( 'NONE',  ( 0.0000000000000000000, 0.0000000000000000000, 1.000000000000000000 ) ) ;
#153 = EDGE_CURVE ( 'NONE', #582, #823, #661, .T. ) ;
#154 = CARTESIAN_POINT ( 'NONE',  ( 0.4000000000132786200, 0.01333333333333333200, 0.3599999998549876500 ) ) ;
#155 = ADVANCED_BREP_SHAPE_REPRESENTATION ( 'BLM18EG101TH1D', ( #921, #653, #727, #492 ), #222 ) ;
#156 = CIRCLE ( 'NONE', #1018, 0.03999999999999999400 ) ;
#157 = EDGE_LOOP ( 'NONE', ( #342, #1010, #41 ) ) ;
#158 = AXIS2_PLACEMENT_3D ( 'NONE', #263, #482, #571 ) ;
#159 = DIRECTION ( 'NONE',  ( 0.0000000000000000000, 0.0000000000000000000, -1.000000000000000000 ) ) ;
#160 = DIRECTION ( 'NONE',  ( 1.000000000000000000, 0.0000000000000000000, -2.710505431213761600E-016 ) ) ;
#161 = LINE ( 'NONE', #750, #17 ) ;
#162 = AXIS2_PLACEMENT_3D ( 'NONE', #576, #1270, #386 ) ;
#163 = ORIENTED_EDGE ( 'NONE', *, *, #85, .T. ) ;
#164 = CARTESIAN_POINT ( 'NONE',  ( 0.3999999999999998600, 0.6500000000000000200, -0.3599999999999998800 ) ) ;
#165 = ORIENTED_EDGE ( 'NONE', *, *, #302, .T. ) ;
#166 = EDGE_CURVE ( 'NONE', #995, #481, #479, .T. ) ;
#167 = LINE ( 'NONE', #1170, #504 ) ;
#168 = VECTOR ( 'NONE', #583, 1000.000000000000000 ) ;
#169 = ORIENTED_EDGE ( 'NONE', *, *, #497, .T. ) ;
#170 = EDGE_CURVE ( 'NONE', #294, #247, #704, .T. ) ;
#171 = DIRECTION ( 'NONE',  ( 0.0000000000000000000, 0.0000000000000000000, -1.000000000000000000 ) ) ;
#172 = DIRECTION ( 'NONE',  ( -1.000000000000000000, 0.0000000000000000000, 0.0000000000000000000 ) ) ;
#173 = EDGE_CURVE ( 'NONE', #990, #473, #1238, .T. ) ;
#174 = EDGE_LOOP ( 'NONE', ( #1075, #1228, #904, #1232 ) ) ;
#175 = DIRECTION ( 'NONE',  ( 0.0000000000000000000, -1.000000000000000000, 0.0000000000000000000 ) ) ;
#176 = ORIENTED_EDGE ( 'NONE', *, *, #422, .F. ) ;
#177 = VECTOR ( 'NONE', #1268, 1000.000000000000000 ) ;
#178 = EDGE_CURVE ( 'NONE', #823, #517, #598, .T. ) ;
#179 = AXIS2_PLACEMENT_3D ( 'NONE', #1097, #913, #1224 ) ;
#180 = FACE_OUTER_BOUND ( 'NONE', #790, .T. ) ;
#181 = CARTESIAN_POINT ( 'NONE',  ( 0.3999999999999996900, 0.0000000000000000000, 0.3599999999999997600 ) ) ;
#182 = SHAPE_DEFINITION_REPRESENTATION ( #752, #155 ) ;
#183 = ORIENTED_EDGE ( 'NONE', *, *, #1214, .T. ) ;
#184 = DIRECTION ( 'NONE',  ( 0.0000000000000000000, 0.0000000000000000000, -1.000000000000000000 ) ) ;
#185 = CARTESIAN_POINT ( 'NONE',  ( -0.7599999999999999000, 0.04000000000000000100, -0.3599999999999998800 ) ) ;
#186 = AXIS2_PLACEMENT_3D ( 'NONE', #613, #1109, #718 ) ;
#187 = VERTEX_POINT ( 'NONE', #1199 ) ;
#188 = DIRECTION ( 'NONE',  ( 0.0000000000000000000, 0.0000000000000000000, 1.000000000000000000 ) ) ;
#189 = DIRECTION ( 'NONE',  ( 1.505836350674313000E-016, 0.0000000000000000000, 1.000000000000000000 ) ) ;
#190 = ADVANCED_FACE ( 'NONE', ( #370 ), #1173, .T. ) ;
#191 = ORIENTED_EDGE ( 'NONE', *, *, #844, .T. ) ;
#192 = LINE ( 'NONE', #80, #177 ) ;
#193 = LINE ( 'NONE', #290, #1155 ) ;
#194 = CARTESIAN_POINT ( 'NONE',  ( 0.3999999999999996900, 0.03999999999999999400, 0.3600000000000000400 ) ) ;
#195 = CYLINDRICAL_SURFACE ( 'NONE', #323, 0.03999999999999999400 ) ;
#196 = LINE ( 'NONE', #450, #908 ) ;
#197 = FACE_OUTER_BOUND ( 'NONE', #120, .T. ) ;
#198 = PLANE ( 'NONE',  #413 ) ;
#199 = ORIENTED_EDGE ( 'NONE', *, *, #1092, .T. ) ;
#200 = CARTESIAN_POINT ( 'NONE',  ( -0.7599999999999999000, 0.03999999999999999400, -0.3999999999999998600 ) ) ;
#201 = LINE ( 'NONE', #538, #438 ) ;
#202 = DIRECTION ( 'NONE',  ( 1.000000000000000000, 0.0000000000000000000, 0.0000000000000000000 ) ) ;
#203 = ADVANCED_FACE ( 'NONE', ( #197 ), #1088, .F. ) ;
#204 = ORIENTED_EDGE ( 'NONE', *, *, #21, .F. ) ;
#205 = MECHANICAL_DESIGN_GEOMETRIC_PRESENTATION_REPRESENTATION (  '', ( #91 ), #545 ) ;
#206 = DIRECTION ( 'NONE',  ( 0.0000000000000000000, -1.000000000000000000, 0.0000000000000000000 ) ) ;
#207 = VERTEX_POINT ( 'NONE', #401 ) ;
#208 = CARTESIAN_POINT ( 'NONE',  ( 0.3999999999999996900, 0.6500000000000000200, 0.3600000000000000400 ) ) ;
#209 = ORIENTED_EDGE ( 'NONE', *, *, #1150, .F. ) ;
#210 = FACE_OUTER_BOUND ( 'NONE', #174, .T. ) ;
#211 = DIRECTION ( 'NONE',  ( 1.000000000000000000, 0.0000000000000000000, 2.710505431213764000E-016 ) ) ;
#212 = LINE ( 'NONE', #410, #573 ) ;
#213 = DIRECTION ( 'NONE',  ( 0.0000000000000000000, 0.0000000000000000000, -1.000000000000000000 ) ) ;
#214 = AXIS2_PLACEMENT_3D ( 'NONE', #939, #443, #345 ) ;
#215 = DIRECTION ( 'NONE',  ( 0.0000000000000000000, -0.0000000000000000000, -1.000000000000000000 ) ) ;
#216 = ORIENTED_EDGE ( 'NONE', *, *, #1041, .F. ) ;
#217 = CARTESIAN_POINT ( 'NONE',  ( -0.3999999999999996900, 0.03999999999999999400, 0.4000000000000000200 ) ) ;
#218 = EDGE_CURVE ( 'NONE', #233, #555, #507, .T. ) ;
#219 = ADVANCED_FACE ( 'NONE', ( #1266 ), #198, .T. ) ;
#220 = CARTESIAN_POINT ( 'NONE',  ( 0.7599999999999999000, 0.6099999999999999900, -0.3999999999999998600 ) ) ;
#221 = ORIENTED_EDGE ( 'NONE', *, *, #666, .F. ) ;
#222 =( GEOMETRIC_REPRESENTATION_CONTEXT ( 3 ) GLOBAL_UNCERTAINTY_ASSIGNED_CONTEXT ( ( #1177 ) ) GLOBAL_UNIT_ASSIGNED_CONTEXT ( ( #563, #855, #1252 ) ) REPRESENTATION_CONTEXT ( 'NONE', 'WORKASPACE' ) );
#223 = ORIENTED_EDGE ( 'NONE', *, *, #705, .F. ) ;
#224 = DIRECTION ( 'NONE',  ( -0.0000000000000000000, 1.000000000000000000, -0.0000000000000000000 ) ) ;
#225 = DIRECTION ( 'NONE',  ( 0.0000000000000000000, 0.0000000000000000000, 1.000000000000000000 ) ) ;
#226 = DIRECTION ( 'NONE',  ( 0.0000000000000000000, 0.0000000000000000000, 1.000000000000000000 ) ) ;
#227 = CARTESIAN_POINT ( 'NONE',  ( 0.4000000000132786200, 0.01333333333333334300, 0.3599999999999996000 ) ) ;
#228 = CARTESIAN_POINT ( 'NONE',  ( 0.3999999999999996900, 0.6500000000000000200, 0.3599999999999997600 ) ) ;
#229 =( NAMED_UNIT ( * ) PLANE_ANGLE_UNIT ( ) SI_UNIT ( $, .RADIAN. ) );
#230 = AXIS2_PLACEMENT_3D ( 'NONE', #511, #123, #527 ) ;
#231 = EDGE_LOOP ( 'NONE', ( #626, #773, #595, #1267 ) ) ;
#232 = CARTESIAN_POINT ( 'NONE',  ( -0.7999999999999997100, 0.6099999999999999900, 0.4000000000000000200 ) ) ;
#233 = VERTEX_POINT ( 'NONE', #880 ) ;
#234 = DIRECTION ( 'NONE',  ( -1.000000000000000000, 0.0000000000000000000, 2.032879073410321300E-016 ) ) ;
#235 = CARTESIAN_POINT ( 'NONE',  ( -0.7599999999999999000, 0.03999999999999999400, -0.3599999999999998800 ) ) ;
#236 = ORIENTED_EDGE ( 'NONE', *, *, #748, .T. ) ;
#237 = ORIENTED_EDGE ( 'NONE', *, *, #469, .F. ) ;
#238 = PRESENTATION_STYLE_ASSIGNMENT (( #672 ) ) ;
#239 = EDGE_CURVE ( 'NONE', #699, #975, #1276, .T. ) ;
#240 = CIRCLE ( 'NONE', #456, 0.02666666666666664800 ) ;
#241 = ADVANCED_FACE ( 'NONE', ( #1000 ), #415, .T. ) ;
#242 = EDGE_CURVE ( 'NONE', #249, #266, #1113, .T. ) ;
#243 = DIRECTION ( 'NONE',  ( 1.000000000000000000, 0.0000000000000000000, 0.0000000000000000000 ) ) ;
#244 = VERTEX_POINT ( 'NONE', #903 ) ;
#245 = CARTESIAN_POINT ( 'NONE',  ( -0.7599999999999996800, 0.6500000000000000200, 0.3600000000000000400 ) ) ;
#246 = UNCERTAINTY_MEASURE_WITH_UNIT (LENGTH_MEASURE( 1.000000000000000100E-005 ), #389, 'distance_accuracy_value', 'NONE');
#247 = VERTEX_POINT ( 'NONE', #426 ) ;
#248 = ORIENTED_EDGE ( 'NONE', *, *, #1178, .T. ) ;
#249 = VERTEX_POINT ( 'NONE', #622 ) ;
#250 = EDGE_LOOP ( 'NONE', ( #471, #1254, #377, #148 ) ) ;
#251 = EDGE_CURVE ( 'NONE', #458, #587, #212, .T. ) ;
#252 = DIRECTION ( 'NONE',  ( -1.000000000000000000, -0.0000000000000000000, 8.673617379884036700E-017 ) ) ;
#253 = VECTOR ( 'NONE', #417, 1000.000000000000000 ) ;
#254 = CARTESIAN_POINT ( 'NONE',  ( -0.7999999999999999300, 0.6500000000000000200, -0.3999999999999998600 ) ) ;
#255 = EDGE_LOOP ( 'NONE', ( #902, #1015, #118, #857 ) ) ;
#256 = AXIS2_PLACEMENT_3D ( 'NONE', #882, #984, #296 ) ;
#257 = VECTOR ( 'NONE', #607, 1000.000000000000000 ) ;
#258 = DIRECTION ( 'NONE',  ( 1.000000000000000000, 0.0000000000000000000, 0.0000000000000000000 ) ) ;
#259 = CARTESIAN_POINT ( 'NONE',  ( 500000.0000000000600, 0.01333333333333334300, 0.3599999999566315700 ) ) ;
#260 = FACE_OUTER_BOUND ( 'NONE', #920, .T. ) ;
#261 = CLOSED_SHELL ( 'NONE', ( #1081, #18, #400, #1122, #919, #787, #835, #1194, #588, #503, #1024, #1239, #1279, #1225, #726, #190, #899, #778 ) ) ;
#262 = EDGE_LOOP ( 'NONE', ( #1059, #116, #965, #634 ) ) ;
#263 = CARTESIAN_POINT ( 'NONE',  ( 500000.0000000000600, 0.6099999999999999900, 0.3866666666232984600 ) ) ;
#264 = DIRECTION ( 'NONE',  ( 0.0000000000000000000, 0.0000000000000000000, 1.000000000000000000 ) ) ;
#265 = ORIENTED_EDGE ( 'NONE', *, *, #239, .F. ) ;
#266 = VERTEX_POINT ( 'NONE', #220 ) ;
#267 = SURFACE_STYLE_USAGE ( .BOTH. , #658 ) ;
#268 = AXIS2_PLACEMENT_3D ( 'NONE', #522, #923, #719 ) ;
#269 = VECTOR ( 'NONE', #963, 1000.000000000000000 ) ;
#270 = DIRECTION ( 'NONE',  ( 1.000000000000000000, 0.0000000000000000000, 2.032879073410321300E-016 ) ) ;
#271 = DIRECTION ( 'NONE',  ( 2.710505431213761600E-016, -0.0000000000000000000, 1.000000000000000000 ) ) ;
#272 = VECTOR ( 'NONE', #452, 1000.000000000000000 ) ;
#273 = FACE_OUTER_BOUND ( 'NONE', #803, .T. ) ;
#274 = ORIENTED_EDGE ( 'NONE', *, *, #96, .F. ) ;
#275 = CARTESIAN_POINT ( 'NONE',  ( 0.0000000000000000000, 0.6099999999999999900, -0.3599999999999998800 ) ) ;
#276 = DIRECTION ( 'NONE',  ( 0.0000000000000000000, 1.000000000000000000, 0.0000000000000000000 ) ) ;
#277 = ORIENTED_EDGE ( 'NONE', *, *, #309, .T. ) ;
#278 = AXIS2_PLACEMENT_3D ( 'NONE', #35, #226, #713 ) ;
#279 = DIRECTION ( 'NONE',  ( -1.000000000000000000, 0.0000000000000000000, 0.0000000000000000000 ) ) ;
#280 = ORIENTED_EDGE ( 'NONE', *, *, #1060, .T. ) ;
#281 = VERTEX_POINT ( 'NONE', #1105 ) ;
#282 = EDGE_CURVE ( 'NONE', #473, #266, #1128, .T. ) ;
#283 = CIRCLE ( 'NONE', #480, 0.03999999999999999400 ) ;
#284 = AXIS2_PLACEMENT_3D ( 'NONE', #1261, #172, #1165 ) ;
#285 = DIRECTION ( 'NONE',  ( 0.0000000000000000000, 0.0000000000000000000, -1.000000000000000000 ) ) ;
#286 = CARTESIAN_POINT ( 'NONE',  ( 0.7599999999999999000, 0.04000000000000000100, -0.3599999999999998800 ) ) ;
#287 = CARTESIAN_POINT ( 'NONE',  ( -0.7599999999999999000, 0.0000000000000000000, -0.3599999999999998800 ) ) ;
#288 = ORIENTED_EDGE ( 'NONE', *, *, #1190, .F. ) ;
#289 = DIRECTION ( 'NONE',  ( 0.0000000000000000000, 0.0000000000000000000, -1.000000000000000000 ) ) ;
#290 = CARTESIAN_POINT ( 'NONE',  ( -0.7999999999999999300, 0.6099999999999999900, -0.3999999999999998600 ) ) ;
#291 = ADVANCED_FACE ( 'NONE', ( #478 ), #912, .F. ) ;
#292 = AXIS2_PLACEMENT_3D ( 'NONE', #371, #729, #833 ) ;
#293 = ORIENTED_EDGE ( 'NONE', *, *, #640, .T. ) ;
#294 = VERTEX_POINT ( 'NONE', #321 ) ;
#295 = CARTESIAN_POINT ( 'NONE',  ( 0.7999999999999999300, 0.03999999999999999400, -0.3999999999999998600 ) ) ;
#296 = DIRECTION ( 'NONE',  ( -1.000000000000000000, 0.0000000000000000000, 0.0000000000000000000 ) ) ;
#297 = ORIENTED_EDGE ( 'NONE', *, *, #166, .T. ) ;
#298 = ORIENTED_EDGE ( 'NONE', *, *, #929, .T. ) ;
#299 = ADVANCED_FACE ( 'NONE', ( #337 ), #1237, .T. ) ;
#300 = DIRECTION ( 'NONE',  ( -1.000000000000000000, 0.0000000000000000000, 0.0000000000000000000 ) ) ;
#301 = LINE ( 'NONE', #710, #830 ) ;
#302 = EDGE_CURVE ( 'NONE', #994, #458, #834, .T. ) ;
#303 = PRESENTATION_STYLE_ASSIGNMENT (( #910 ) ) ;
#304 = DIRECTION ( 'NONE',  ( -0.0000000000000000000, -0.0000000000000000000, -1.000000000000000000 ) ) ;
#305 = VERTEX_POINT ( 'NONE', #324 ) ;
#306 = CARTESIAN_POINT ( 'NONE',  ( 0.3999999999999996900, 0.6099999999999999900, 0.4000000000000000200 ) ) ;
#307 = ADVANCED_FACE ( 'NONE', ( #755 ), #804, .F. ) ;
#308 = ORIENTED_EDGE ( 'NONE', *, *, #783, .F. ) ;
#309 = EDGE_CURVE ( 'NONE', #966, #1166, #615, .T. ) ;
#310 = CARTESIAN_POINT ( 'NONE',  ( 0.7599999999999996800, 0.6099999999999999900, 0.4000000000000000200 ) ) ;
#311 = EDGE_LOOP ( 'NONE', ( #6, #1099, #487, #68 ) ) ;
#312 = PRODUCT_RELATED_PRODUCT_CATEGORY ( 'part', '', ( #570 ) ) ;
#313 = ORIENTED_EDGE ( 'NONE', *, *, #666, .T. ) ;
#314 = ADVANCED_FACE ( 'NONE', ( #875 ), #848, .T. ) ;
#315 = VERTEX_POINT ( 'NONE', #40 ) ;
#316 = DIRECTION ( 'NONE',  ( 1.000000000000000000, 0.0000000000000000000, 0.0000000000000000000 ) ) ;
#317 = ORIENTED_EDGE ( 'NONE', *, *, #302, .F. ) ;
#318 = CYLINDRICAL_SURFACE ( 'NONE', #179, 0.02666666666666670000 ) ;
#319 = CIRCLE ( 'NONE', #1272, 0.03999999999999999400 ) ;
#320 = VECTOR ( 'NONE', #1213, 1000.000000000000000 ) ;
#321 = CARTESIAN_POINT ( 'NONE',  ( 0.4000000000132786200, 0.6099999999999999900, 0.3866666666666664900 ) ) ;
#322 = VECTOR ( 'NONE', #841, 1000.000000000000000 ) ;
#323 = AXIS2_PLACEMENT_3D ( 'NONE', #529, #1117, #213 ) ;
#324 = CARTESIAN_POINT ( 'NONE',  ( -0.7999999999999997100, 0.03999999999999999400, 0.3600000000000000400 ) ) ;
#325 = CARTESIAN_POINT ( 'NONE',  ( -0.3999999999999996900, 0.6500000000000000200, 0.4000000000000000200 ) ) ;
#326 = DIRECTION ( 'NONE',  ( 1.000000000000000000, 0.0000000000000000000, 2.032879073410321300E-016 ) ) ;
#327 = FACE_OUTER_BOUND ( 'NONE', #1200, .T. ) ;
#328 = CARTESIAN_POINT ( 'NONE',  ( 0.7999999999999999300, 0.6500000000000000200, -0.3999999999999998600 ) ) ;
#329 = CARTESIAN_POINT ( 'NONE',  ( -0.7999999999999999300, 0.6500000000000000200, -0.3999999999999998600 ) ) ;
#330 = EDGE_CURVE ( 'NONE', #946, #281, #1067, .T. ) ;
#331 = LINE ( 'NONE', #1230, #1197 ) ;
#332 = SURFACE_SIDE_STYLE ('',( #397 ) ) ;
#333 = CIRCLE ( 'NONE', #1203, 0.03999999999999999400 ) ;
#334 = ORIENTED_EDGE ( 'NONE', *, *, #170, .T. ) ;
#335 = PLANE ( 'NONE',  #1160 ) ;
#336 = CARTESIAN_POINT ( 'NONE',  ( 0.3999999999999998600, 0.03999999999999999400, -0.3599999999999998800 ) ) ;
#337 = FACE_OUTER_BOUND ( 'NONE', #914, .T. ) ;
#338 = DIRECTION ( 'NONE',  ( 0.0000000000000000000, 1.000000000000000000, -0.0000000000000000000 ) ) ;
#339 = DIRECTION ( 'NONE',  ( -1.000000000000000000, -0.0000000000000000000, -0.0000000000000000000 ) ) ;
#340 = PLANE ( 'NONE',  #382 ) ;
#341 = AXIS2_PLACEMENT_3D ( 'NONE', #329, #160, #1028 ) ;
#342 = ORIENTED_EDGE ( 'NONE', *, *, #1118, .F. ) ;
#343 = VERTEX_POINT ( 'NONE', #25 ) ;
#344 = ADVANCED_FACE ( 'NONE', ( #151 ), #421, .F. ) ;
#345 = DIRECTION ( 'NONE',  ( -8.673617379884036700E-017, 0.0000000000000000000, -1.000000000000000000 ) ) ;
#346 = ORIENTED_EDGE ( 'NONE', *, *, #45, .F. ) ;
#347 = CARTESIAN_POINT ( 'NONE',  ( 0.7999999999999999300, 0.6500000000000000200, -0.3599999999999998800 ) ) ;
#348 = AXIS2_PLACEMENT_3D ( 'NONE', #355, #454, #1148 ) ;
#349 = ORIENTED_EDGE ( 'NONE', *, *, #484, .F. ) ;
#350 = ORIENTED_EDGE ( 'NONE', *, *, #616, .T. ) ;
#351 = CARTESIAN_POINT ( 'NONE',  ( -0.7999999999999997100, 0.6099999999999999900, 0.3600000000000000400 ) ) ;
#352 = CIRCLE ( 'NONE', #256, 0.03999999999999999400 ) ;
#353 = LINE ( 'NONE', #671, #462 ) ;
#354 = EDGE_CURVE ( 'NONE', #207, #1091, #449, .T. ) ;
#355 = CARTESIAN_POINT ( 'NONE',  ( -0.3999999999999997400, 0.6099999999999999900, 0.3599999999999999900 ) ) ;
#356 = VECTOR ( 'NONE', #870, 1000.000000000000000 ) ;
#357 = CARTESIAN_POINT ( 'NONE',  ( 0.3999999999999998600, 0.6099999999999999900, -0.3999999999999998600 ) ) ;
#358 = EDGE_LOOP ( 'NONE', ( #805, #509, #930, #221 ) ) ;
#359 = DIRECTION ( 'NONE',  ( 1.000000000000000000, 0.0000000000000000000, 0.0000000000000000000 ) ) ;
#360 = CARTESIAN_POINT ( 'NONE',  ( -0.3999999999999997400, 0.01333333333333334300, 0.3599999999999997100 ) ) ;
#361 = VERTEX_POINT ( 'NONE', #227 ) ;
#362 = EDGE_CURVE ( 'NONE', #247, #807, #546, .T. ) ;
#363 = PLANE ( 'NONE',  #1245 ) ;
#364 = EDGE_LOOP ( 'NONE', ( #574, #916, #1269, #584, #30, #889, #580, #140 ) ) ;
#365 = AXIS2_PLACEMENT_3D ( 'NONE', #46, #64, #437 ) ;
#366 = CIRCLE ( 'NONE', #648, 0.03999999999999999400 ) ;
#367 = SURFACE_STYLE_FILL_AREA ( #14 ) ;
#368 = CARTESIAN_POINT ( 'NONE',  ( 0.7999999999999999300, 0.03999999999999999400, -0.3999999999999998600 ) ) ;
#369 = LINE ( 'NONE', #5, #873 ) ;
#370 = FACE_OUTER_BOUND ( 'NONE', #1104, .T. ) ;
#371 = CARTESIAN_POINT ( 'NONE',  ( 0.7999999999999997100, 0.03999999999999999400, 0.3600000000000000400 ) ) ;
#372 = AXIS2_PLACEMENT_3D ( 'NONE', #488, #866, #1174 ) ;
#373 = ORIENTED_EDGE ( 'NONE', *, *, #1265, .T. ) ;
#374 = CARTESIAN_POINT ( 'NONE',  ( -0.7999999999999997100, 0.03999999999999999400, 0.4000000000000000200 ) ) ;
#375 = EDGE_LOOP ( 'NONE', ( #762, #637, #16, #740 ) ) ;
#376 = EDGE_CURVE ( 'NONE', #425, #75, #649, .T. ) ;
#377 = ORIENTED_EDGE ( 'NONE', *, *, #839, .T. ) ;
#378 = DIRECTION ( 'NONE',  ( 0.0000000000000000000, -0.0000000000000000000, 1.000000000000000000 ) ) ;
#379 = EDGE_LOOP ( 'NONE', ( #1077, #47, #1124, #1202 ) ) ;
#380 = EDGE_LOOP ( 'NONE', ( #501, #7, #113, #663 ) ) ;
#381 = CIRCLE ( 'NONE', #32, 0.03999999999999999400 ) ;
#382 = AXIS2_PLACEMENT_3D ( 'NONE', #1257, #457, #754 ) ;
#383 = CYLINDRICAL_SURFACE ( 'NONE', #1219, 0.02666666666666664800 ) ;
#384 = EDGE_LOOP ( 'NONE', ( #1168, #1154, #932, #1244 ) ) ;
#385 = DIRECTION ( 'NONE',  ( 0.0000000000000000000, 0.0000000000000000000, -1.000000000000000000 ) ) ;
#386 = DIRECTION ( 'NONE',  ( 0.0000000000000000000, 0.0000000000000000000, -1.000000000000000000 ) ) ;
#387 = ADVANCED_FACE ( 'NONE', ( #795 ), #560, .T. ) ;
#388 = DIRECTION ( 'NONE',  ( 1.000000000000000000, 0.0000000000000000000, -8.673617379884036700E-017 ) ) ;
#389 =( LENGTH_UNIT ( ) NAMED_UNIT ( * ) SI_UNIT ( .MILLI., .METRE. ) );
#390 = DIRECTION ( 'NONE',  ( 2.032879073410321300E-016, -0.0000000000000000000, -1.000000000000000000 ) ) ;
#391 = EDGE_LOOP ( 'NONE', ( #799, #1241, #550, #23 ) ) ;
#392 = ADVANCED_FACE ( 'NONE', ( #180 ), #1034, .T. ) ;
#393 = DIRECTION ( 'NONE',  ( -2.710505431213761600E-016, 0.0000000000000000000, 1.000000000000000000 ) ) ;
#394 = ORIENTED_EDGE ( 'NONE', *, *, #1193, .F. ) ;
#395 = VECTOR ( 'NONE', #769, 1000.000000000000000 ) ;
#396 = EDGE_CURVE ( 'NONE', #187, #75, #12, .T. ) ;
#397 = SURFACE_STYLE_FILL_AREA ( #721 ) ;
#398 = CYLINDRICAL_SURFACE ( 'NONE', #1278, 0.03999999999999999400 ) ;
#399 = CARTESIAN_POINT ( 'NONE',  ( -0.7599999999999996800, 0.6099999999999999900, 0.3600000000000000400 ) ) ;
#400 = ADVANCED_FACE ( 'NONE', ( #61 ), #335, .F. ) ;
#401 = CARTESIAN_POINT ( 'NONE',  ( 0.4000000000132786200, 0.6099999999999997600, -0.3866666666666666600 ) ) ;
#402 = EDGE_CURVE ( 'NONE', #823, #760, #196, .T. ) ;
#403 = DIRECTION ( 'NONE',  ( 1.000000000000000000, -0.0000000000000000000, -2.032879073410321300E-016 ) ) ;
#404 = PRODUCT_DEFINITION ( 'UNKNOWN', '', #119, #876 ) ;
#405 = ADVANCED_FACE ( 'NONE', ( #273 ), #737, .F. ) ;
#406 = CIRCLE ( 'NONE', #1086, 0.03999999999999999400 ) ;
#407 = ORIENTED_EDGE ( 'NONE', *, *, #282, .T. ) ;
#408 = VERTEX_POINT ( 'NONE', #1226 ) ;
#409 = EDGE_LOOP ( 'NONE', ( #429, #204, #1076, #1242 ) ) ;
#410 = CARTESIAN_POINT ( 'NONE',  ( -0.7999999999999999300, 0.03999999999999999400, -0.3999999999999998600 ) ) ;
#411 = CIRCLE ( 'NONE', #1138, 0.03999999999999999400 ) ;
#412 = DIRECTION ( 'NONE',  ( -1.000000000000000000, 0.0000000000000000000, 0.0000000000000000000 ) ) ;
#413 = AXIS2_PLACEMENT_3D ( 'NONE', #500, #13, #986 ) ;
#414 = ADVANCED_FACE ( 'NONE', ( #688 ), #766, .T. ) ;
#415 = CYLINDRICAL_SURFACE ( 'NONE', #1227, 0.03999999999999999400 ) ;
#416 = VECTOR ( 'NONE', #896, 1000.000000000000000 ) ;
#417 = DIRECTION ( 'NONE',  ( -2.032879073410321300E-016, -0.0000000000000000000, -1.000000000000000000 ) ) ;
#418 = ORIENTED_EDGE ( 'NONE', *, *, #640, .F. ) ;
#419 = CARTESIAN_POINT ( 'NONE',  ( -0.3999999999999998600, 0.6366666666666667100, -0.3599999999999999300 ) ) ;
#420 = ORIENTED_EDGE ( 'NONE', *, *, #354, .T. ) ;
#421 = PLANE ( 'NONE',  #43 ) ;
#422 = EDGE_CURVE ( 'NONE', #937, #266, #925, .T. ) ;
#423 = DIRECTION ( 'NONE',  ( 0.0000000000000000000, 0.0000000000000000000, -1.000000000000000000 ) ) ;
#424 = AXIS2_PLACEMENT_3D ( 'NONE', #569, #951, #1066 ) ;
#425 = VERTEX_POINT ( 'NONE', #351 ) ;
#426 = CARTESIAN_POINT ( 'NONE',  ( 0.4000000000132786200, 0.04000000000000021600, 0.3866666666666664900 ) ) ;
#427 = CARTESIAN_POINT ( 'NONE',  ( -0.3999999999999998600, 0.03999999999999999400, -0.3599999999999998800 ) ) ;
#428 = CARTESIAN_POINT ( 'NONE',  ( -0.7599999999999999000, 0.6099999999999999900, -0.3599999999999998800 ) ) ;
#429 = ORIENTED_EDGE ( 'NONE', *, *, #1044, .F. ) ;
#430 = PRESENTATION_STYLE_ASSIGNMENT (( #811 ) ) ;
#431 = DIRECTION ( 'NONE',  ( -0.0000000000000000000, -1.000000000000000000, -0.0000000000000000000 ) ) ;
#432 = CARTESIAN_POINT ( 'NONE',  ( -0.7999999999999999300, 0.03999999999999999400, -0.3599999999999998800 ) ) ;
#433 = CIRCLE ( 'NONE', #770, 0.02666666666666664800 ) ;
#434 = CARTESIAN_POINT ( 'NONE',  ( -0.7599999999999996800, 0.6099999999999999900, 0.3600000000000000400 ) ) ;
#435 = ORIENTED_EDGE ( 'NONE', *, *, #577, .T. ) ;
#436 = DIRECTION ( 'NONE',  ( 1.000000000000000000, 0.0000000000000000000, 2.032879073410321300E-016 ) ) ;
#437 = DIRECTION ( 'NONE',  ( 0.0000000000000000000, 0.0000000000000000000, -1.000000000000000000 ) ) ;
#438 = VECTOR ( 'NONE', #633, 1000.000000000000000 ) ;
#439 = CARTESIAN_POINT ( 'NONE',  ( 0.0000000000000000000, 0.6099999999999999900, 0.3600000000000000400 ) ) ;
#440 = AXIS2_PLACEMENT_3D ( 'NONE', #194, #114, #188 ) ;
#441 = ADVANCED_FACE ( 'NONE', ( #956 ), #48, .F. ) ;
#442 = EDGE_LOOP ( 'NONE', ( #277, #837, #63, #1137 ) ) ;
#443 = DIRECTION ( 'NONE',  ( 1.000000000000000000, 0.0000000000000000000, -8.673617379884036700E-017 ) ) ;
#444 = DIRECTION ( 'NONE',  ( 0.0000000000000000000, 1.000000000000000000, 0.0000000000000000000 ) ) ;
#445 = EDGE_LOOP ( 'NONE', ( #101, #554, #897, #673 ) ) ;
#446 = CYLINDRICAL_SURFACE ( 'NONE', #135, 0.02666666666666664800 ) ;
#447 = EDGE_CURVE ( 'NONE', #75, #315, #477, .T. ) ;
#448 = EDGE_CURVE ( 'NONE', #519, #582, #736, .T. ) ;
#449 = CIRCLE ( 'NONE', #566, 0.02666666666666664800 ) ;
#450 = CARTESIAN_POINT ( 'NONE',  ( 0.3999999999999998600, 0.0000000000000000000, -0.3999999999999998600 ) ) ;
#451 = VECTOR ( 'NONE', #206, 1000.000000000000000 ) ;
#452 = DIRECTION ( 'NONE',  ( 0.0000000000000000000, -1.000000000000000000, 0.0000000000000000000 ) ) ;
#453 = DIRECTION ( 'NONE',  ( -1.000000000000000000, 0.0000000000000000000, 0.0000000000000000000 ) ) ;
#454 = DIRECTION ( 'NONE',  ( 1.000000000000000000, 0.0000000000000000000, -8.673617379884036700E-017 ) ) ;
#455 = DIRECTION ( 'NONE',  ( 0.0000000000000000000, 0.0000000000000000000, 1.000000000000000000 ) ) ;
#456 = AXIS2_PLACEMENT_3D ( 'NONE', #1144, #58, #159 ) ;
#457 = DIRECTION ( 'NONE',  ( 0.0000000000000000000, 1.000000000000000000, 0.0000000000000000000 ) ) ;
#458 = VERTEX_POINT ( 'NONE', #845 ) ;
#459 = LINE ( 'NONE', #816, #1233 ) ;
#460 = DIRECTION ( 'NONE',  ( -1.000000000000000000, 0.0000000000000000000, 0.0000000000000000000 ) ) ;
#461 = LINE ( 'NONE', #905, #320 ) ;
#462 = VECTOR ( 'NONE', #175, 1000.000000000000000 ) ;
#463 = EDGE_CURVE ( 'NONE', #247, #361, #240, .T. ) ;
#464 =( LENGTH_UNIT ( ) NAMED_UNIT ( * ) SI_UNIT ( .MILLI., .METRE. ) );
#465 = EDGE_LOOP ( 'NONE', ( #50, #334, #600, #771, #435, #1249, #420, #485 ) ) ;
#466 = DIRECTION ( 'NONE',  ( 0.0000000000000000000, 0.0000000000000000000, 1.000000000000000000 ) ) ;
#467 = EDGE_CURVE ( 'NONE', #807, #789, #139, .T. ) ;
#468 = CARTESIAN_POINT ( 'NONE',  ( -0.7599999999999996800, 0.6099999999999999900, 0.4000000000000000200 ) ) ;
#469 = EDGE_CURVE ( 'NONE', #473, #995, #632, .T. ) ;
#470 = PRODUCT_CONTEXT ( 'NONE', #664, 'mechanical' ) ;
#471 = ORIENTED_EDGE ( 'NONE', *, *, #581, .T. ) ;
#472 = CARTESIAN_POINT ( 'NONE',  ( -0.7999999999999999300, 0.6500000000000000200, -0.3599999999999998800 ) ) ;
#473 = VERTEX_POINT ( 'NONE', #1049 ) ;
#474 = DIRECTION ( 'NONE',  ( 0.0000000000000000000, -0.0000000000000000000, 1.000000000000000000 ) ) ;
#475 = LINE ( 'NONE', #1264, #31 ) ;
#476 = LINE ( 'NONE', #849, #751 ) ;
#477 = LINE ( 'NONE', #650, #272 ) ;
#478 = FACE_OUTER_BOUND ( 'NONE', #1043, .T. ) ;
#479 = LINE ( 'NONE', #295, #944 ) ;
#480 = AXIS2_PLACEMENT_3D ( 'NONE', #428, #1120, #1220 ) ;
#481 = VERTEX_POINT ( 'NONE', #749 ) ;
#482 = DIRECTION ( 'NONE',  ( -8.673617379884036700E-017, 0.0000000000000000000, -1.000000000000000000 ) ) ;
#483 =( NAMED_UNIT ( * ) PLANE_ANGLE_UNIT ( ) SI_UNIT ( $, .RADIAN. ) );
#484 = EDGE_CURVE ( 'NONE', #555, #244, #660, .T. ) ;
#485 = ORIENTED_EDGE ( 'NONE', *, *, #1172, .T. ) ;
#486 = ADVANCED_FACE ( 'NONE', ( #71 ), #561, .F. ) ;
#487 = ORIENTED_EDGE ( 'NONE', *, *, #484, .T. ) ;
#488 = CARTESIAN_POINT ( 'NONE',  ( 0.7599999999999999000, 0.6099999999999999900, -0.3599999999999998800 ) ) ;
#489 = EDGE_CURVE ( 'NONE', #1169, #853, #1158, .T. ) ;
#490 = ORIENTED_EDGE ( 'NONE', *, *, #362, .F. ) ;
#491 = VECTOR ( 'NONE', #530, 1000.000000000000000 ) ;
#492 = AXIS2_PLACEMENT_3D ( 'NONE', #565, #466, #1255 ) ;
#493 = CARTESIAN_POINT ( 'NONE',  ( 0.7599999999999999000, 0.6500000000000000200, -0.3599999999999998800 ) ) ;
#494 = CARTESIAN_POINT ( 'NONE',  ( 500000.0000000000600, 0.6099999999999997600, -0.3866666667100346900 ) ) ;
#495 = DIRECTION ( 'NONE',  ( 0.0000000000000000000, 0.0000000000000000000, -1.000000000000000000 ) ) ;
#496 = VECTOR ( 'NONE', #520, 1000.000000000000000 ) ;
#497 = EDGE_CURVE ( 'NONE', #294, #244, #476, .T. ) ;
#498 = CARTESIAN_POINT ( 'NONE',  ( 0.3999999999999996900, 0.03999999999999999400, 0.4000000000000000200 ) ) ;
#499 = CARTESIAN_POINT ( 'NONE',  ( 0.0000000000000000000, 0.0000000000000000000, 0.3600000000000000400 ) ) ;
#500 = CARTESIAN_POINT ( 'NONE',  ( 0.0000000000000000000, 0.6500000000000000200, 0.0000000000000000000 ) ) ;
#501 = ORIENTED_EDGE ( 'NONE', *, *, #1006, .F. ) ;
#502 = EDGE_CURVE ( 'NONE', #693, #972, #1221, .T. ) ;
#503 = ADVANCED_FACE ( 'NONE', ( #1050 ), #1157, .T. ) ;
#504 = VECTOR ( 'NONE', #1079, 1000.000000000000000 ) ;
#505 = LINE ( 'NONE', #259, #1275 ) ;
#506 = CARTESIAN_POINT ( 'NONE',  ( 0.4000000000132786200, 0.6099999999999999900, 0.3866666666666664900 ) ) ;
#507 = LINE ( 'NONE', #599, #52 ) ;
#508 = DIRECTION ( 'NONE',  ( 0.0000000000000000000, -1.000000000000000000, 0.0000000000000000000 ) ) ;
#509 = ORIENTED_EDGE ( 'NONE', *, *, #330, .T. ) ;
#510 = ORIENTED_EDGE ( 'NONE', *, *, #794, .F. ) ;
#511 = CARTESIAN_POINT ( 'NONE',  ( 0.7599999999999999000, 0.6099999999999999900, -0.3599999999999998800 ) ) ;
#512 = ORIENTED_EDGE ( 'NONE', *, *, #1150, .T. ) ;
#513 = EDGE_CURVE ( 'NONE', #1134, #760, #369, .T. ) ;
#514 = DIRECTION ( 'NONE',  ( 1.000000000000000000, -0.0000000000000000000, -0.0000000000000000000 ) ) ;
#515 = AXIS2_PLACEMENT_3D ( 'NONE', #957, #359, #171 ) ;
#516 = DIRECTION ( 'NONE',  ( 1.000000000000000000, 0.0000000000000000000, 0.0000000000000000000 ) ) ;
#517 = VERTEX_POINT ( 'NONE', #110 ) ;
#518 = CARTESIAN_POINT ( 'NONE',  ( -0.7599999999999996800, 0.04000000000000000100, 0.3600000000000000400 ) ) ;
#519 = VERTEX_POINT ( 'NONE', #306 ) ;
#520 = DIRECTION ( 'NONE',  ( -1.000000000000000000, -0.0000000000000000000, 8.673617379884036700E-017 ) ) ;
#521 = FACE_OUTER_BOUND ( 'NONE', #86, .T. ) ;
#522 = CARTESIAN_POINT ( 'NONE',  ( 0.7599999999999996800, 0.6099999999999999900, 0.3600000000000000400 ) ) ;
#523 = DIRECTION ( 'NONE',  ( 0.0000000000000000000, 0.0000000000000000000, 1.000000000000000000 ) ) ;
#524 = AXIS2_PLACEMENT_3D ( 'NONE', #518, #800, #523 ) ;
#525 = CIRCLE ( 'NONE', #678, 0.02666666666666664800 ) ;
#526 = LINE ( 'NONE', #374, #878 ) ;
#527 = DIRECTION ( 'NONE',  ( 0.0000000000000000000, 0.0000000000000000000, 1.000000000000000000 ) ) ;
#528 = CARTESIAN_POINT ( 'NONE',  ( -0.7599999999999999000, 0.03999999999999999400, -0.3599999999999998800 ) ) ;
#529 = CARTESIAN_POINT ( 'NONE',  ( 0.7599999999999996800, 0.6500000000000000200, 0.3600000000000000400 ) ) ;
#530 = DIRECTION ( 'NONE',  ( -0.0000000000000000000, -1.000000000000000000, -0.0000000000000000000 ) ) ;
#531 = VECTOR ( 'NONE', #741, 1000.000000000000000 ) ;
#532 = EDGE_CURVE ( 'NONE', #266, #1169, #612, .T. ) ;
#533 = CARTESIAN_POINT ( 'NONE',  ( -0.7999999999999999300, 0.6500000000000000200, -0.3599999999999998800 ) ) ;
#534 = ORIENTED_EDGE ( 'NONE', *, *, #859, .F. ) ;
#535 = ORIENTED_EDGE ( 'NONE', *, *, #1133, .F. ) ;
#536 = CARTESIAN_POINT ( 'NONE',  ( -0.3999999999999998600, 0.6500000000000000200, -0.3999999999999998600 ) ) ;
#537 = EDGE_LOOP ( 'NONE', ( #1070, #199, #723 ) ) ;
#538 = CARTESIAN_POINT ( 'NONE',  ( 0.7999999999999997100, 0.6500000000000000200, 0.3599999999999999900 ) ) ;
#539 = ORIENTED_EDGE ( 'NONE', *, *, #447, .T. ) ;
#540 = ORIENTED_EDGE ( 'NONE', *, *, #1054, .T. ) ;
#541 = CYLINDRICAL_SURFACE ( 'NONE', #365, 0.03999999999999999400 ) ;
#542 = DIRECTION ( 'NONE',  ( -1.000000000000000000, -0.0000000000000000000, -0.0000000000000000000 ) ) ;
#543 = CARTESIAN_POINT ( 'NONE',  ( 0.7599999999999999000, 0.03999999999999999400, -0.3599999999999998800 ) ) ;
#544 = VECTOR ( 'NONE', #97, 1000.000000000000000 ) ;
#545 =( GEOMETRIC_REPRESENTATION_CONTEXT ( 3 ) GLOBAL_UNCERTAINTY_ASSIGNED_CONTEXT ( ( #246 ) ) GLOBAL_UNIT_ASSIGNED_CONTEXT ( ( #389, #483, #767 ) ) REPRESENTATION_CONTEXT ( 'NONE', 'WORKASPACE' ) );
#546 = LINE ( 'NONE', #627, #813 ) ;
#547 = CARTESIAN_POINT ( 'NONE',  ( 500000.0000000000600, 0.03999999999999999400, 0.3599999999566318400 ) ) ;
#548 = VERTEX_POINT ( 'NONE', #605 ) ;
#549 = DIRECTION ( 'NONE',  ( 0.0000000000000000000, -1.000000000000000000, -0.0000000000000000000 ) ) ;
#550 = ORIENTED_EDGE ( 'NONE', *, *, #1092, .F. ) ;
#551 = CARTESIAN_POINT ( 'NONE',  ( 0.7599999999999999000, 0.6099999999999999900, -0.3599999999999998800 ) ) ;
#552 = DIRECTION ( 'NONE',  ( 0.0000000000000000000, 0.0000000000000000000, 1.000000000000000000 ) ) ;
#553 = AXIS2_PLACEMENT_3D ( 'NONE', #703, #326, #1003 ) ;
#554 = ORIENTED_EDGE ( 'NONE', *, *, #502, .F. ) ;
#555 = VERTEX_POINT ( 'NONE', #998 ) ;
#556 = CARTESIAN_POINT ( 'NONE',  ( -0.3999999999999998600, 0.03999999999999999400, -0.3866666666666665500 ) ) ;
#557 = EDGE_LOOP ( 'NONE', ( #1208, #134, #1140, #1207 ) ) ;
#558 = CYLINDRICAL_SURFACE ( 'NONE', #1026, 0.03999999999999999400 ) ;
#559 = EDGE_CURVE ( 'NONE', #425, #1210, #319, .T. ) ;
#560 = CYLINDRICAL_SURFACE ( 'NONE', #149, 0.02666666666666664800 ) ;
#561 = PLANE ( 'NONE',  #630 ) ;
#562 = CARTESIAN_POINT ( 'NONE',  ( -0.3999999999999996900, 0.6099999999999999900, 0.3600000000000000400 ) ) ;
#563 =( LENGTH_UNIT ( ) NAMED_UNIT ( * ) SI_UNIT ( .MILLI., .METRE. ) );
#564 = ORIENTED_EDGE ( 'NONE', *, *, #824, .T. ) ;
#565 = CARTESIAN_POINT ( 'NONE',  ( 0.0000000000000000000, 0.0000000000000000000, 0.0000000000000000000 ) ) ;
#566 = AXIS2_PLACEMENT_3D ( 'NONE', #731, #144, #945 ) ;
#567 = VERTEX_POINT ( 'NONE', #287 ) ;
#568 = EDGE_LOOP ( 'NONE', ( #66, #619, #1011, #81 ) ) ;
#569 = CARTESIAN_POINT ( 'NONE',  ( -0.7599999999999997900, 0.6099999999999999900, 2.059984127722458400E-016 ) ) ;
#570 = PRODUCT ( 'BLM18EG101TH1D', 'BLM18EG101TH1D', '', ( #470 ) ) ;
#571 = DIRECTION ( 'NONE',  ( -1.000000000000000000, 0.0000000000000000000, 8.673617379884036700E-017 ) ) ;
#572 = VECTOR ( 'NONE', #94, 1000.000000000000000 ) ;
#573 = VECTOR ( 'NONE', #815, 1000.000000000000000 ) ;
#574 = ORIENTED_EDGE ( 'NONE', *, *, #402, .F. ) ;
#575 = DIRECTION ( 'NONE',  ( -1.000000000000000000, 0.0000000000000000000, 0.0000000000000000000 ) ) ;
#576 = CARTESIAN_POINT ( 'NONE',  ( 0.7599999999999996800, 0.03999999999999999400, 0.3600000000000000400 ) ) ;
#577 = EDGE_CURVE ( 'NONE', #946, #44, #858, .T. ) ;
#578 = CARTESIAN_POINT ( 'NONE',  ( 0.0000000000000000000, 0.0000000000000000000, 0.3600000000000000400 ) ) ;
#579 = FILL_AREA_STYLE ('',( #863 ) ) ;
#580 = ORIENTED_EDGE ( 'NONE', *, *, #489, .T. ) ;
#581 = EDGE_CURVE ( 'NONE', #425, #966, #193, .T. ) ;
#582 = VERTEX_POINT ( 'NONE', #498 ) ;
#583 = DIRECTION ( 'NONE',  ( -1.000000000000000000, 0.0000000000000000000, -0.0000000000000000000 ) ) ;
#584 = ORIENTED_EDGE ( 'NONE', *, *, #960, .F. ) ;
#585 = LINE ( 'NONE', #881, #907 ) ;
#586 = DIRECTION ( 'NONE',  ( 0.0000000000000000000, 1.000000000000000000, 0.0000000000000000000 ) ) ;
#587 = VERTEX_POINT ( 'NONE', #200 ) ;
#588 = ADVANCED_FACE ( 'NONE', ( #891 ), #717, .T. ) ;
#589 = DIRECTION ( 'NONE',  ( 0.0000000000000000000, -1.000000000000000000, 0.0000000000000000000 ) ) ;
#590 = LINE ( 'NONE', #1149, #1102 ) ;
#591 = LINE ( 'NONE', #145, #1087 ) ;
#592 = ORIENTED_EDGE ( 'NONE', *, *, #467, .F. ) ;
#593 = DIRECTION ( 'NONE',  ( -1.000000000000000000, 0.0000000000000000000, 0.0000000000000000000 ) ) ;
#594 = EDGE_CURVE ( 'NONE', #972, #1259, #1125, .T. ) ;
#595 = ORIENTED_EDGE ( 'NONE', *, *, #122, .F. ) ;
#596 = VECTOR ( 'NONE', #390, 1000.000000000000000 ) ;
#597 = CARTESIAN_POINT ( 'NONE',  ( -0.7999999999999997100, 0.03999999999999999400, 0.3600000000000000400 ) ) ;
#598 = LINE ( 'NONE', #499, #1098 ) ;
#599 = CARTESIAN_POINT ( 'NONE',  ( 500000.0000000000600, 0.6366666666666667100, 0.3599999999566313400 ) ) ;
#600 = ORIENTED_EDGE ( 'NONE', *, *, #463, .T. ) ;
#601 = CARTESIAN_POINT ( 'NONE',  ( -0.3999999999999996900, 0.6500000000000000200, 0.3600000000000000400 ) ) ;
#602 = ORIENTED_EDGE ( 'NONE', *, *, #792, .T. ) ;
#603 = FACE_OUTER_BOUND ( 'NONE', #231, .T. ) ;
#604 = CARTESIAN_POINT ( 'NONE',  ( -0.7599999999999996800, 0.03999999999999999400, 0.3600000000000000400 ) ) ;
#605 = CARTESIAN_POINT ( 'NONE',  ( -0.3999999999999998600, 0.6500000000000000200, -0.3599999999999998800 ) ) ;
#606 = ADVANCED_FACE ( 'NONE', ( #1082 ), #37, .T. ) ;
#607 = DIRECTION ( 'NONE',  ( 0.0000000000000000000, -1.000000000000000000, 0.0000000000000000000 ) ) ;
#608 = VERTEX_POINT ( 'NONE', #1201 ) ;
#609 =( NAMED_UNIT ( * ) SI_UNIT ( $, .STERADIAN. ) SOLID_ANGLE_UNIT ( ) );
#610 = ORIENTED_EDGE ( 'NONE', *, *, #396, .T. ) ;
#611 = FACE_OUTER_BOUND ( 'NONE', #980, .T. ) ;
#612 = LINE ( 'NONE', #105, #136 ) ;
#613 = CARTESIAN_POINT ( 'NONE',  ( -0.7599999999999999000, 0.6099999999999999900, -0.3599999999999998800 ) ) ;
#614 = CARTESIAN_POINT ( 'NONE',  ( -0.3999999999999998600, 0.6099999999999999900, -0.3999999999999998600 ) ) ;
#615 = CIRCLE ( 'NONE', #186, 0.03999999999999999400 ) ;
#616 = EDGE_CURVE ( 'NONE', #966, #608, #352, .T. ) ;
#617 = LINE ( 'NONE', #861, #356 ) ;
#618 = SURFACE_STYLE_FILL_AREA ( #72 ) ;
#619 = ORIENTED_EDGE ( 'NONE', *, *, #1196, .T. ) ;
#620 = CARTESIAN_POINT ( 'NONE',  ( 0.7599999999999996800, 0.03999999999999999400, 0.4000000000000000200 ) ) ;
#621 = PRESENTATION_LAYER_ASSIGNMENT (  '', '', ( #91 ) ) ;
#622 = CARTESIAN_POINT ( 'NONE',  ( 0.7599999999999999000, 0.03999999999999999400, -0.3999999999999998600 ) ) ;
#623 = CLOSED_SHELL ( 'NONE', ( #344, #291, #1205, #109, #219, #486, #414, #722, #782, #299, #314, #90, #241, #392, #696, #137, #606, #117 ) ) ;
#624 = DIRECTION ( 'NONE',  ( 0.0000000000000000000, 0.0000000000000000000, 1.000000000000000000 ) ) ;
#625 = FACE_OUTER_BOUND ( 'NONE', #651, .T. ) ;
#626 = ORIENTED_EDGE ( 'NONE', *, *, #115, .T. ) ;
#627 = CARTESIAN_POINT ( 'NONE',  ( 500000.0000000000600, 0.04000000000000021600, 0.3866666666232984600 ) ) ;
#628 = CIRCLE ( 'NONE', #73, 0.03999999999999999400 ) ;
#629 = DIRECTION ( 'NONE',  ( 0.0000000000000000000, 0.0000000000000000000, -1.000000000000000000 ) ) ;
#630 = AXIS2_PLACEMENT_3D ( 'NONE', #1247, #654, #850 ) ;
#631 = VECTOR ( 'NONE', #887, 1000.000000000000000 ) ;
#632 = LINE ( 'NONE', #831, #1065 ) ;
#633 = DIRECTION ( 'NONE',  ( -0.0000000000000000000, 1.000000000000000000, -0.0000000000000000000 ) ) ;
#634 = ORIENTED_EDGE ( 'NONE', *, *, #36, .T. ) ;
#635 = CARTESIAN_POINT ( 'NONE',  ( 0.7599999999999996800, 0.04000000000000000100, 0.3600000000000000400 ) ) ;
#636 = AXIS2_PLACEMENT_3D ( 'NONE', #493, #8, #289 ) ;
#637 = ORIENTED_EDGE ( 'NONE', *, *, #362, .T. ) ;
#638 = EDGE_LOOP ( 'NONE', ( #280, #602, #828, #747 ) ) ;
#639 = DIRECTION ( 'NONE',  ( 8.673617379884036700E-017, -0.0000000000000000000, 1.000000000000000000 ) ) ;
#640 = EDGE_CURVE ( 'NONE', #1022, #343, #1251, .T. ) ;
#641 = CARTESIAN_POINT ( 'NONE',  ( -0.7599999999999996800, 0.6500000000000000200, 0.3600000000000000400 ) ) ;
#642 = EDGE_LOOP ( 'NONE', ( #1130, #1029, #657, #1048 ) ) ;
#643 = ORIENTED_EDGE ( 'NONE', *, *, #645, .F. ) ;
#644 = LINE ( 'NONE', #494, #150 ) ;
#645 = EDGE_CURVE ( 'NONE', #1210, #864, #943, .T. ) ;
#646 = DIRECTION ( 'NONE',  ( -2.710505431213761600E-016, 0.0000000000000000000, 1.000000000000000000 ) ) ;
#647 = PLANE ( 'NONE',  #735 ) ;
#648 = AXIS2_PLACEMENT_3D ( 'NONE', #336, #436, #1243 ) ;
#649 = CIRCLE ( 'NONE', #779, 0.03999999999999999400 ) ;
#650 = CARTESIAN_POINT ( 'NONE',  ( -0.7599999999999996800, 0.6500000000000000200, 0.4000000000000000200 ) ) ;
#651 = EDGE_LOOP ( 'NONE', ( #165, #1, #298, #236 ) ) ;
#652 = DIRECTION ( 'NONE',  ( 0.0000000000000000000, 1.000000000000000000, 0.0000000000000000000 ) ) ;
#653 = MANIFOLD_SOLID_BREP ( 'Mirror2', #623 ) ;
#654 = DIRECTION ( 'NONE',  ( 0.0000000000000000000, 1.000000000000000000, 0.0000000000000000000 ) ) ;
#655 = DIRECTION ( 'NONE',  ( 2.710505431213761600E-016, -0.0000000000000000000, 1.000000000000000000 ) ) ;
#656 = STYLED_ITEM ( 'NONE', ( #430 ), #727 ) ;
#657 = ORIENTED_EDGE ( 'NONE', *, *, #242, .F. ) ;
#658 = SURFACE_SIDE_STYLE ('',( #618 ) ) ;
#659 = VERTEX_POINT ( 'NONE', #419 ) ;
#660 = CIRCLE ( 'NONE', #348, 0.02666666666666670000 ) ;
#661 = CIRCLE ( 'NONE', #440, 0.03999999999999999400 ) ;
#662 = DIRECTION ( 'NONE',  ( -1.000000000000000000, -0.0000000000000000000, 8.673617379884036700E-017 ) ) ;
#663 = ORIENTED_EDGE ( 'NONE', *, *, #1025, .F. ) ;
#664 = APPLICATION_CONTEXT ( 'automotive_design' ) ;
#665 = CIRCLE ( 'NONE', #54, 0.03999999999999999400 ) ;
#666 = EDGE_CURVE ( 'NONE', #44, #1151, #461, .T. ) ;
#667 = CARTESIAN_POINT ( 'NONE',  ( 0.4000000000132786200, 0.03999999999999999400, -0.3866666666666666600 ) ) ;
#668 = DIRECTION ( 'NONE',  ( 0.0000000000000000000, 0.0000000000000000000, 1.000000000000000000 ) ) ;
#669 = ORIENTED_EDGE ( 'NONE', *, *, #677, .F. ) ;
#670 = CARTESIAN_POINT ( 'NONE',  ( 0.3999999999999998600, 0.6500000000000000200, -0.3999999999999998600 ) ) ;
#671 = CARTESIAN_POINT ( 'NONE',  ( -0.3999999999999997400, 0.6099999999999999900, 0.3866666666666666000 ) ) ;
#672 = SURFACE_STYLE_USAGE ( .BOTH. , #682 ) ;
#673 = ORIENTED_EDGE ( 'NONE', *, *, #1196, .F. ) ;
#674 = ORIENTED_EDGE ( 'NONE', *, *, #893, .F. ) ;
#675 = FACE_OUTER_BOUND ( 'NONE', #1100, .T. ) ;
#676 = CARTESIAN_POINT ( 'NONE',  ( -0.3999999999999997400, 0.04000000000000021600, 0.3866666666666666000 ) ) ;
#677 = EDGE_CURVE ( 'NONE', #843, #315, #941, .T. ) ;
#678 = AXIS2_PLACEMENT_3D ( 'NONE', #1014, #1107, #423 ) ;
#679 = ORIENTED_EDGE ( 'NONE', *, *, #1172, .F. ) ;
#680 = CARTESIAN_POINT ( 'NONE',  ( -0.3999999999999998600, 0.6099999999999999900, -0.3599999999999998800 ) ) ;
#681 = PLANE ( 'NONE',  #1085 ) ;
#682 = SURFACE_SIDE_STYLE ('',( #1217 ) ) ;
#683 = DIRECTION ( 'NONE',  ( -1.000000000000000000, -0.0000000000000000000, -0.0000000000000000000 ) ) ;
#684 = ORIENTED_EDGE ( 'NONE', *, *, #309, .F. ) ;
#685 = CARTESIAN_POINT ( 'NONE',  ( 0.4000000000132786200, 0.03999999999999999400, -0.3600000000000000400 ) ) ;
#686 = UNCERTAINTY_MEASURE_WITH_UNIT (LENGTH_MEASURE( 1.000000000000000100E-005 ), #822, 'distance_accuracy_value', 'NONE');
#687 = CYLINDRICAL_SURFACE ( 'NONE', #743, 0.03999999999999999400 ) ;
#688 = FACE_OUTER_BOUND ( 'NONE', #255, .T. ) ;
#689 = CARTESIAN_POINT ( 'NONE',  ( 0.7599999999999997900, 0.6099999999999999900, 2.059984127722458400E-016 ) ) ;
#690 = LINE ( 'NONE', #969, #814 ) ;
#691 = CARTESIAN_POINT ( 'NONE',  ( 0.3999999999999998600, 0.6500000000000000200, -0.3999999999999998600 ) ) ;
#692 = AXIS2_PLACEMENT_3D ( 'NONE', #1240, #639, #1126 ) ;
#693 = VERTEX_POINT ( 'NONE', #917 ) ;
#694 = CARTESIAN_POINT ( 'NONE',  ( -0.7599999999999999000, 0.6099999999999999900, -0.3599999999999998800 ) ) ;
#695 = DIRECTION ( 'NONE',  ( 1.000000000000000000, -0.0000000000000000000, 0.0000000000000000000 ) ) ;
#696 = ADVANCED_FACE ( 'NONE', ( #812 ), #558, .T. ) ;
#697 = DIRECTION ( 'NONE',  ( 0.0000000000000000000, 0.0000000000000000000, 1.000000000000000000 ) ) ;
#698 = AXIS2_PLACEMENT_3D ( 'NONE', #900, #589, #300 ) ;
#699 = VERTEX_POINT ( 'NONE', #310 ) ;
#700 = EDGE_LOOP ( 'NONE', ( #806, #288, #1132, #237 ) ) ;
#701 = ADVANCED_FACE ( 'NONE', ( #924 ), #42, .T. ) ;
#702 = SPHERICAL_SURFACE ( 'NONE', #772, 0.04000000000000000100 ) ;
#703 = CARTESIAN_POINT ( 'NONE',  ( 0.3999999999999998600, 0.6500000000000000200, -0.3999999999999998600 ) ) ;
#704 = LINE ( 'NONE', #506, #451 ) ;
#705 = EDGE_CURVE ( 'NONE', #990, #693, #33, .T. ) ;
#706 = EDGE_LOOP ( 'NONE', ( #911, #906, #1004, #53 ) ) ;
#707 = AXIS2_PLACEMENT_3D ( 'NONE', #235, #444, #1136 ) ;
#708 = VECTOR ( 'NONE', #947, 1000.000000000000000 ) ;
#709 = CARTESIAN_POINT ( 'NONE',  ( 500000.0000000000600, 0.01333333333333333200, -0.3600000000433678500 ) ) ;
#710 = CARTESIAN_POINT ( 'NONE',  ( -0.3999999999999998600, 0.6099999999999999900, -0.3999999999999998600 ) ) ;
#711 = ORIENTED_EDGE ( 'NONE', *, *, #170, .F. ) ;
#712 = DIRECTION ( 'NONE',  ( 1.000000000000000000, -0.0000000000000000000, -2.032879073410321300E-016 ) ) ;
#713 = DIRECTION ( 'NONE',  ( -1.000000000000000000, 0.0000000000000000000, 0.0000000000000000000 ) ) ;
#714 = ORIENTED_EDGE ( 'NONE', *, *, #748, .F. ) ;
#715 = PRESENTATION_LAYER_ASSIGNMENT (  '', '', ( #656 ) ) ;
#716 = LINE ( 'NONE', #368, #1031 ) ;
#717 = CYLINDRICAL_SURFACE ( 'NONE', #1094, 0.03999999999999999400 ) ;
#718 = DIRECTION ( 'NONE',  ( 0.0000000000000000000, 0.0000000000000000000, 1.000000000000000000 ) ) ;
#719 = DIRECTION ( 'NONE',  ( 0.0000000000000000000, 0.0000000000000000000, 1.000000000000000000 ) ) ;
#720 = EDGE_CURVE ( 'NONE', #608, #1166, #283, .T. ) ;
#721 = FILL_AREA_STYLE ('',( #29 ) ) ;
#722 = ADVANCED_FACE ( 'NONE', ( #60 ), #195, .T. ) ;
#723 = ORIENTED_EDGE ( 'NONE', *, *, #865, .F. ) ;
#724 = DIRECTION ( 'NONE',  ( -1.000000000000000000, -0.0000000000000000000, -0.0000000000000000000 ) ) ;
#725 = AXIS2_PLACEMENT_3D ( 'NONE', #942, #1052, #1056 ) ;
#726 = ADVANCED_FACE ( 'NONE', ( #1051 ), #687, .T. ) ;
#727 = MANIFOLD_SOLID_BREP ( 'Boss-Extrude2', #1064 ) ;
#728 = DIRECTION ( 'NONE',  ( -2.032879073410321300E-016, 0.0000000000000000000, 1.000000000000000000 ) ) ;
#729 = DIRECTION ( 'NONE',  ( -1.000000000000000000, 0.0000000000000000000, 0.0000000000000000000 ) ) ;
#730 = ORIENTED_EDGE ( 'NONE', *, *, #1041, .T. ) ;
#731 = CARTESIAN_POINT ( 'NONE',  ( 0.4000000000132786200, 0.6099999999999999900, -0.3600000000000000400 ) ) ;
#732 = LINE ( 'NONE', #1119, #253 ) ;
#733 = CARTESIAN_POINT ( 'NONE',  ( 0.7599999999999999000, 0.0000000000000000000, -0.3599999999999998800 ) ) ;
#734 = FACE_OUTER_BOUND ( 'NONE', #108, .T. ) ;
#735 = AXIS2_PLACEMENT_3D ( 'NONE', #254, #738, #940 ) ;
#736 = LINE ( 'NONE', #1129, #1189 ) ;
#737 = PLANE ( 'NONE',  #692 ) ;
#738 = DIRECTION ( 'NONE',  ( 0.0000000000000000000, 0.0000000000000000000, 1.000000000000000000 ) ) ;
#739 = VECTOR ( 'NONE', #1152, 1000.000000000000000 ) ;
#740 = ORIENTED_EDGE ( 'NONE', *, *, #785, .F. ) ;
#741 = DIRECTION ( 'NONE',  ( -2.032879073410321300E-016, -0.0000000000000000000, -1.000000000000000000 ) ) ;
#742 = LINE ( 'NONE', #1058, #739 ) ;
#743 = AXIS2_PLACEMENT_3D ( 'NONE', #432, #412, #624 ) ;
#744 = DIRECTION ( 'NONE',  ( 1.000000000000000000, 0.0000000000000000000, -8.673617379884036700E-017 ) ) ;
#745 = EDGE_CURVE ( 'NONE', #281, #1151, #525, .T. ) ;
#746 = CARTESIAN_POINT ( 'NONE',  ( -0.7599999999999999000, 0.6099999999999999900, -0.3999999999999998600 ) ) ;
#747 = ORIENTED_EDGE ( 'NONE', *, *, #513, .T. ) ;
#748 = EDGE_CURVE ( 'NONE', #1166, #994, #301, .T. ) ;
#749 = CARTESIAN_POINT ( 'NONE',  ( 0.7999999999999997100, 0.03999999999999999400, 0.3600000000000000400 ) ) ;
#750 = CARTESIAN_POINT ( 'NONE',  ( 500000.0000000000600, 0.6366666666666667100, -0.3600000000433680700 ) ) ;
#751 = VECTOR ( 'NONE', #252, 1000.000000000000000 ) ;
#752 = PRODUCT_DEFINITION_SHAPE ( 'NONE', 'NONE',  #404 ) ;
#753 = PRESENTATION_LAYER_ASSIGNMENT (  '', '', ( #847 ) ) ;
#754 = DIRECTION ( 'NONE',  ( 0.0000000000000000000, -0.0000000000000000000, 1.000000000000000000 ) ) ;
#755 = FACE_OUTER_BOUND ( 'NONE', #56, .T. ) ;
#756 = ORIENTED_EDGE ( 'NONE', *, *, #173, .T. ) ;
#757 = DIRECTION ( 'NONE',  ( 0.0000000000000000000, 0.0000000000000000000, 1.000000000000000000 ) ) ;
#758 = AXIS2_PLACEMENT_3D ( 'NONE', #685, #102, #11 ) ;
#759 = FILL_AREA_STYLE_COLOUR ( '', #1038 ) ;
#760 = VERTEX_POINT ( 'NONE', #1204 ) ;
#761 = CIRCLE ( 'NONE', #1179, 0.03999999999999999400 ) ;
#762 = ORIENTED_EDGE ( 'NONE', *, *, #463, .F. ) ;
#763 = CIRCLE ( 'NONE', #162, 0.03999999999999999400 ) ;
#764 = CIRCLE ( 'NONE', #99, 0.03999999999999999400 ) ;
#765 = EDGE_CURVE ( 'NONE', #966, #126, #1095, .T. ) ;
#766 = CYLINDRICAL_SURFACE ( 'NONE', #1078, 0.03999999999999999400 ) ;
#767 =( NAMED_UNIT ( * ) SI_UNIT ( $, .STERADIAN. ) SOLID_ANGLE_UNIT ( ) );
#768 = CARTESIAN_POINT ( 'NONE',  ( 0.3999999999999998600, 0.6099999999999999900, -0.3599999999999998800 ) ) ;
#769 = DIRECTION ( 'NONE',  ( -2.710505431213761600E-016, 0.0000000000000000000, 1.000000000000000000 ) ) ;
#770 = AXIS2_PLACEMENT_3D ( 'NONE', #4, #388, #285 ) ;
#771 = ORIENTED_EDGE ( 'NONE', *, *, #1185, .T. ) ;
#772 = AXIS2_PLACEMENT_3D ( 'NONE', #1008, #1110, #1013 ) ;
#773 = ORIENTED_EDGE ( 'NONE', *, *, #839, .F. ) ;
#774 = DIRECTION ( 'NONE',  ( -1.000000000000000000, 0.0000000000000000000, 0.0000000000000000000 ) ) ;
#775 = CARTESIAN_POINT ( 'NONE',  ( -0.3999999999999996900, 0.6500000000000000200, 0.3599999999999997600 ) ) ;
#776 = ORIENTED_EDGE ( 'NONE', *, *, #85, .F. ) ;
#777 = LINE ( 'NONE', #325, #491 ) ;
#778 = ADVANCED_FACE ( 'NONE', ( #791 ), #541, .T. ) ;
#779 = AXIS2_PLACEMENT_3D ( 'NONE', #434, #338, #1035 ) ;
#780 = UNCERTAINTY_MEASURE_WITH_UNIT (LENGTH_MEASURE( 1.000000000000000100E-005 ), #129, 'distance_accuracy_value', 'NONE');
#781 = CARTESIAN_POINT ( 'NONE',  ( 500000.0000000000600, 0.01333333333333333200, 0.3599999999566315700 ) ) ;
#782 = ADVANCED_FACE ( 'NONE', ( #10 ), #70, .T. ) ;
#783 = EDGE_CURVE ( 'NONE', #864, #187, #764, .T. ) ;
#784 = CARTESIAN_POINT ( 'NONE',  ( 0.3999999999999998600, 0.6500000000000000200, -0.3999999999999998600 ) ) ;
#785 = EDGE_CURVE ( 'NONE', #361, #789, #505, .T. ) ;
#786 = ORIENTED_EDGE ( 'NONE', *, *, #376, .T. ) ;
#787 = ADVANCED_FACE ( 'NONE', ( #1032 ), #340, .F. ) ;
#788 = DIRECTION ( 'NONE',  ( 1.000000000000000000, 0.0000000000000000000, 0.0000000000000000000 ) ) ;
#789 = VERTEX_POINT ( 'NONE', #360 ) ;
#790 = EDGE_LOOP ( 'NONE', ( #1074, #1045, #840, #297 ) ) ;
#791 = FACE_OUTER_BOUND ( 'NONE', #442, .T. ) ;
#792 = EDGE_CURVE ( 'NONE', #853, #249, #716, .T. ) ;
#793 = DIRECTION ( 'NONE',  ( -1.000000000000000000, 0.0000000000000000000, 0.0000000000000000000 ) ) ;
#794 = EDGE_CURVE ( 'NONE', #699, #693, #411, .T. ) ;
#795 = FACE_OUTER_BOUND ( 'NONE', #375, .T. ) ;
#796 = CARTESIAN_POINT ( 'NONE',  ( -0.7599999999999996800, 0.6099999999999999900, 0.3600000000000000400 ) ) ;
#797 = AXIS2_PLACEMENT_3D ( 'NONE', #1046, #455, #842 ) ;
#798 = CYLINDRICAL_SURFACE ( 'NONE', #515, 0.03999999999999999400 ) ;
#799 = ORIENTED_EDGE ( 'NONE', *, *, #282, .F. ) ;
#800 = DIRECTION ( 'NONE',  ( -1.000000000000000000, 0.0000000000000000000, 0.0000000000000000000 ) ) ;
#801 = VECTOR ( 'NONE', #1131, 1000.000000000000000 ) ;
#802 = ADVANCED_FACE ( 'NONE', ( #1171 ), #446, .T. ) ;
#803 = EDGE_LOOP ( 'NONE', ( #274, #313, #512, #1273 ) ) ;
#804 = PLANE ( 'NONE',  #874 ) ;
#805 = ORIENTED_EDGE ( 'NONE', *, *, #577, .F. ) ;
#806 = ORIENTED_EDGE ( 'NONE', *, *, #173, .F. ) ;
#807 = VERTEX_POINT ( 'NONE', #676 ) ;
#808 = CARTESIAN_POINT ( 'NONE',  ( 0.7599999999999996800, 0.6500000000000000200, 0.4000000000000000200 ) ) ;
#809 = CIRCLE ( 'NONE', #142, 0.03999999999999999400 ) ;
#810 = CARTESIAN_POINT ( 'NONE',  ( 0.4000000000132786200, 0.6366666666666667100, -0.3600000000000000400 ) ) ;
#811 = SURFACE_STYLE_USAGE ( .BOTH. , #332 ) ;
#812 = FACE_OUTER_BOUND ( 'NONE', #638, .T. ) ;
#813 = VECTOR ( 'NONE', #1235, 1000.000000000000000 ) ;
#814 = VECTOR ( 'NONE', #1071, 1000.000000000000000 ) ;
#815 = DIRECTION ( 'NONE',  ( -1.000000000000000000, 0.0000000000000000000, 0.0000000000000000000 ) ) ;
#816 = CARTESIAN_POINT ( 'NONE',  ( -0.7999999999999997100, 0.6500000000000000200, 0.3599999999999999900 ) ) ;
#817 = EDGE_CURVE ( 'NONE', #207, #1039, #644, .T. ) ;
#818 = AXIS2_PLACEMENT_3D ( 'NONE', #26, #1212, #629 ) ;
#819 = CARTESIAN_POINT ( 'NONE',  ( 0.7599999999999999000, 0.6500000000000000200, -0.3999999999999998600 ) ) ;
#820 = CARTESIAN_POINT ( 'NONE',  ( 0.7599999999999999000, 0.6500000000000000200, -0.3599999999999998800 ) ) ;
#821 = LINE ( 'NONE', #934, #531 ) ;
#822 =( LENGTH_UNIT ( ) NAMED_UNIT ( * ) SI_UNIT ( .MILLI., .METRE. ) );
#823 = VERTEX_POINT ( 'NONE', #181 ) ;
#824 = EDGE_CURVE ( 'NONE', #994, #548, #938, .T. ) ;
#825 = DIRECTION ( 'NONE',  ( 0.0000000000000000000, 0.0000000000000000000, 1.000000000000000000 ) ) ;
#826 = DIRECTION ( 'NONE',  ( 0.0000000000000000000, 0.0000000000000000000, 1.000000000000000000 ) ) ;
#827 = DIRECTION ( 'NONE',  ( 1.000000000000000000, -0.0000000000000000000, -2.032879073410321300E-016 ) ) ;
#828 = ORIENTED_EDGE ( 'NONE', *, *, #1127, .T. ) ;
#829 = AXIS2_PLACEMENT_3D ( 'NONE', #399, #901, #894 ) ;
#830 = VECTOR ( 'NONE', #514, 1000.000000000000000 ) ;
#831 = CARTESIAN_POINT ( 'NONE',  ( 0.7999999999999999300, 0.6500000000000000200, -0.3599999999999998800 ) ) ;
#832 = DIRECTION ( 'NONE',  ( 0.0000000000000000000, 0.0000000000000000000, -1.000000000000000000 ) ) ;
#833 = DIRECTION ( 'NONE',  ( 0.0000000000000000000, 0.0000000000000000000, -1.000000000000000000 ) ) ;
#834 = LINE ( 'NONE', #127, #1053 ) ;
#835 = ADVANCED_FACE ( 'NONE', ( #734 ), #953, .T. ) ;
#836 = CARTESIAN_POINT ( 'NONE',  ( 0.7599999999999999000, 0.03999999999999999400, -0.3999999999999998600 ) ) ;
#837 = ORIENTED_EDGE ( 'NONE', *, *, #929, .F. ) ;
#838 = DIRECTION ( 'NONE',  ( 1.000000000000000000, -0.0000000000000000000, -0.0000000000000000000 ) ) ;
#839 = EDGE_CURVE ( 'NONE', #126, #305, #997, .T. ) ;
#840 = ORIENTED_EDGE ( 'NONE', *, *, #865, .T. ) ;
#841 = DIRECTION ( 'NONE',  ( -1.000000000000000000, -0.0000000000000000000, -0.0000000000000000000 ) ) ;
#842 = DIRECTION ( 'NONE',  ( -1.000000000000000000, 0.0000000000000000000, 0.0000000000000000000 ) ) ;
#843 = VERTEX_POINT ( 'NONE', #964 ) ;
#844 = EDGE_CURVE ( 'NONE', #608, #1210, #192, .T. ) ;
#845 = CARTESIAN_POINT ( 'NONE',  ( -0.3999999999999998600, 0.03999999999999999400, -0.3999999999999998600 ) ) ;
#846 = ORIENTED_EDGE ( 'NONE', *, *, #720, .T. ) ;
#847 = STYLED_ITEM ( 'NONE', ( #107 ), #155 ) ;
#848 = SPHERICAL_SURFACE ( 'NONE', #962, 0.04000000000000000100 ) ;
#849 = CARTESIAN_POINT ( 'NONE',  ( 500000.0000000000600, 0.6099999999999999900, 0.3866666666232984600 ) ) ;
#850 = DIRECTION ( 'NONE',  ( 0.0000000000000000000, 0.0000000000000000000, 1.000000000000000000 ) ) ;
#851 = AXIS2_PLACEMENT_3D ( 'NONE', #950, #744, #62 ) ;
#852 = LINE ( 'NONE', #556, #1057 ) ;
#853 = VERTEX_POINT ( 'NONE', #83 ) ;
#854 = EDGE_CURVE ( 'NONE', #937, #693, #1016, .T. ) ;
#855 =( NAMED_UNIT ( * ) PLANE_ANGLE_UNIT ( ) SI_UNIT ( $, .RADIAN. ) );
#856 = DIRECTION ( 'NONE',  ( 1.000000000000000000, 0.0000000000000000000, 0.0000000000000000000 ) ) ;
#857 = ORIENTED_EDGE ( 'NONE', *, *, #502, .T. ) ;
#858 = CIRCLE ( 'NONE', #758, 0.02666666666666664800 ) ;
#859 = EDGE_CURVE ( 'NONE', #659, #555, #585, .T. ) ;
#860 = APPLICATION_PROTOCOL_DEFINITION ( 'draft international standard', 'automotive_design', 1998, #664 ) ;
#861 = CARTESIAN_POINT ( 'NONE',  ( 0.0000000000000000000, 0.0000000000000000000, -0.3599999999999998800 ) ) ;
#862 = CARTESIAN_POINT ( 'NONE',  ( -0.7599999999999999000, 0.03999999999999999400, -0.3999999999999998600 ) ) ;
#863 = FILL_AREA_STYLE_COLOUR ( '', #1250 ) ;
#864 = VERTEX_POINT ( 'NONE', #775 ) ;
#865 = EDGE_CURVE ( 'NONE', #1134, #995, #381, .T. ) ;
#866 = DIRECTION ( 'NONE',  ( -0.0000000000000000000, -0.0000000000000000000, 1.000000000000000000 ) ) ;
#867 = DIRECTION ( 'NONE',  ( 1.000000000000000000, -0.0000000000000000000, -2.032879073410321300E-016 ) ) ;
#868 = ORIENTED_EDGE ( 'NONE', *, *, #122, .T. ) ;
#869 = ORIENTED_EDGE ( 'NONE', *, *, #1044, .T. ) ;
#870 = DIRECTION ( 'NONE',  ( 1.000000000000000000, -0.0000000000000000000, -0.0000000000000000000 ) ) ;
#871 = EDGE_LOOP ( 'NONE', ( #223, #756, #98, #1142 ) ) ;
#872 = DIRECTION ( 'NONE',  ( 1.000000000000000000, 0.0000000000000000000, 0.0000000000000000000 ) ) ;
#873 = VECTOR ( 'NONE', #1186, 1000.000000000000000 ) ;
#874 = AXIS2_PLACEMENT_3D ( 'NONE', #1017, #1012, #215 ) ;
#875 = FACE_OUTER_BOUND ( 'NONE', #157, .T. ) ;
#876 = PRODUCT_DEFINITION_CONTEXT ( 'detailed design', #67, 'design' ) ;
#877 = PLANE ( 'NONE',  #158 ) ;
#878 = VECTOR ( 'NONE', #1063, 1000.000000000000000 ) ;
#879 = ORIENTED_EDGE ( 'NONE', *, *, #1185, .F. ) ;
#880 = CARTESIAN_POINT ( 'NONE',  ( 0.4000000000132786200, 0.6366666666666667100, 0.3599999999999993800 ) ) ;
#881 = CARTESIAN_POINT ( 'NONE',  ( -0.3999999999999998600, 0.6366666666666667100, -0.3599999999999999300 ) ) ;
#882 = CARTESIAN_POINT ( 'NONE',  ( -0.7599999999999999000, 0.6099999999999999900, -0.3599999999999998800 ) ) ;
#883 = FACE_OUTER_BOUND ( 'NONE', #380, .T. ) ;
#884 = EDGE_CURVE ( 'NONE', #975, #481, #763, .T. ) ;
#885 = AXIS2_PLACEMENT_3D ( 'NONE', #543, #549, #1145 ) ;
#886 = EDGE_LOOP ( 'NONE', ( #711, #169, #1062, #490 ) ) ;
#887 = DIRECTION ( 'NONE',  ( -1.000000000000000000, 0.0000000000000000000, 0.0000000000000000000 ) ) ;
#888 = CIRCLE ( 'NONE', #797, 0.03999999999999999400 ) ;
#889 = ORIENTED_EDGE ( 'NONE', *, *, #51, .F. ) ;
#890 = CIRCLE ( 'NONE', #268, 0.03999999999999999400 ) ;
#891 = FACE_OUTER_BOUND ( 'NONE', #1068, .T. ) ;
#892 = CARTESIAN_POINT ( 'NONE',  ( -0.7599999999999999000, 0.04000000000000000100, -0.3599999999999998800 ) ) ;
#893 = EDGE_CURVE ( 'NONE', #789, #281, #167, .T. ) ;
#894 = DIRECTION ( 'NONE',  ( 1.000000000000000000, 0.0000000000000000000, 0.0000000000000000000 ) ) ;
#895 = CIRCLE ( 'NONE', #89, 0.03999999999999999400 ) ;
#896 = DIRECTION ( 'NONE',  ( 2.710505431213761600E-016, -0.0000000000000000000, -1.000000000000000000 ) ) ;
#897 = ORIENTED_EDGE ( 'NONE', *, *, #854, .F. ) ;
#898 = EDGE_LOOP ( 'NONE', ( #349, #534, #935, #209, #952, #674, #592, #1271 ) ) ;
#899 = ADVANCED_FACE ( 'NONE', ( #611 ), #9, .T. ) ;
#900 = CARTESIAN_POINT ( 'NONE',  ( 0.7599999999999999000, 0.6099999999999999900, -0.3599999999999998800 ) ) ;
#901 = DIRECTION ( 'NONE',  ( 0.0000000000000000000, 1.000000000000000000, 0.0000000000000000000 ) ) ;
#902 = ORIENTED_EDGE ( 'NONE', *, *, #960, .T. ) ;
#903 = CARTESIAN_POINT ( 'NONE',  ( -0.3999999999999997400, 0.6099999999999999900, 0.3866666666666666000 ) ) ;
#904 = ORIENTED_EDGE ( 'NONE', *, *, #112, .T. ) ;
#905 = CARTESIAN_POINT ( 'NONE',  ( 500000.0000000000600, 0.03999999999999999400, -0.3866666667100346900 ) ) ;
#906 = ORIENTED_EDGE ( 'NONE', *, *, #178, .F. ) ;
#907 = VECTOR ( 'NONE', #189, 1000.000000000000000 ) ;
#908 = VECTOR ( 'NONE', #927, 1000.000000000000000 ) ;
#909 = CARTESIAN_POINT ( 'NONE',  ( 0.7999999999999999300, 0.03999999999999999400, -0.3599999999999998800 ) ) ;
#910 = SURFACE_STYLE_USAGE ( .BOTH. , #22 ) ;
#911 = ORIENTED_EDGE ( 'NONE', *, *, #1258, .F. ) ;
#912 = PLANE ( 'NONE',  #125 ) ;
#913 = DIRECTION ( 'NONE',  ( -1.000000000000000000, -0.0000000000000000000, 8.673617379884036700E-017 ) ) ;
#914 = EDGE_LOOP ( 'NONE', ( #1262, #131, #510 ) ) ;
#915 = DIRECTION ( 'NONE',  ( 0.0000000000000000000, -1.000000000000000000, 0.0000000000000000000 ) ) ;
#916 = ORIENTED_EDGE ( 'NONE', *, *, #153, .F. ) ;
#917 = CARTESIAN_POINT ( 'NONE',  ( 0.7599999999999996800, 0.6500000000000000200, 0.3600000000000000400 ) ) ;
#918 = AXIS2_PLACEMENT_3D ( 'NONE', #781, #1096, #1191 ) ;
#919 = ADVANCED_FACE ( 'NONE', ( #675 ), #970, .T. ) ;
#920 = EDGE_LOOP ( 'NONE', ( #539, #143, #978, #610 ) ) ;
#921 = MANIFOLD_SOLID_BREP ( 'Fillet1', #261 ) ;
#922 = CARTESIAN_POINT ( 'NONE',  ( 0.7599999999999996800, 0.6099999999999999900, 0.3600000000000000400 ) ) ;
#923 = DIRECTION ( 'NONE',  ( -0.0000000000000000000, -1.000000000000000000, -0.0000000000000000000 ) ) ;
#924 = FACE_OUTER_BOUND ( 'NONE', #465, .T. ) ;
#925 = CIRCLE ( 'NONE', #1146, 0.03999999999999999400 ) ;
#926 = LINE ( 'NONE', #472, #1206 ) ;
#927 = DIRECTION ( 'NONE',  ( 2.032879073410321300E-016, -0.0000000000000000000, -1.000000000000000000 ) ) ;
#928 = PLANE ( 'NONE',  #341 ) ;
#929 = EDGE_CURVE ( 'NONE', #587, #1166, #475, .T. ) ;
#930 = ORIENTED_EDGE ( 'NONE', *, *, #745, .T. ) ;
#931 = DIRECTION ( 'NONE',  ( 2.032879073410321300E-016, 0.0000000000000000000, 1.000000000000000000 ) ) ;
#932 = ORIENTED_EDGE ( 'NONE', *, *, #1118, .T. ) ;
#933 = DIRECTION ( 'NONE',  ( 0.0000000000000000000, -1.000000000000000000, 0.0000000000000000000 ) ) ;
#934 = CARTESIAN_POINT ( 'NONE',  ( -0.3999999999999998600, 0.0000000000000000000, -0.3999999999999998600 ) ) ;
#935 = ORIENTED_EDGE ( 'NONE', *, *, #112, .F. ) ;
#936 = AXIS2_PLACEMENT_3D ( 'NONE', #185, #276, #872 ) ;
#937 = VERTEX_POINT ( 'NONE', #820 ) ;
#938 = CIRCLE ( 'NONE', #1112, 0.03999999999999999400 ) ;
#939 = CARTESIAN_POINT ( 'NONE',  ( -0.3999999999999997400, 0.6099999999999999900, 0.3599999999999999900 ) ) ;
#940 = DIRECTION ( 'NONE',  ( 1.000000000000000000, 0.0000000000000000000, -0.0000000000000000000 ) ) ;
#941 = CIRCLE ( 'NONE', #524, 0.03999999999999999400 ) ;
#942 = CARTESIAN_POINT ( 'NONE',  ( -0.7999999999999997100, 0.6500000000000000200, 0.4000000000000000200 ) ) ;
#943 = LINE ( 'NONE', #601, #572 ) ;
#944 = VECTOR ( 'NONE', #393, 1000.000000000000000 ) ;
#945 = DIRECTION ( 'NONE',  ( 0.0000000000000000000, 0.0000000000000000000, -1.000000000000000000 ) ) ;
#946 = VERTEX_POINT ( 'NONE', #103 ) ;
#947 = DIRECTION ( 'NONE',  ( 1.000000000000000000, 0.0000000000000000000, 0.0000000000000000000 ) ) ;
#948 = AXIS2_PLACEMENT_3D ( 'NONE', #922, #915, #19 ) ;
#949 = AXIS2_PLACEMENT_3D ( 'NONE', #82, #270, #385 ) ;
#950 = CARTESIAN_POINT ( 'NONE',  ( -0.3999999999999997400, 0.03999999999999999400, 0.3599999999999999900 ) ) ;
#951 = DIRECTION ( 'NONE',  ( -2.710505431213761600E-016, 0.0000000000000000000, -1.000000000000000000 ) ) ;
#952 = ORIENTED_EDGE ( 'NONE', *, *, #745, .F. ) ;
#953 = CYLINDRICAL_SURFACE ( 'NONE', #284, 0.03999999999999999400 ) ;
#954 = AXIS2_PLACEMENT_3D ( 'NONE', #862, #655, #258 ) ;
#955 = COLOUR_RGB ( '',0.2509803921568627400, 0.2509803921568627400, 0.2509803921568627400 ) ;
#956 = FACE_OUTER_BOUND ( 'NONE', #898, .T. ) ;
#957 = CARTESIAN_POINT ( 'NONE',  ( 0.0000000000000000000, 0.6099999999999999900, -0.3599999999999998800 ) ) ;
#958 = CIRCLE ( 'NONE', #372, 0.03999999999999999400 ) ;
#959 = CARTESIAN_POINT ( 'NONE',  ( 500000.0000000000600, 0.6099999999999999900, 0.3599999999566318400 ) ) ;
#960 = EDGE_CURVE ( 'NONE', #972, #519, #809, .T. ) ;
#961 = DIRECTION ( 'NONE',  ( 0.0000000000000000000, 0.0000000000000000000, 1.000000000000000000 ) ) ;
#962 = AXIS2_PLACEMENT_3D ( 'NONE', #1216, #1115, #1007 ) ;
#963 = DIRECTION ( 'NONE',  ( 0.0000000000000000000, -1.000000000000000000, 0.0000000000000000000 ) ) ;
#964 = CARTESIAN_POINT ( 'NONE',  ( -0.7599999999999996800, 0.0000000000000000000, 0.3600000000000000400 ) ) ;
#965 = ORIENTED_EDGE ( 'NONE', *, *, #1178, .F. ) ;
#966 = VERTEX_POINT ( 'NONE', #138 ) ;
#967 = PRESENTATION_LAYER_ASSIGNMENT (  '', '', ( #1103 ) ) ;
#968 = CIRCLE ( 'NONE', #818, 0.03999999999999999400 ) ;
#969 = CARTESIAN_POINT ( 'NONE',  ( 0.4000000000132786200, 0.03999999999999999400, -0.3866666666666666600 ) ) ;
#970 = PLANE ( 'NONE',  #1047 ) ;
#971 = SPHERICAL_SURFACE ( 'NONE', #698, 0.04000000000000000100 ) ;
#972 = VERTEX_POINT ( 'NONE', #228 ) ;
#973 = DIRECTION ( 'NONE',  ( 0.0000000000000000000, 0.0000000000000000000, 1.000000000000000000 ) ) ;
#974 = FACE_OUTER_BOUND ( 'NONE', #557, .T. ) ;
#975 = VERTEX_POINT ( 'NONE', #620 ) ;
#976 = DIRECTION ( 'NONE',  ( 0.0000000000000000000, 0.0000000000000000000, 1.000000000000000000 ) ) ;
#977 = DIRECTION ( 'NONE',  ( -0.0000000000000000000, 1.000000000000000000, -0.0000000000000000000 ) ) ;
#978 = ORIENTED_EDGE ( 'NONE', *, *, #989, .F. ) ;
#979 = DIRECTION ( 'NONE',  ( 1.000000000000000000, -0.0000000000000000000, -0.0000000000000000000 ) ) ;
#980 = EDGE_LOOP ( 'NONE', ( #540, #868, #394 ) ) ;
#981 = CARTESIAN_POINT ( 'NONE',  ( 0.7599999999999996800, 0.6500000000000000200, 0.4000000000000000200 ) ) ;
#982 =( GEOMETRIC_REPRESENTATION_CONTEXT ( 3 ) GLOBAL_UNCERTAINTY_ASSIGNED_CONTEXT ( ( #780 ) ) GLOBAL_UNIT_ASSIGNED_CONTEXT ( ( #129, #1009, #609 ) ) REPRESENTATION_CONTEXT ( 'NONE', 'WORKASPACE' ) );
#983 = FACE_OUTER_BOUND ( 'NONE', #568, .T. ) ;
#984 = DIRECTION ( 'NONE',  ( 0.0000000000000000000, 0.0000000000000000000, -1.000000000000000000 ) ) ;
#985 = ORIENTED_EDGE ( 'NONE', *, *, #824, .F. ) ;
#986 = DIRECTION ( 'NONE',  ( 0.0000000000000000000, 0.0000000000000000000, 1.000000000000000000 ) ) ;
#987 = FILL_AREA_STYLE_COLOUR ( '', #1234 ) ;
#988 = LINE ( 'NONE', #347, #708 ) ;
#989 = EDGE_CURVE ( 'NONE', #187, #1022, #777, .T. ) ;
#990 = VERTEX_POINT ( 'NONE', #128 ) ;
#991 = CARTESIAN_POINT ( 'NONE',  ( 0.7999999999999999300, 0.6099999999999999900, -0.3999999999999998600 ) ) ;
#992 = DIRECTION ( 'NONE',  ( -2.710505431213761600E-016, -0.0000000000000000000, -1.000000000000000000 ) ) ;
#993 = ADVANCED_FACE ( 'NONE', ( #210 ), #318, .T. ) ;
#994 = VERTEX_POINT ( 'NONE', #614 ) ;
#995 = VERTEX_POINT ( 'NONE', #909 ) ;
#996 = DIRECTION ( 'NONE',  ( 0.0000000000000000000, 1.000000000000000000, 0.0000000000000000000 ) ) ;
#997 = LINE ( 'NONE', #1175, #87 ) ;
#998 = CARTESIAN_POINT ( 'NONE',  ( -0.3999999999999997400, 0.6366666666666667100, 0.3599999999999994900 ) ) ;
#999 =( GEOMETRIC_REPRESENTATION_CONTEXT ( 3 ) GLOBAL_UNCERTAINTY_ASSIGNED_CONTEXT ( ( #1073 ) ) GLOBAL_UNIT_ASSIGNED_CONTEXT ( ( #464, #1156, #76 ) ) REPRESENTATION_CONTEXT ( 'NONE', 'WORKASPACE' ) );
#1000 = FACE_OUTER_BOUND ( 'NONE', #871, .T. ) ;
#1001 = FACE_OUTER_BOUND ( 'NONE', #1139, .T. ) ;
#1002 = EDGE_LOOP ( 'NONE', ( #786, #373, #1246 ) ) ;
#1003 = DIRECTION ( 'NONE',  ( -2.032879073410321300E-016, 0.0000000000000000000, 1.000000000000000000 ) ) ;
#1004 = ORIENTED_EDGE ( 'NONE', *, *, #402, .T. ) ;
#1005 = FACE_OUTER_BOUND ( 'NONE', #364, .T. ) ;
#1006 = EDGE_CURVE ( 'NONE', #315, #305, #968, .T. ) ;
#1007 = DIRECTION ( 'NONE',  ( -1.000000000000000000, 0.0000000000000000000, 0.0000000000000000000 ) ) ;
#1008 = CARTESIAN_POINT ( 'NONE',  ( -0.7599999999999996800, 0.04000000000000000100, 0.3600000000000000400 ) ) ;
#1009 =( NAMED_UNIT ( * ) PLANE_ANGLE_UNIT ( ) SI_UNIT ( $, .RADIAN. ) );
#1010 = ORIENTED_EDGE ( 'NONE', *, *, #1106, .T. ) ;
#1011 = ORIENTED_EDGE ( 'NONE', *, *, #422, .T. ) ;
#1012 = DIRECTION ( 'NONE',  ( 0.0000000000000000000, -1.000000000000000000, 0.0000000000000000000 ) ) ;
#1013 = DIRECTION ( 'NONE',  ( 1.000000000000000000, 0.0000000000000000000, 0.0000000000000000000 ) ) ;
#1014 = CARTESIAN_POINT ( 'NONE',  ( -0.3999999999999998600, 0.03999999999999999400, -0.3599999999999999300 ) ) ;
#1015 = ORIENTED_EDGE ( 'NONE', *, *, #1133, .T. ) ;
#1016 = LINE ( 'NONE', #981, #395 ) ;
#1017 = CARTESIAN_POINT ( 'NONE',  ( 500000.0000000000600, 0.6366666666666667100, -0.3600000000433680700 ) ) ;
#1018 = AXIS2_PLACEMENT_3D ( 'NONE', #768, #1164, #976 ) ;
#1019 = CARTESIAN_POINT ( 'NONE',  ( 0.7999999999999999300, 0.03999999999999999400, -0.3599999999999998800 ) ) ;
#1020 = LINE ( 'NONE', #1042, #1176 ) ;
#1021 = LINE ( 'NONE', #578, #168 ) ;
#1022 = VERTEX_POINT ( 'NONE', #217 ) ;
#1023 =( NAMED_UNIT ( * ) SI_UNIT ( $, .STERADIAN. ) SOLID_ANGLE_UNIT ( ) );
#1024 = ADVANCED_FACE ( 'NONE', ( #521 ), #702, .T. ) ;
#1025 = EDGE_CURVE ( 'NONE', #305, #425, #459, .T. ) ;
#1026 = AXIS2_PLACEMENT_3D ( 'NONE', #1019, #316, #133 ) ;
#1027 = ORIENTED_EDGE ( 'NONE', *, *, #36, .F. ) ;
#1028 = DIRECTION ( 'NONE',  ( -2.710505431213761600E-016, 0.0000000000000000000, -1.000000000000000000 ) ) ;
#1029 = ORIENTED_EDGE ( 'NONE', *, *, #532, .F. ) ;
#1030 = DIRECTION ( 'NONE',  ( -1.000000000000000000, -0.0000000000000000000, 8.673617379884036700E-017 ) ) ;
#1031 = VECTOR ( 'NONE', #856, 1000.000000000000000 ) ;
#1032 = FACE_OUTER_BOUND ( 'NONE', #262, .T. ) ;
#1033 = EDGE_CURVE ( 'NONE', #990, #699, #890, .T. ) ;
#1034 = CYLINDRICAL_SURFACE ( 'NONE', #1037, 0.03999999999999999400 ) ;
#1035 = DIRECTION ( 'NONE',  ( 0.0000000000000000000, 0.0000000000000000000, 1.000000000000000000 ) ) ;
#1036 = DIRECTION ( 'NONE',  ( 0.0000000000000000000, 0.0000000000000000000, 1.000000000000000000 ) ) ;
#1037 = AXIS2_PLACEMENT_3D ( 'NONE', #836, #646, #1040 ) ;
#1038 = COLOUR_RGB ( '',0.7921568627450980000, 0.8196078431372548800, 0.9333333333333333500 ) ;
#1039 = VERTEX_POINT ( 'NONE', #124 ) ;
#1040 = DIRECTION ( 'NONE',  ( -1.000000000000000000, 0.0000000000000000000, 0.0000000000000000000 ) ) ;
#1041 = EDGE_CURVE ( 'NONE', #864, #548, #732, .T. ) ;
#1042 = CARTESIAN_POINT ( 'NONE',  ( 0.7999999999999997100, 0.03999999999999999400, 0.4000000000000000200 ) ) ;
#1043 = EDGE_LOOP ( 'NONE', ( #265, #535, #147, #146 ) ) ;
#1044 = EDGE_CURVE ( 'NONE', #408, #458, #761, .T. ) ;
#1045 = ORIENTED_EDGE ( 'NONE', *, *, #1258, .T. ) ;
#1046 = CARTESIAN_POINT ( 'NONE',  ( 0.7599999999999996800, 0.03999999999999999400, 0.3600000000000000400 ) ) ;
#1047 = AXIS2_PLACEMENT_3D ( 'NONE', #1182, #586, #474 ) ;
#1048 = ORIENTED_EDGE ( 'NONE', *, *, #792, .F. ) ;
#1049 = CARTESIAN_POINT ( 'NONE',  ( 0.7999999999999999300, 0.6099999999999999900, -0.3599999999999998800 ) ) ;
#1050 = FACE_OUTER_BOUND ( 'NONE', #1002, .T. ) ;
#1051 = FACE_OUTER_BOUND ( 'NONE', #409, .T. ) ;
#1052 = DIRECTION ( 'NONE',  ( 0.0000000000000000000, 0.0000000000000000000, -1.000000000000000000 ) ) ;
#1053 = VECTOR ( 'NONE', #431, 1000.000000000000000 ) ;
#1054 = EDGE_CURVE ( 'NONE', #587, #567, #628, .T. ) ;
#1055 = CARTESIAN_POINT ( 'NONE',  ( -0.7599999999999996800, 0.6099999999999999900, 0.3600000000000000400 ) ) ;
#1056 = DIRECTION ( 'NONE',  ( -1.000000000000000000, 0.0000000000000000000, -0.0000000000000000000 ) ) ;
#1057 = VECTOR ( 'NONE', #652, 1000.000000000000000 ) ;
#1058 = CARTESIAN_POINT ( 'NONE',  ( 0.7599999999999997900, 0.0000000000000000000, 2.059984127722458400E-016 ) ) ;
#1059 = ORIENTED_EDGE ( 'NONE', *, *, #1198, .T. ) ;
#1060 = EDGE_CURVE ( 'NONE', #760, #853, #366, .T. ) ;
#1061 = DIRECTION ( 'NONE',  ( -1.000000000000000000, -0.0000000000000000000, 8.673617379884036700E-017 ) ) ;
#1062 = ORIENTED_EDGE ( 'NONE', *, *, #106, .T. ) ;
#1063 = DIRECTION ( 'NONE',  ( 1.000000000000000000, -0.0000000000000000000, 0.0000000000000000000 ) ) ;
#1064 = CLOSED_SHELL ( 'NONE', ( #701, #441, #307, #993, #405, #95, #203, #387, #38, #802 ) ) ;
#1065 = VECTOR ( 'NONE', #933, 1000.000000000000000 ) ;
#1066 = DIRECTION ( 'NONE',  ( -1.000000000000000000, 0.0000000000000000000, 2.710505431213764000E-016 ) ) ;
#1067 = LINE ( 'NONE', #709, #496 ) ;
#1068 = EDGE_LOOP ( 'NONE', ( #418, #57, #669, #1027 ) ) ;
#1069 = DIRECTION ( 'NONE',  ( 1.000000000000000000, 0.0000000000000000000, 2.032879073410321300E-016 ) ) ;
#1070 = ORIENTED_EDGE ( 'NONE', *, *, #1127, .F. ) ;
#1071 = DIRECTION ( 'NONE',  ( -0.0000000000000000000, 1.000000000000000000, 0.0000000000000000000 ) ) ;
#1072 = CIRCLE ( 'NONE', #707, 0.03999999999999999400 ) ;
#1073 = UNCERTAINTY_MEASURE_WITH_UNIT (LENGTH_MEASURE( 1.000000000000000100E-005 ), #464, 'distance_accuracy_value', 'NONE');
#1074 = ORIENTED_EDGE ( 'NONE', *, *, #1106, .F. ) ;
#1075 = ORIENTED_EDGE ( 'NONE', *, *, #354, .F. ) ;
#1076 = ORIENTED_EDGE ( 'NONE', *, *, #1054, .F. ) ;
#1077 = ORIENTED_EDGE ( 'NONE', *, *, #884, .T. ) ;
#1078 = AXIS2_PLACEMENT_3D ( 'NONE', #439, #243, #55 ) ;
#1079 = DIRECTION ( 'NONE',  ( -1.505836350674313000E-016, 0.0000000000000000000, -1.000000000000000000 ) ) ;
#1080 = CIRCLE ( 'NONE', #1111, 0.03999999999999999400 ) ;
#1081 = ADVANCED_FACE ( 'NONE', ( #69 ), #928, .F. ) ;
#1082 = FACE_OUTER_BOUND ( 'NONE', #537, .T. ) ;
#1083 = DIRECTION ( 'NONE',  ( 0.0000000000000000000, -0.0000000000000000000, -1.000000000000000000 ) ) ;
#1084 = DIRECTION ( 'NONE',  ( -0.0000000000000000000, 0.0000000000000000000, -1.000000000000000000 ) ) ;
#1085 = AXIS2_PLACEMENT_3D ( 'NONE', #92, #1260, #793 ) ;
#1086 = AXIS2_PLACEMENT_3D ( 'NONE', #141, #453, #1036 ) ;
#1087 = VECTOR ( 'NONE', #728, 1000.000000000000000 ) ;
#1088 = PLANE ( 'NONE',  #918 ) ;
#1089 = ORIENTED_EDGE ( 'NONE', *, *, #783, .T. ) ;
#1090 = DIRECTION ( 'NONE',  ( 2.710505431213761600E-016, 0.0000000000000000000, -1.000000000000000000 ) ) ;
#1091 = VERTEX_POINT ( 'NONE', #810 ) ;
#1092 = EDGE_CURVE ( 'NONE', #249, #995, #28, .T. ) ;
#1093 = CARTESIAN_POINT ( 'NONE',  ( -0.3999999999999996900, 0.03999999999999999400, 0.3600000000000000400 ) ) ;
#1094 = AXIS2_PLACEMENT_3D ( 'NONE', #597, #695, #495 ) ;
#1095 = LINE ( 'NONE', #533, #269 ) ;
#1096 = DIRECTION ( 'NONE',  ( 0.0000000000000000000, 1.000000000000000000, 0.0000000000000000000 ) ) ;
#1097 = CARTESIAN_POINT ( 'NONE',  ( 500000.0000000000600, 0.6099999999999999900, -0.3600000000433680700 ) ) ;
#1098 = VECTOR ( 'NONE', #979, 1000.000000000000000 ) ;
#1099 = ORIENTED_EDGE ( 'NONE', *, *, #218, .T. ) ;
#1100 = EDGE_LOOP ( 'NONE', ( #730, #163, #191, #1187 ) ) ;
#1101 = CARTESIAN_POINT ( 'NONE',  ( 0.7599999999999999000, 0.04000000000000000100, -0.3599999999999998800 ) ) ;
#1102 = VECTOR ( 'NONE', #1159, 1000.000000000000000 ) ;
#1103 = STYLED_ITEM ( 'NONE', ( #303 ), #653 ) ;
#1104 = EDGE_LOOP ( 'NONE', ( #350, #846, #684 ) ) ;
#1105 = CARTESIAN_POINT ( 'NONE',  ( -0.3999999999999998600, 0.01333333333333333200, -0.3599999999999997100 ) ) ;
#1106 = EDGE_CURVE ( 'NONE', #517, #481, #888, .T. ) ;
#1107 = DIRECTION ( 'NONE',  ( 1.000000000000000000, 0.0000000000000000000, -8.673617379884036700E-017 ) ) ;
#1108 = ORIENTED_EDGE ( 'NONE', *, *, #1265, .F. ) ;
#1109 = DIRECTION ( 'NONE',  ( -0.0000000000000000000, -1.000000000000000000, -0.0000000000000000000 ) ) ;
#1110 = DIRECTION ( 'NONE',  ( 0.0000000000000000000, 1.000000000000000000, 0.0000000000000000000 ) ) ;
#1111 = AXIS2_PLACEMENT_3D ( 'NONE', #604, #304, #2 ) ;
#1112 = AXIS2_PLACEMENT_3D ( 'NONE', #680, #867, #973 ) ;
#1113 = LINE ( 'NONE', #819, #1143 ) ;
#1114 = FACE_OUTER_BOUND ( 'NONE', #358, .T. ) ;
#1115 = DIRECTION ( 'NONE',  ( 0.0000000000000000000, -1.000000000000000000, 0.0000000000000000000 ) ) ;
#1116 = DIRECTION ( 'NONE',  ( 0.0000000000000000000, 0.0000000000000000000, 1.000000000000000000 ) ) ;
#1117 = DIRECTION ( 'NONE',  ( 0.0000000000000000000, -1.000000000000000000, 0.0000000000000000000 ) ) ;
#1118 = EDGE_CURVE ( 'NONE', #517, #975, #333, .T. ) ;
#1119 = CARTESIAN_POINT ( 'NONE',  ( -0.3999999999999998600, 0.6500000000000000200, -0.3999999999999998600 ) ) ;
#1120 = DIRECTION ( 'NONE',  ( -1.000000000000000000, 0.0000000000000000000, 0.0000000000000000000 ) ) ;
#1121 = MECHANICAL_DESIGN_GEOMETRIC_PRESENTATION_REPRESENTATION (  '', ( #656 ), #1188 ) ;
#1122 = ADVANCED_FACE ( 'NONE', ( #625 ), #647, .F. ) ;
#1123 = DIRECTION ( 'NONE',  ( 0.0000000000000000000, 0.0000000000000000000, -1.000000000000000000 ) ) ;
#1124 = ORIENTED_EDGE ( 'NONE', *, *, #1033, .T. ) ;
#1125 = LINE ( 'NONE', #784, #596 ) ;
#1126 = DIRECTION ( 'NONE',  ( 1.000000000000000000, 0.0000000000000000000, -8.673617379884036700E-017 ) ) ;
#1127 = EDGE_CURVE ( 'NONE', #249, #1134, #406, .T. ) ;
#1128 = CIRCLE ( 'NONE', #230, 0.03999999999999999400 ) ;
#1129 = CARTESIAN_POINT ( 'NONE',  ( 0.3999999999999996900, 0.6500000000000000200, 0.4000000000000000200 ) ) ;
#1130 = ORIENTED_EDGE ( 'NONE', *, *, #489, .F. ) ;
#1131 = DIRECTION ( 'NONE',  ( 2.032879073410321300E-016, 0.0000000000000000000, -1.000000000000000000 ) ) ;
#1132 = ORIENTED_EDGE ( 'NONE', *, *, #166, .F. ) ;
#1133 = EDGE_CURVE ( 'NONE', #519, #699, #331, .T. ) ;
#1134 = VERTEX_POINT ( 'NONE', #733 ) ;
#1135 = DIRECTION ( 'NONE',  ( 0.0000000000000000000, -1.000000000000000000, -0.0000000000000000000 ) ) ;
#1136 = DIRECTION ( 'NONE',  ( 0.0000000000000000000, 0.0000000000000000000, -1.000000000000000000 ) ) ;
#1137 = ORIENTED_EDGE ( 'NONE', *, *, #765, .F. ) ;
#1138 = AXIS2_PLACEMENT_3D ( 'NONE', #74, #1184, #668 ) ;
#1139 = EDGE_LOOP ( 'NONE', ( #346, #407, #176 ) ) ;
#1140 = ORIENTED_EDGE ( 'NONE', *, *, #616, .F. ) ;
#1141 = DIRECTION ( 'NONE',  ( -1.000000000000000000, -0.0000000000000000000, 8.673617379884036700E-017 ) ) ;
#1142 = ORIENTED_EDGE ( 'NONE', *, *, #854, .T. ) ;
#1143 = VECTOR ( 'NONE', #224, 1000.000000000000000 ) ;
#1144 = CARTESIAN_POINT ( 'NONE',  ( 0.4000000000132786200, 0.03999999999999999400, 0.3599999999999998800 ) ) ;
#1145 = DIRECTION ( 'NONE',  ( 0.0000000000000000000, 0.0000000000000000000, -1.000000000000000000 ) ) ;
#1146 = AXIS2_PLACEMENT_3D ( 'NONE', #551, #542, #152 ) ;
#1147 = FACE_OUTER_BOUND ( 'NONE', #391, .T. ) ;
#1148 = DIRECTION ( 'NONE',  ( 0.0000000000000000000, 0.0000000000000000000, -1.000000000000000000 ) ) ;
#1149 = CARTESIAN_POINT ( 'NONE',  ( -0.7599999999999997900, 0.0000000000000000000, 2.059984127722458400E-016 ) ) ;
#1150 = EDGE_CURVE ( 'NONE', #1151, #1039, #852, .T. ) ;
#1151 = VERTEX_POINT ( 'NONE', #59 ) ;
#1152 = DIRECTION ( 'NONE',  ( 2.710505431213761600E-016, -0.0000000000000000000, -1.000000000000000000 ) ) ;
#1153 = MECHANICAL_DESIGN_GEOMETRIC_PRESENTATION_REPRESENTATION (  '', ( #847 ), #999 ) ;
#1154 = ORIENTED_EDGE ( 'NONE', *, *, #178, .T. ) ;
#1155 = VECTOR ( 'NONE', #992, 1000.000000000000000 ) ;
#1156 =( NAMED_UNIT ( * ) PLANE_ANGLE_UNIT ( ) SI_UNIT ( $, .RADIAN. ) );
#1157 = SPHERICAL_SURFACE ( 'NONE', #829, 0.04000000000000000100 ) ;
#1158 = LINE ( 'NONE', #691, #544 ) ;
#1159 = DIRECTION ( 'NONE',  ( -2.710505431213761600E-016, 0.0000000000000000000, -1.000000000000000000 ) ) ;
#1160 = AXIS2_PLACEMENT_3D ( 'NONE', #536, #234, #931 ) ;
#1161 = ORIENTED_EDGE ( 'NONE', *, *, #859, .T. ) ;
#1162 = CYLINDRICAL_SURFACE ( 'NONE', #1222, 0.03999999999999999400 ) ;
#1163 = APPLICATION_PROTOCOL_DEFINITION ( 'draft international standard', 'automotive_design', 1998, #67 ) ;
#1164 = DIRECTION ( 'NONE',  ( 1.000000000000000000, 0.0000000000000000000, 2.032879073410321300E-016 ) ) ;
#1165 = DIRECTION ( 'NONE',  ( 0.0000000000000000000, 0.0000000000000000000, 1.000000000000000000 ) ) ;
#1166 = VERTEX_POINT ( 'NONE', #746 ) ;
#1167 = MECHANICAL_DESIGN_GEOMETRIC_PRESENTATION_REPRESENTATION (  '', ( #1103 ), #982 ) ;
#1168 = ORIENTED_EDGE ( 'NONE', *, *, #153, .T. ) ;
#1169 = VERTEX_POINT ( 'NONE', #357 ) ;
#1170 = CARTESIAN_POINT ( 'NONE',  ( -0.3999999999999997400, 0.01333333333333333200, 0.3599999999999997100 ) ) ;
#1171 = FACE_OUTER_BOUND ( 'NONE', #311, .T. ) ;
#1172 = EDGE_CURVE ( 'NONE', #1091, #233, #591, .T. ) ;
#1173 = SPHERICAL_SURFACE ( 'NONE', #27, 0.04000000000000000100 ) ;
#1174 = DIRECTION ( 'NONE',  ( 1.000000000000000000, 0.0000000000000000000, 0.0000000000000000000 ) ) ;
#1175 = CARTESIAN_POINT ( 'NONE',  ( -0.7999999999999999300, 0.03999999999999999400, -0.3999999999999998600 ) ) ;
#1176 = VECTOR ( 'NONE', #279, 1000.000000000000000 ) ;
#1177 = UNCERTAINTY_MEASURE_WITH_UNIT (LENGTH_MEASURE( 1.000000000000000100E-005 ), #563, 'distance_accuracy_value', 'NONE');
#1178 = EDGE_CURVE ( 'NONE', #343, #408, #821, .T. ) ;
#1179 = AXIS2_PLACEMENT_3D ( 'NONE', #427, #712, #225 ) ;
#1180 = ORIENTED_EDGE ( 'NONE', *, *, #218, .F. ) ;
#1181 = DIRECTION ( 'NONE',  ( 0.0000000000000000000, 0.0000000000000000000, 1.000000000000000000 ) ) ;
#1182 = CARTESIAN_POINT ( 'NONE',  ( 0.0000000000000000000, 0.6500000000000000200, 0.0000000000000000000 ) ) ;
#1183 = DIRECTION ( 'NONE',  ( -1.000000000000000000, 0.0000000000000000000, 0.0000000000000000000 ) ) ;
#1184 = DIRECTION ( 'NONE',  ( -1.000000000000000000, -0.0000000000000000000, -0.0000000000000000000 ) ) ;
#1185 = EDGE_CURVE ( 'NONE', #361, #946, #3, .T. ) ;
#1186 = DIRECTION ( 'NONE',  ( -1.000000000000000000, -0.0000000000000000000, -0.0000000000000000000 ) ) ;
#1187 = ORIENTED_EDGE ( 'NONE', *, *, #645, .T. ) ;
#1188 =( GEOMETRIC_REPRESENTATION_CONTEXT ( 3 ) GLOBAL_UNCERTAINTY_ASSIGNED_CONTEXT ( ( #686 ) ) GLOBAL_UNIT_ASSIGNED_CONTEXT ( ( #822, #229, #1023 ) ) REPRESENTATION_CONTEXT ( 'NONE', 'WORKASPACE' ) );
#1189 = VECTOR ( 'NONE', #1135, 1000.000000000000000 ) ;
#1190 = EDGE_CURVE ( 'NONE', #481, #990, #201, .T. ) ;
#1191 = DIRECTION ( 'NONE',  ( 0.0000000000000000000, -0.0000000000000000000, 1.000000000000000000 ) ) ;
#1192 = ORIENTED_EDGE ( 'NONE', *, *, #785, .T. ) ;
#1193 = EDGE_CURVE ( 'NONE', #587, #126, #1072, .T. ) ;
#1194 = ADVANCED_FACE ( 'NONE', ( #883 ), #1162, .T. ) ;
#1195 = ORIENTED_EDGE ( 'NONE', *, *, #893, .T. ) ;
#1196 = EDGE_CURVE ( 'NONE', #1259, #937, #988, .T. ) ;
#1197 = VECTOR ( 'NONE', #838, 1000.000000000000000 ) ;
#1198 = EDGE_CURVE ( 'NONE', #843, #567, #590, .T. ) ;
#1199 = CARTESIAN_POINT ( 'NONE',  ( -0.3999999999999996900, 0.6099999999999999900, 0.4000000000000000200 ) ) ;
#1200 = EDGE_LOOP ( 'NONE', ( #985, #714, #1215, #776 ) ) ;
#1201 = CARTESIAN_POINT ( 'NONE',  ( -0.7599999999999999000, 0.6500000000000000200, -0.3599999999999998800 ) ) ;
#1202 = ORIENTED_EDGE ( 'NONE', *, *, #239, .T. ) ;
#1203 = AXIS2_PLACEMENT_3D ( 'NONE', #635, #339, #552 ) ;
#1204 = CARTESIAN_POINT ( 'NONE',  ( 0.3999999999999998600, 0.0000000000000000000, -0.3599999999999998800 ) ) ;
#1205 = ADVANCED_FACE ( 'NONE', ( #1005 ), #363, .F. ) ;
#1206 = VECTOR ( 'NONE', #575, 1000.000000000000000 ) ;
#1207 = ORIENTED_EDGE ( 'NONE', *, *, #581, .F. ) ;
#1208 = ORIENTED_EDGE ( 'NONE', *, *, #559, .T. ) ;
#1209 = AXIS2_PLACEMENT_3D ( 'NONE', #1093, #403, #697 ) ;
#1210 = VERTEX_POINT ( 'NONE', #245 ) ;
#1211 = DIRECTION ( 'NONE',  ( -1.000000000000000000, 0.0000000000000000000, -2.710505431213761600E-016 ) ) ;
#1212 = DIRECTION ( 'NONE',  ( 0.0000000000000000000, -1.000000000000000000, 0.0000000000000000000 ) ) ;
#1213 = DIRECTION ( 'NONE',  ( -1.000000000000000000, -0.0000000000000000000, 8.673617379884036700E-017 ) ) ;
#1214 = EDGE_CURVE ( 'NONE', #1091, #659, #161, .T. ) ;
#1215 = ORIENTED_EDGE ( 'NONE', *, *, #720, .F. ) ;
#1216 = CARTESIAN_POINT ( 'NONE',  ( 0.7599999999999996800, 0.04000000000000000100, 0.3600000000000000400 ) ) ;
#1217 = SURFACE_STYLE_FILL_AREA ( #579 ) ;
#1218 = DIRECTION ( 'NONE',  ( -0.0000000000000000000, 1.000000000000000000, -0.0000000000000000000 ) ) ;
#1219 = AXIS2_PLACEMENT_3D ( 'NONE', #88, #79, #1181 ) ;
#1220 = DIRECTION ( 'NONE',  ( 0.0000000000000000000, 0.0000000000000000000, 1.000000000000000000 ) ) ;
#1221 = LINE ( 'NONE', #208, #631 ) ;
#1222 = AXIS2_PLACEMENT_3D ( 'NONE', #641, #49, #832 ) ;
#1223 = FACE_OUTER_BOUND ( 'NONE', #886, .T. ) ;
#1224 = DIRECTION ( 'NONE',  ( 0.0000000000000000000, 0.0000000000000000000, 1.000000000000000000 ) ) ;
#1225 = ADVANCED_FACE ( 'NONE', ( #603 ), #77, .T. ) ;
#1226 = CARTESIAN_POINT ( 'NONE',  ( -0.3999999999999998600, 0.0000000000000000000, -0.3599999999999998800 ) ) ;
#1227 = AXIS2_PLACEMENT_3D ( 'NONE', #689, #1090, #211 ) ;
#1228 = ORIENTED_EDGE ( 'NONE', *, *, #817, .T. ) ;
#1229 = ORIENTED_EDGE ( 'NONE', *, *, #115, .F. ) ;
#1230 = CARTESIAN_POINT ( 'NONE',  ( 0.7999999999999997100, 0.6099999999999999900, 0.4000000000000000200 ) ) ;
#1231 = ORIENTED_EDGE ( 'NONE', *, *, #1006, .T. ) ;
#1232 = ORIENTED_EDGE ( 'NONE', *, *, #1214, .F. ) ;
#1233 = VECTOR ( 'NONE', #1218, 1000.000000000000000 ) ;
#1234 = COLOUR_RGB ( '',0.7921568627450980000, 0.8196078431372548800, 0.9333333333333333500 ) ;
#1235 = DIRECTION ( 'NONE',  ( -1.000000000000000000, -0.0000000000000000000, 8.673617379884036700E-017 ) ) ;
#1236 = AXIS2_PLACEMENT_3D ( 'NONE', #1101, #508, #593 ) ;
#1237 = SPHERICAL_SURFACE ( 'NONE', #948, 0.04000000000000000100 ) ;
#1238 = LINE ( 'NONE', #991, #416 ) ;
#1239 = ADVANCED_FACE ( 'NONE', ( #327 ), #798, .T. ) ;
#1240 = CARTESIAN_POINT ( 'NONE',  ( 500000.0000000000600, 0.03999999999999999400, -0.3866666667100346900 ) ) ;
#1241 = ORIENTED_EDGE ( 'NONE', *, *, #469, .T. ) ;
#1242 = ORIENTED_EDGE ( 'NONE', *, *, #251, .F. ) ;
#1243 = DIRECTION ( 'NONE',  ( 0.0000000000000000000, 0.0000000000000000000, 1.000000000000000000 ) ) ;
#1244 = ORIENTED_EDGE ( 'NONE', *, *, #65, .T. ) ;
#1245 = AXIS2_PLACEMENT_3D ( 'NONE', #670, #1069, #1248 ) ;
#1246 = ORIENTED_EDGE ( 'NONE', *, *, #559, .F. ) ;
#1247 = CARTESIAN_POINT ( 'NONE',  ( 0.0000000000000000000, 0.0000000000000000000, 0.0000000000000000000 ) ) ;
#1248 = DIRECTION ( 'NONE',  ( -2.032879073410321300E-016, 0.0000000000000000000, 1.000000000000000000 ) ) ;
#1249 = ORIENTED_EDGE ( 'NONE', *, *, #96, .T. ) ;
#1250 = COLOUR_RGB ( '',0.7921568627450980000, 0.8196078431372548800, 0.9333333333333333500 ) ;
#1251 = CIRCLE ( 'NONE', #1209, 0.03999999999999999400 ) ;
#1252 =( NAMED_UNIT ( * ) SI_UNIT ( $, .STERADIAN. ) SOLID_ANGLE_UNIT ( ) );
#1253 = FACE_OUTER_BOUND ( 'NONE', #642, .T. ) ;
#1254 = ORIENTED_EDGE ( 'NONE', *, *, #765, .T. ) ;
#1255 = DIRECTION ( 'NONE',  ( 1.000000000000000000, 0.0000000000000000000, 0.0000000000000000000 ) ) ;
#1256 = PLANE ( 'NONE',  #725 ) ;
#1257 = CARTESIAN_POINT ( 'NONE',  ( 0.0000000000000000000, 0.0000000000000000000, 0.0000000000000000000 ) ) ;
#1258 = EDGE_CURVE ( 'NONE', #517, #1134, #742, .T. ) ;
#1259 = VERTEX_POINT ( 'NONE', #164 ) ;
#1260 = DIRECTION ( 'NONE',  ( 0.0000000000000000000, 0.0000000000000000000, 1.000000000000000000 ) ) ;
#1261 = CARTESIAN_POINT ( 'NONE',  ( 0.0000000000000000000, 0.6099999999999999900, 0.3600000000000000400 ) ) ;
#1262 = ORIENTED_EDGE ( 'NONE', *, *, #1033, .F. ) ;
#1263 = ORIENTED_EDGE ( 'NONE', *, *, #989, .T. ) ;
#1264 = CARTESIAN_POINT ( 'NONE',  ( -0.7599999999999999000, 0.6500000000000000200, -0.3999999999999998600 ) ) ;
#1265 = EDGE_CURVE ( 'NONE', #75, #1210, #665, .T. ) ;
#1266 = FACE_OUTER_BOUND ( 'NONE', #445, .T. ) ;
#1267 = ORIENTED_EDGE ( 'NONE', *, *, #1198, .F. ) ;
#1268 = DIRECTION ( 'NONE',  ( 2.710505431213761600E-016, -0.0000000000000000000, 1.000000000000000000 ) ) ;
#1269 = ORIENTED_EDGE ( 'NONE', *, *, #448, .F. ) ;
#1270 = DIRECTION ( 'NONE',  ( -0.0000000000000000000, 1.000000000000000000, -0.0000000000000000000 ) ) ;
#1271 = ORIENTED_EDGE ( 'NONE', *, *, #106, .F. ) ;
#1272 = AXIS2_PLACEMENT_3D ( 'NONE', #796, #1084, #202 ) ;
#1273 = ORIENTED_EDGE ( 'NONE', *, *, #817, .F. ) ;
#1274 = DIRECTION ( 'NONE',  ( 1.000000000000000000, 0.0000000000000000000, 0.0000000000000000000 ) ) ;
#1275 = VECTOR ( 'NONE', #1030, 1000.000000000000000 ) ;
#1276 = LINE ( 'NONE', #808, #257 ) ;
#1277 = CARTESIAN_POINT ( 'NONE',  ( -0.7999999999999999300, 0.03999999999999999400, -0.3599999999999998800 ) ) ;
#1278 = AXIS2_PLACEMENT_3D ( 'NONE', #275, #774, #184 ) ;
#1279 = ADVANCED_FACE ( 'NONE', ( #974 ), #15, .T. ) ;
#1280 = CIRCLE ( 'NONE', #949, 0.02666666666666670000 ) ;
ENDSEC;
END-ISO-10303-21;
