M48
METRIC,TZ
T1C0.400
T2C0.650
T3C0.700
T4C0.900
T5C1.000
T6C1.400
%
G90
G05
T1
X136540Y-53330
X137000Y-39250
X137100Y-42500
X137525Y-47875
X138000Y-37250
X138200Y-80600
X138250Y-40250
X138600Y-25800
X138600Y-68900
X138650Y-73500
X138750Y-31250
X138750Y-32750
X138750Y-34250
X138765Y-70970
X138765Y-91290
X138765Y-96370
X138765Y-98910
X138765Y-101450
X138765Y-103990
X138765Y-106530
X138765Y-109070
X138765Y-111610
X138765Y-114150
X138765Y-116690
X138765Y-119230
X138765Y-121770
X138765Y-124310
X138765Y-126850
X138765Y-129390
X138765Y-131930
X138765Y-134470
X138765Y-137010
X138765Y-139550
X138765Y-142090
X138765Y-144630
X138765Y-147170
X138765Y-149710
X138765Y-152250
X138765Y-154790
X138765Y-157330
X138765Y-159870
X138765Y-162410
X138765Y-164950
X138925Y-56825
X139000Y-38250
X139300Y-26400
X139390Y-35180
X139500Y-20000
X139864Y-57253
X140200Y-15300
X140400Y-53022
X140600Y-82850
X140700Y-78050
X140700Y-101950
X140900Y-36700
X140900Y-46200
X140979Y-39621
X141050Y-109700
X141200Y-94600
X141250Y-20000
X141305Y-65890
X141305Y-106530
X141305Y-116690
X141305Y-119230
X141305Y-121770
X141305Y-124310
X141305Y-126850
X141305Y-129390
X141305Y-131930
X141305Y-134470
X141305Y-142090
X141305Y-149710
X141305Y-152250
X141305Y-154790
X141305Y-157330
X141305Y-159870
X141305Y-162410
X141305Y-164950
X141305Y-175110
X141305Y-177650
X141305Y-180190
X141305Y-182730
X141575Y-53022
X142200Y-49050
X142219Y-103675
X142300Y-172600
X142301Y-51401
X142400Y-62300
X142459Y-56730
X142459Y-58835
X142700Y-29300
X142725Y-54925
X142750Y-14000
X142750Y-17250
X143250Y-20000
X143400Y-54100
X143590Y-55980
X143779Y-73135
X143800Y-181600
X143845Y-121770
X143845Y-124310
X143845Y-126850
X143845Y-134470
X143845Y-139550
X143845Y-142090
X143845Y-159870
X143845Y-162410
X144000Y-76400
X144000Y-78600
X144200Y-94600
X144350Y-53425
X144359Y-137925
X144375Y-177725
X144400Y-55090
X144550Y-109700
X144600Y-40400
X144750Y-146750
X145000Y-31800
X145240Y-54310
X145250Y-20000
X145285Y-45836
X145350Y-64100
X145592Y-71342
X145600Y-101650
X145697Y-43302
X145771Y-50625
X145800Y-37700
X146094Y-30725
X146175Y-51700
X146262Y-59486
X146385Y-114150
X146385Y-116690
X146385Y-119230
X146385Y-121770
X146385Y-124310
X146385Y-126850
X146385Y-131930
X146385Y-134470
X146385Y-137010
X146385Y-142090
X146385Y-149710
X146385Y-154790
X146385Y-159870
X146385Y-162410
X146550Y-129300
X146681Y-43127
X146900Y-173700
X147250Y-111700
X147259Y-59555
X147350Y-55711
X147400Y-19700
X147600Y-93600
X147607Y-98437
X147744Y-44200
X147800Y-183600
X147869Y-99575
X148000Y-66200
X148125Y-71325
X148254Y-42410
X148400Y-20900
X148441Y-177597
X148452Y-19752
X148500Y-35700
X148544Y-97800
X148650Y-128850
X148650Y-137625
X148650Y-138825
X148708Y-28300
X148853Y-113750
X148925Y-76050
X148925Y-78590
X148925Y-118875
X148925Y-121770
X148925Y-124310
X148925Y-126025
X148925Y-131930
X148925Y-134470
X148925Y-149710
X148925Y-154790
X148925Y-159870
X148925Y-162410
X148978Y-116000
X149319Y-42450
X149352Y-91400
X149400Y-51325
X149639Y-36537
X149724Y-88765
X149829Y-58340
X149879Y-56315
X149900Y-173200
X150147Y-47047
X150480Y-44010
X150800Y-98800
X150869Y-22075
X151000Y-177100
X151025Y-51075
X151199Y-83235
X151344Y-30700
X151375Y-180955
X151375Y-182405
X151389Y-53475
X151465Y-129390
X151465Y-131500
X151465Y-134470
X151465Y-137525
X151465Y-138900
X151465Y-154790
X151465Y-159870
X151475Y-126000
X151475Y-141575
X151500Y-92200
X151700Y-20200
X151700Y-85000
X151700Y-86400
X151700Y-87800
X151769Y-38200
X151800Y-28100
X151819Y-96075
X151944Y-32950
X152020Y-75790
X152050Y-77640
X152400Y-66200
X152400Y-70400
X152600Y-36300
X152619Y-60175
X152882Y-37737
X153100Y-101700
X153119Y-72825
X153287Y-49807
X153289Y-55745
X153334Y-41109
X153400Y-17400
X153497Y-35503
X153929Y-57419
X154005Y-129390
X154005Y-134470
X154005Y-142090
X154005Y-147170
X154005Y-149710
X154005Y-152250
X154200Y-29000
X154200Y-81700
X154251Y-50095
X154300Y-178300
X154400Y-25600
X154745Y-59845
X154770Y-44880
X154775Y-180925
X154950Y-144500
X154969Y-16575
X155050Y-15350
X155114Y-50601
X155268Y-41299
X155327Y-37333
X155400Y-33600
X155400Y-178300
X155600Y-156000
X155700Y-175000
X155769Y-102125
X156150Y-21500
X156197Y-51127
X156200Y-123500
X156393Y-42224
X156400Y-67200
X156400Y-68400
X156400Y-69800
X156422Y-48888
X156469Y-104075
X156545Y-116690
X156545Y-134470
X156545Y-142090
X156545Y-147170
X156545Y-149710
X156545Y-152250
X156600Y-81700
X156700Y-31170
X157119Y-51515
X157169Y-13875
X157194Y-102475
X157200Y-176000
X157250Y-17200
X157307Y-60887
X157350Y-110050
X157400Y-154200
X157550Y-144450
X158044Y-64525
X158400Y-136800
X158400Y-139300
X158469Y-101075
X158800Y-182200
X159085Y-22710
X159085Y-35410
X159085Y-147170
X159085Y-149710
X159085Y-164950
X159085Y-172570
X159085Y-175110
X159400Y-161200
X159600Y-152200
X159600Y-177800
X160469Y-88825
X160500Y-71250
X160500Y-74750
X160500Y-78250
X160500Y-81500
X160500Y-84750
X160500Y-97250
X160500Y-100250
X160500Y-103500
X160500Y-106750
X160500Y-110500
X160500Y-114500
X160500Y-117750
X160500Y-120750
X160500Y-123500
X160500Y-126000
X160500Y-129000
X160500Y-131500
X160500Y-134000
X160500Y-136750
X160500Y-139250
X160500Y-141750
X160500Y-144250
X160600Y-163200
X161200Y-159400
X161284Y-54216
X161600Y-28800
X161625Y-15090
X161625Y-17630
X161625Y-20170
X161625Y-22710
X161625Y-25250
X161625Y-32870
X161625Y-35410
X161625Y-37950
X161625Y-40490
X162194Y-88125
X162200Y-58200
X162200Y-60800
X162600Y-161200
X162800Y-157800
T4
X144294Y-83612
X146294Y-83612
X148294Y-83612
X155294Y-72612
X155294Y-74612
X155294Y-76612
T5
X142919Y-35125
X143344Y-165150
X143825Y-184925
X145419Y-35125
X145884Y-165150
X146365Y-184925
X148424Y-165150
X148905Y-184925
X150964Y-165150
X151445Y-184925
X153504Y-165150
X153985Y-184925
X156044Y-165150
X156525Y-184925
X159519Y-31000
X159519Y-33540
X159594Y-37450
X159594Y-39990
X159644Y-43930
X159644Y-46470
X159644Y-49010
X159644Y-51550
X159644Y-54090
X159644Y-56630
X159644Y-59170
X159644Y-61710
X159644Y-64250
X159644Y-66790
T6
X145619Y-152675
X145619Y-157675
X150619Y-152675
X150619Y-157675
T2
G00X145489Y-18000
M15
G01X145489Y-18400
M16
G05
G00X150329Y-18000
M15
G01X150329Y-18400
M16
G05
T3
G00X145179Y-14950
M15
G01X145179Y-15450
M16
G05
G00X150639Y-14950
M15
G01X150639Y-15450
M16
G05
M30
