%TF.GenerationSoftware,KiCad,Pcbnew,8.0.6*%
%TF.CreationDate,2024-11-11T22:34:59-05:00*%
%TF.ProjectId,rulerSchematic,72756c65-7253-4636-9865-6d617469632e,rev?*%
%TF.SameCoordinates,Original*%
%TF.FileFunction,Copper,L2,Bot*%
%TF.FilePolarity,Positive*%
%FSLAX46Y46*%
G04 Gerber Fmt 4.6, Leading zero omitted, Abs format (unit mm)*
G04 Created by KiCad (PCBNEW 8.0.6) date 2024-11-11 22:34:59*
%MOMM*%
%LPD*%
G01*
G04 APERTURE LIST*
G04 Aperture macros list*
%AMRoundRect*
0 Rectangle with rounded corners*
0 $1 Rounding radius*
0 $2 $3 $4 $5 $6 $7 $8 $9 X,Y pos of 4 corners*
0 Add a 4 corners polygon primitive as box body*
4,1,4,$2,$3,$4,$5,$6,$7,$8,$9,$2,$3,0*
0 Add four circle primitives for the rounded corners*
1,1,$1+$1,$2,$3*
1,1,$1+$1,$4,$5*
1,1,$1+$1,$6,$7*
1,1,$1+$1,$8,$9*
0 Add four rect primitives between the rounded corners*
20,1,$1+$1,$2,$3,$4,$5,0*
20,1,$1+$1,$4,$5,$6,$7,0*
20,1,$1+$1,$6,$7,$8,$9,0*
20,1,$1+$1,$8,$9,$2,$3,0*%
G04 Aperture macros list end*
%TA.AperFunction,ComponentPad*%
%ADD10O,3.000000X1.500000*%
%TD*%
%TA.AperFunction,ComponentPad*%
%ADD11O,1.500000X3.000000*%
%TD*%
%TA.AperFunction,ComponentPad*%
%ADD12R,1.700000X1.700000*%
%TD*%
%TA.AperFunction,ComponentPad*%
%ADD13O,1.700000X1.700000*%
%TD*%
%TA.AperFunction,ComponentPad*%
%ADD14R,2.100000X2.100000*%
%TD*%
%TA.AperFunction,ComponentPad*%
%ADD15C,2.100000*%
%TD*%
%TA.AperFunction,ComponentPad*%
%ADD16O,1.350000X1.700000*%
%TD*%
%TA.AperFunction,ComponentPad*%
%ADD17O,1.100000X1.500000*%
%TD*%
%TA.AperFunction,ComponentPad*%
%ADD18RoundRect,0.250000X0.600000X0.750000X-0.600000X0.750000X-0.600000X-0.750000X0.600000X-0.750000X0*%
%TD*%
%TA.AperFunction,ComponentPad*%
%ADD19O,1.700000X2.000000*%
%TD*%
%TA.AperFunction,ViaPad*%
%ADD20C,0.800000*%
%TD*%
%TA.AperFunction,Conductor*%
%ADD21C,0.250000*%
%TD*%
%ADD22C,0.350000*%
%ADD23O,0.700000X1.200000*%
%ADD24O,0.650000X1.050000*%
G04 APERTURE END LIST*
D10*
%TO.P,S2,X*%
%TO.N,JOYSTICK_X*%
X155294231Y-74612498D03*
%TO.P,S2,X+*%
%TO.N,+3.3V*%
X155294231Y-76612498D03*
%TO.P,S2,X-*%
%TO.N,GND*%
X155294231Y-72612498D03*
D11*
%TO.P,S2,Y*%
%TO.N,JOYSTICK_Y*%
X146294231Y-83612498D03*
%TO.P,S2,Y+*%
%TO.N,+3.3V*%
X148294231Y-83612498D03*
%TO.P,S2,Y-*%
%TO.N,GND*%
X144294231Y-83612498D03*
%TD*%
D12*
%TO.P,J10,1,Pin_1*%
%TO.N,+3.3V*%
X143344231Y-165149998D03*
D13*
%TO.P,J10,2,Pin_2*%
%TO.N,+2V8*%
X145884231Y-165149998D03*
%TO.P,J10,3,Pin_3*%
%TO.N,I2C1_SDA*%
X148424231Y-165149998D03*
%TO.P,J10,4,Pin_4*%
%TO.N,I2C1_SCL*%
X150964231Y-165149998D03*
%TO.P,J10,5,Pin_5*%
%TO.N,XSHUT*%
X153504231Y-165149998D03*
%TO.P,J10,6,Pin_6*%
%TO.N,GND*%
X156044231Y-165149998D03*
%TD*%
D12*
%TO.P,J4,1,Pin_1*%
%TO.N,+3.3V*%
X156525000Y-184925000D03*
D13*
%TO.P,J4,2,Pin_2*%
%TO.N,+2V8*%
X153985000Y-184925000D03*
%TO.P,J4,3,Pin_3*%
%TO.N,I2C_SDA*%
X151445000Y-184925000D03*
%TO.P,J4,4,Pin_4*%
%TO.N,I2C_SCL*%
X148905000Y-184925000D03*
%TO.P,J4,5,Pin_5*%
%TO.N,XSHUT_Breakout*%
X146365000Y-184925000D03*
%TO.P,J4,6,Pin_6*%
%TO.N,GND*%
X143825000Y-184925000D03*
%TD*%
D12*
%TO.P,J5,1,Pin_1*%
%TO.N,+5V*%
X159644231Y-43929998D03*
D13*
%TO.P,J5,2,Pin_2*%
%TO.N,Vbat*%
X159644231Y-46469998D03*
%TO.P,J5,3,Pin_3*%
%TO.N,+3.3V*%
X159644231Y-49009998D03*
%TO.P,J5,4,Pin_4*%
%TO.N,+2V8*%
X159644231Y-51549998D03*
%TO.P,J5,5,Pin_5*%
%TO.N,I2C1_SCL*%
X159644231Y-54089998D03*
%TO.P,J5,6,Pin_6*%
%TO.N,I2C1_SDA*%
X159644231Y-56629998D03*
%TO.P,J5,7,Pin_7*%
%TO.N,SPI1_MOSI*%
X159644231Y-59169998D03*
%TO.P,J5,8,Pin_8*%
%TO.N,SPI1_MISO*%
X159644231Y-61709998D03*
%TO.P,J5,9,Pin_9*%
%TO.N,SPI1_SCK*%
X159644231Y-64249998D03*
%TO.P,J5,10,Pin_10*%
%TO.N,GND*%
X159644231Y-66789998D03*
%TD*%
D14*
%TO.P,J3,1,1*%
%TO.N,Net-(J3-Pad1)*%
X150619231Y-157674998D03*
D15*
%TO.P,J3,2,2*%
X145619231Y-157674998D03*
%TO.P,J3,3,3*%
%TO.N,Net-(D4-PadA)*%
X150619231Y-152674998D03*
%TO.P,J3,4,4*%
X145619231Y-152674998D03*
%TD*%
D12*
%TO.P,J1,1,Pin_1*%
%TO.N,USART1_RX*%
X159594231Y-37449998D03*
D13*
%TO.P,J1,2,Pin_2*%
%TO.N,USART1_TX*%
X159594231Y-39989998D03*
%TD*%
D16*
%TO.P,J7,6,Shield*%
%TO.N,GND*%
X150639231Y-15200000D03*
D17*
X150329231Y-18200000D03*
X145489231Y-18200000D03*
D16*
X145179231Y-15200000D03*
%TD*%
D12*
%TO.P,J6,1,Pin_1*%
%TO.N,SWCLK*%
X159519231Y-30999998D03*
D13*
%TO.P,J6,2,Pin_2*%
%TO.N,SWDIO*%
X159519231Y-33539998D03*
%TD*%
D18*
%TO.P,J2,1,1*%
%TO.N,GND*%
X145419231Y-35124998D03*
D19*
%TO.P,J2,2,2*%
%TO.N,Vbat*%
X142919231Y-35124998D03*
%TD*%
D20*
%TO.N,GND*%
X152600000Y-36300000D03*
X158400000Y-139300000D03*
X158400000Y-136800000D03*
X151700000Y-87800000D03*
X151700000Y-86400000D03*
X151700000Y-85000000D03*
X156700000Y-31170000D03*
X139390000Y-35180000D03*
%TO.N,PB11_Bouton_IN*%
X155114231Y-50600759D03*
X149879231Y-56314998D03*
%TO.N,GND*%
X152020000Y-75790000D03*
X149351731Y-91400000D03*
X151465000Y-159869998D03*
X146900000Y-173700000D03*
X139300000Y-26400000D03*
X138765000Y-154789998D03*
X145800000Y-37700000D03*
X138765000Y-96369998D03*
X138765000Y-157329998D03*
X141305000Y-162409998D03*
X138765000Y-106529998D03*
X148925000Y-76049998D03*
X142700000Y-29300000D03*
X140979133Y-39620866D03*
X141305000Y-116689998D03*
X141305000Y-134469998D03*
X138650000Y-73500000D03*
X148925000Y-131929998D03*
X161600000Y-28800000D03*
X151500000Y-92200000D03*
X146385000Y-137009998D03*
X161625000Y-37949998D03*
X160500000Y-117750000D03*
X154005000Y-134469998D03*
X148544231Y-97800000D03*
X141305000Y-175109998D03*
X158800000Y-182200000D03*
X151000000Y-177100000D03*
X160500000Y-144250000D03*
X141305000Y-131929998D03*
X146550000Y-129300000D03*
X146385000Y-119229998D03*
X160500000Y-136750000D03*
X151465000Y-129389998D03*
X148925000Y-126025000D03*
X138200000Y-80600000D03*
X141305000Y-124309998D03*
X138765000Y-116689998D03*
X140900000Y-46200000D03*
X141305000Y-149709998D03*
X138765000Y-70969998D03*
X140200000Y-15300000D03*
X143845000Y-162409998D03*
X161625000Y-25249998D03*
X162200000Y-58200000D03*
X138765000Y-126849998D03*
X160500000Y-120750000D03*
X143250000Y-20000000D03*
X162600000Y-161200000D03*
X151769231Y-38199998D03*
X138750000Y-32750000D03*
X155327116Y-37332884D03*
X157200000Y-176000000D03*
X159085000Y-149709998D03*
X144600000Y-40400000D03*
X154200000Y-81700000D03*
X146385000Y-149709998D03*
X148650000Y-137625000D03*
X142725000Y-54925000D03*
X160500000Y-97250000D03*
X144350000Y-53425000D03*
X151465000Y-134469998D03*
X160500000Y-129000000D03*
X146385000Y-116689998D03*
X137100000Y-42500000D03*
X151475000Y-141575000D03*
X138765000Y-119229998D03*
X148978269Y-116000000D03*
X138600000Y-68900000D03*
X146385000Y-124309998D03*
X157250000Y-17200000D03*
X161625000Y-22709998D03*
X138765000Y-139549998D03*
X160500000Y-81500000D03*
X143845000Y-142089998D03*
X153100000Y-101700000D03*
X160500000Y-139250000D03*
X159600000Y-152200000D03*
X151465000Y-131500000D03*
X148925000Y-78589998D03*
X148925000Y-162409998D03*
X142750000Y-14000000D03*
X151025000Y-51075000D03*
X141250000Y-20000000D03*
X155400000Y-33600000D03*
X141305000Y-142089998D03*
X154400000Y-25600000D03*
X146385000Y-114149998D03*
X148500000Y-35700000D03*
X141305000Y-119229998D03*
X159085000Y-172569998D03*
X154005000Y-149709998D03*
X141305000Y-182729998D03*
X151465000Y-154789998D03*
X148925000Y-154789998D03*
X138765000Y-131929998D03*
X148925000Y-159869998D03*
X141305000Y-154789998D03*
X143845000Y-121769998D03*
X152400000Y-66200000D03*
X154005000Y-152249998D03*
X138250000Y-40250000D03*
X140900000Y-36700000D03*
X152050000Y-77640000D03*
X140400000Y-53021767D03*
X156200000Y-123500000D03*
X154005000Y-142089998D03*
X141305000Y-106529998D03*
X147250000Y-111700000D03*
X138600000Y-25800000D03*
X138765000Y-159869998D03*
X156545000Y-116689998D03*
X159085000Y-175109998D03*
X161625000Y-17629998D03*
X161625000Y-15089998D03*
X148853269Y-113750000D03*
X148000000Y-66200000D03*
X141305000Y-177649998D03*
X138765000Y-129389998D03*
X162200000Y-60800000D03*
X145000000Y-31800000D03*
X156400000Y-69800000D03*
X159085000Y-22709998D03*
X160500000Y-74750000D03*
X150480000Y-44010000D03*
X138765000Y-114149998D03*
X156400000Y-68400000D03*
X142400000Y-62300000D03*
X152400000Y-70400000D03*
X138765000Y-121769998D03*
X146385000Y-134469998D03*
X161625000Y-40489998D03*
X146385000Y-126849998D03*
X153497116Y-35502884D03*
X141305000Y-65889998D03*
X157550000Y-144450000D03*
X138765000Y-142089998D03*
X149900000Y-173200000D03*
X160500000Y-114500000D03*
X138765000Y-147169998D03*
X153400000Y-17400000D03*
X143845000Y-126849998D03*
X146385000Y-131929998D03*
X161625000Y-32869998D03*
X156545000Y-152249998D03*
X151800000Y-28100000D03*
X155050000Y-15350000D03*
X159085000Y-147169998D03*
X148650000Y-128850000D03*
X138765000Y-124309998D03*
X138765000Y-103989998D03*
X144550000Y-109700000D03*
X138765000Y-164949998D03*
X156600000Y-81700000D03*
X141305000Y-180189998D03*
X140600000Y-82850000D03*
X155400000Y-178300000D03*
X144400000Y-55090000D03*
X138765000Y-137009998D03*
X159400000Y-161200000D03*
X138765000Y-109069998D03*
X138765000Y-98909998D03*
X137000000Y-39250000D03*
X154005000Y-147169998D03*
X148925000Y-134469998D03*
X138750000Y-31250000D03*
X160500000Y-100250000D03*
X138765000Y-152249998D03*
X154300000Y-178300000D03*
X150800000Y-98800000D03*
X155600000Y-156000000D03*
X148125000Y-71325000D03*
X142750000Y-17250000D03*
X137525000Y-47875000D03*
X141200000Y-94600000D03*
X161200000Y-159400000D03*
X145350000Y-64100000D03*
X162800000Y-157800000D03*
X160500000Y-106750000D03*
X138000000Y-37250000D03*
X160500000Y-110500000D03*
X153289231Y-55744998D03*
X160500000Y-126000000D03*
X141050000Y-109700000D03*
X156150000Y-21500000D03*
X160500000Y-103500000D03*
X148925000Y-121769998D03*
X142300668Y-51400668D03*
X145250000Y-20000000D03*
X156422306Y-48888205D03*
X159085000Y-35409998D03*
X138750000Y-34250000D03*
X159085000Y-164949998D03*
X148650000Y-138825000D03*
X143800000Y-181600000D03*
X143845000Y-159869998D03*
X154770000Y-44880000D03*
X143845000Y-139549998D03*
X160500000Y-84750000D03*
X138765000Y-91289998D03*
X143400000Y-54100000D03*
X141305000Y-164949998D03*
X151475000Y-126000000D03*
X160500000Y-134000000D03*
X148925000Y-118875000D03*
X138765000Y-149709998D03*
X160500000Y-141750000D03*
X144000000Y-78600000D03*
X156545000Y-134469998D03*
X144750000Y-146750000D03*
X151465000Y-137525000D03*
X147800000Y-183600000D03*
X160600000Y-163200000D03*
X146385000Y-162409998D03*
X146385000Y-142089998D03*
X161625000Y-35409998D03*
X146385000Y-121769998D03*
X138765000Y-111609998D03*
X161625000Y-20169998D03*
X143590000Y-55980000D03*
X143845000Y-134469998D03*
X144000000Y-76400000D03*
X141305000Y-129389998D03*
X154200000Y-29000000D03*
X136540000Y-53330000D03*
X160500000Y-123500000D03*
X151465000Y-138900000D03*
X138765000Y-162409998D03*
X151700000Y-20200000D03*
X156545000Y-142089998D03*
X141305000Y-159869998D03*
X140700000Y-101950000D03*
X141305000Y-157329998D03*
X154005000Y-129389998D03*
X139000000Y-38250000D03*
X140700000Y-78050000D03*
X138765000Y-101449998D03*
X141575000Y-53021767D03*
X146385000Y-159869998D03*
X151819231Y-96074998D03*
X148925000Y-124309998D03*
X144200000Y-94600000D03*
X160500000Y-131500000D03*
X156400000Y-67200000D03*
X141305000Y-126849998D03*
X160500000Y-78250000D03*
X143845000Y-124309998D03*
X152619231Y-60174998D03*
X156545000Y-147169998D03*
X141305000Y-121769998D03*
X160500000Y-71250000D03*
X145600000Y-101650000D03*
X141305000Y-152249998D03*
X145240000Y-54310000D03*
X142300000Y-172600000D03*
X139500000Y-20000000D03*
X154950000Y-144500000D03*
X138765000Y-144629998D03*
X138765000Y-134469998D03*
X146094232Y-30724694D03*
X157400000Y-154200000D03*
X142200000Y-49050000D03*
X146385000Y-154789998D03*
X157350000Y-110050000D03*
X159600000Y-177800000D03*
X148925000Y-149709998D03*
X156545000Y-149709998D03*
%TO.N,Vbat*%
X151944231Y-32949998D03*
X151344231Y-30699998D03*
X148707737Y-28300206D03*
%TO.N,PB10_Bouton_BACK*%
X156197396Y-51127408D03*
X151389231Y-53474998D03*
%TO.N,PB2_Bouton_LOG*%
X143779231Y-73134998D03*
X145591884Y-71342345D03*
X154251344Y-50095357D03*
X146261598Y-59486196D03*
%TO.N,+3.3V*%
X142459231Y-56729998D03*
X154744596Y-59844596D03*
X142459231Y-58834998D03*
X150869231Y-22074998D03*
X157169231Y-13874998D03*
%TO.N,+2V8*%
X144375153Y-177725153D03*
X148440839Y-177596967D03*
X154775000Y-180925000D03*
%TO.N,NRST*%
X145284751Y-45835671D03*
X154969231Y-16574998D03*
%TO.N,read_pin*%
X144359231Y-137924998D03*
X149400000Y-51325000D03*
%TO.N,+5V*%
X148400000Y-20900000D03*
%TO.N,I2C1_SCL*%
X149829231Y-58339998D03*
X162194231Y-88124998D03*
X160469231Y-88824998D03*
%TO.N,XSHUT*%
X161284464Y-54215536D03*
X153334399Y-41109399D03*
%TO.N,I2C1_SDA*%
X156393134Y-42223901D03*
X155267828Y-41298595D03*
X147259231Y-59554998D03*
%TO.N,SPI1_SCK*%
X158044231Y-64524998D03*
X157194231Y-102474998D03*
X147606884Y-98437345D03*
%TO.N,CS_LCD*%
X147349618Y-55711169D03*
X149724231Y-88764998D03*
%TO.N,RS_LCD*%
X153286908Y-49807321D03*
X151199231Y-83234998D03*
%TO.N,RESET_LCD*%
X150146681Y-47046532D03*
X147600000Y-93600000D03*
%TO.N,SPI1_MOSI*%
X156469231Y-104074998D03*
X147869231Y-99574998D03*
%TO.N,SWCLK*%
X152881578Y-37737345D03*
X149639231Y-36537345D03*
%TO.N,USB_D+*%
X148254419Y-42410492D03*
X147400000Y-19700000D03*
%TO.N,USB_D-*%
X148451992Y-19751992D03*
X149319231Y-42449998D03*
%TO.N,CS_SD*%
X153929066Y-57419113D03*
X157119231Y-51514998D03*
X153119231Y-72824998D03*
X155769231Y-102124998D03*
%TO.N,SPI1_MISO*%
X158469231Y-101074998D03*
X157306884Y-60887345D03*
%TO.N,BAT_PERCENT*%
X146681494Y-43127073D03*
X147744231Y-44199998D03*
%TO.N,BL_LCD*%
X145696937Y-43302140D03*
X142219231Y-103674998D03*
%TO.N,JOYSTICK_X*%
X146175000Y-51700000D03*
X139864410Y-57253235D03*
%TO.N,JOYSTICK_Y*%
X145770514Y-50625000D03*
X138925000Y-56825000D03*
%TO.N,I2C_SDA*%
X151375000Y-180955000D03*
X151375000Y-182405000D03*
%TO.N,XSHUT_Breakout*%
X155700000Y-175000000D03*
%TD*%
D21*
%TO.N,+5V*%
X148400000Y-20900000D02*
X147982737Y-21317263D01*
X158094231Y-42379998D02*
X159644231Y-43929998D01*
X147982737Y-21317263D02*
X147982737Y-28774900D01*
X147982737Y-28774900D02*
X150632835Y-31424998D01*
X150632835Y-31424998D02*
X151469231Y-31424998D01*
X151469231Y-31424998D02*
X158094231Y-38049998D01*
X158094231Y-38049998D02*
X158094231Y-42379998D01*
%TO.N,PB11_Bouton_IN*%
X151088926Y-52749998D02*
X153184231Y-52749998D01*
X153184231Y-52749998D02*
X155114231Y-50819998D01*
X149879231Y-53959693D02*
X151088926Y-52749998D01*
X155114231Y-50819998D02*
X155114231Y-50600759D01*
X149879231Y-56314998D02*
X149879231Y-53959693D01*
%TO.N,Vbat*%
X151969536Y-32949998D02*
X157644231Y-38624693D01*
X157644231Y-38624693D02*
X157644231Y-44469998D01*
X151944231Y-32949998D02*
X151969536Y-32949998D01*
X150544231Y-30699998D02*
X151344231Y-30699998D01*
X151944231Y-32949998D02*
X152094231Y-32949998D01*
X148707737Y-28300206D02*
X148707737Y-28863504D01*
X148707737Y-28863504D02*
X150544231Y-30699998D01*
X157644231Y-44469998D02*
X159644231Y-46469998D01*
%TO.N,PB10_Bouton_BACK*%
X156197396Y-51127408D02*
X156197396Y-51346833D01*
X156197396Y-51346833D02*
X154069231Y-53474998D01*
X154069231Y-53474998D02*
X151389231Y-53474998D01*
%TO.N,PB2_Bouton_LOG*%
X149154231Y-54048297D02*
X149154231Y-56593563D01*
X143799231Y-73134998D02*
X143779231Y-73134998D01*
X154251344Y-50095357D02*
X154251344Y-51046489D01*
X152997835Y-52299998D02*
X150902530Y-52299998D01*
X150902530Y-52299998D02*
X149154231Y-54048297D01*
X145591884Y-71342345D02*
X143799231Y-73134998D01*
X149154231Y-56593563D02*
X146261598Y-59486196D01*
X154251344Y-51046489D02*
X152997835Y-52299998D01*
%TO.N,+3.3V*%
X161384998Y-49009998D02*
X159644231Y-49009998D01*
X157169231Y-15774998D02*
X150869231Y-22074998D01*
X162009464Y-56015536D02*
X162009464Y-49634464D01*
X154744596Y-59844596D02*
X156784194Y-57804998D01*
X162009464Y-49634464D02*
X161384998Y-49009998D01*
X156784194Y-57804998D02*
X160220002Y-57804998D01*
X157169231Y-13874998D02*
X157169231Y-15774998D01*
X160220002Y-57804998D02*
X162009464Y-56015536D01*
X142459231Y-56729998D02*
X142459231Y-58834998D01*
%TO.N,+2V8*%
X153985000Y-181715000D02*
X153985000Y-184925000D01*
X154775000Y-180925000D02*
X153985000Y-181715000D01*
X148440839Y-177596967D02*
X144503339Y-177596967D01*
X144503339Y-177596967D02*
X144375153Y-177725153D01*
%TO.N,NRST*%
X145171794Y-16574998D02*
X142546794Y-19199998D01*
X136819231Y-19924998D02*
X136819231Y-37370151D01*
X137544231Y-19199998D02*
X136819231Y-19924998D01*
X136819231Y-37370151D02*
X145284751Y-45835671D01*
X142546794Y-19199998D02*
X137544231Y-19199998D01*
X154969231Y-16574998D02*
X145171794Y-16574998D01*
%TO.N,read_pin*%
X142769231Y-136324998D02*
X142769231Y-136334998D01*
X143039231Y-71942651D02*
X143039231Y-119655061D01*
X147350000Y-54700000D02*
X147063831Y-54986169D01*
X142681731Y-120012561D02*
X142681731Y-136237498D01*
X142681731Y-136237498D02*
X142769231Y-136324998D01*
X147049313Y-54986169D02*
X144186598Y-57848884D01*
X142769231Y-136334998D02*
X144359231Y-137924998D01*
X144186598Y-57848884D02*
X144186598Y-70795284D01*
X149400000Y-51893340D02*
X147350000Y-53943340D01*
X149400000Y-51325000D02*
X149400000Y-51893340D01*
X147350000Y-53943340D02*
X147350000Y-54700000D01*
X143039231Y-119655061D02*
X142681731Y-120012561D01*
X147063831Y-54986169D02*
X147049313Y-54986169D01*
X144186598Y-70795284D02*
X143039231Y-71942651D01*
%TO.N,I2C1_SCL*%
X158384231Y-54089998D02*
X159644231Y-54089998D01*
X160469231Y-88824998D02*
X161494231Y-88824998D01*
X154134231Y-58339998D02*
X158384231Y-54089998D01*
X149829231Y-58339998D02*
X154134231Y-58339998D01*
X161494231Y-88824998D02*
X162194231Y-88124998D01*
%TO.N,XSHUT*%
X161284464Y-54215536D02*
X161284464Y-54040231D01*
X159157530Y-52914998D02*
X158469231Y-52226699D01*
X158469231Y-46174998D02*
X153725000Y-41430767D01*
X160159231Y-52914998D02*
X159157530Y-52914998D01*
X158469231Y-52226699D02*
X158469231Y-46174998D01*
X161284464Y-54040231D02*
X160159231Y-52914998D01*
X153725000Y-41430767D02*
X153655767Y-41430767D01*
X153655767Y-41430767D02*
X153334399Y-41109399D01*
%TO.N,I2C1_SDA*%
X147509231Y-59304998D02*
X153805627Y-59304998D01*
X147259231Y-59554998D02*
X147509231Y-59304998D01*
X156480627Y-56629998D02*
X159644231Y-56629998D01*
X156393134Y-42223901D02*
X156193134Y-42223901D01*
X156193134Y-42223901D02*
X155267828Y-41298595D01*
X153805627Y-59304998D02*
X156480627Y-56629998D01*
%TO.N,SPI1_SCK*%
X147606884Y-98437345D02*
X147756883Y-98437345D01*
X156594231Y-103074998D02*
X157194231Y-102474998D01*
X158094536Y-102474998D02*
X159219231Y-101350303D01*
X159000000Y-100105767D02*
X159000000Y-67807468D01*
X152394536Y-103074998D02*
X156594231Y-103074998D01*
X157194231Y-102474998D02*
X158094536Y-102474998D01*
X159219231Y-101350303D02*
X159219231Y-100324998D01*
X158044231Y-66851699D02*
X158044231Y-64524998D01*
X159000000Y-67807468D02*
X158044231Y-66851699D01*
X147756883Y-98437345D02*
X152394536Y-103074998D01*
X159219231Y-100324998D02*
X159000000Y-100105767D01*
%TO.N,CS_LCD*%
X147349618Y-55711169D02*
X147349618Y-55711170D01*
X149724231Y-81429998D02*
X149724231Y-88764998D01*
X144636598Y-58424190D02*
X144636598Y-60338761D01*
X149999231Y-81154998D02*
X149724231Y-81429998D01*
X147349618Y-55711170D02*
X144636598Y-58424190D01*
X149999231Y-65701394D02*
X149999231Y-81154998D01*
X144636598Y-60338761D02*
X149999231Y-65701394D01*
%TO.N,RS_LCD*%
X148704231Y-56407167D02*
X148704231Y-53861901D01*
X152811439Y-51849998D02*
X153286908Y-51374529D01*
X148704231Y-53861901D02*
X150716134Y-51849998D01*
X153286908Y-51374529D02*
X153286908Y-49807321D01*
X151199231Y-83234998D02*
X151039231Y-83074998D01*
X146350202Y-58761196D02*
X148704231Y-56407167D01*
X145536598Y-59786501D02*
X145536598Y-59185891D01*
X151039231Y-65289134D02*
X145536598Y-59786501D01*
X151039231Y-83074998D02*
X151039231Y-65289134D01*
X150716134Y-51849998D02*
X152811439Y-51849998D01*
X145536598Y-59185891D02*
X145961293Y-58761196D01*
X145961293Y-58761196D02*
X146350202Y-58761196D01*
%TO.N,RESET_LCD*%
X145774897Y-58311196D02*
X145788804Y-58311196D01*
X148074617Y-53855119D02*
X150169231Y-51760505D01*
X148504229Y-93600000D02*
X150449231Y-91654998D01*
X145086598Y-60152365D02*
X145086598Y-58999495D01*
X145086598Y-58999495D02*
X145774897Y-58311196D01*
X150449231Y-91654998D02*
X150449231Y-65514998D01*
X150449231Y-65514998D02*
X145086598Y-60152365D01*
X150169231Y-51760505D02*
X150169231Y-47069082D01*
X145788804Y-58311196D02*
X148074617Y-56025383D01*
X150169231Y-47069082D02*
X150146681Y-47046532D01*
X147600000Y-93600000D02*
X148504229Y-93600000D01*
X148074617Y-56025383D02*
X148074617Y-53855119D01*
%TO.N,SPI1_MOSI*%
X159744231Y-68351699D02*
X160819231Y-67276699D01*
X156469231Y-104074998D02*
X157130932Y-104074998D01*
X159744231Y-101461699D02*
X159744231Y-68351699D01*
X152269231Y-104074998D02*
X156469231Y-104074998D01*
X160819231Y-67276699D02*
X160819231Y-60344998D01*
X147869231Y-99574998D02*
X147869231Y-99674998D01*
X157130932Y-104074998D02*
X159744231Y-101461699D01*
X160819231Y-60344998D02*
X159644231Y-59169998D01*
X147869231Y-99674998D02*
X152269231Y-104074998D01*
%TO.N,SWCLK*%
X152444231Y-37299998D02*
X150401884Y-37299998D01*
X152881578Y-37737345D02*
X152444231Y-37299998D01*
X150401884Y-37299998D02*
X149639231Y-36537345D01*
%TO.N,USB_D+*%
X146819231Y-20280769D02*
X146819231Y-40975304D01*
X146819231Y-40975304D02*
X148254419Y-42410492D01*
X147400000Y-19700000D02*
X146819231Y-20280769D01*
%TO.N,USB_D-*%
X147269231Y-40399998D02*
X149319231Y-42449998D01*
X147269231Y-20934753D02*
X147269231Y-40399998D01*
X148451992Y-19751992D02*
X147269231Y-20934753D01*
%TO.N,CS_SD*%
X157119231Y-53904998D02*
X157119231Y-51514998D01*
X153119231Y-99474998D02*
X153119231Y-72824998D01*
X153929066Y-57095163D02*
X157119231Y-53904998D01*
X155769231Y-102124998D02*
X153119231Y-99474998D01*
X153929066Y-57419113D02*
X153929066Y-57095163D01*
%TO.N,SPI1_MISO*%
X158300000Y-67743864D02*
X158300000Y-100905767D01*
X157306884Y-66750748D02*
X158300000Y-67743864D01*
X157306884Y-60887345D02*
X157306884Y-66750748D01*
X158300000Y-100905767D02*
X158469231Y-101074998D01*
%TO.N,BAT_PERCENT*%
X146681494Y-43137261D02*
X147744231Y-44199998D01*
X146681494Y-43127073D02*
X146681494Y-43137261D01*
%TO.N,BL_LCD*%
X148675000Y-46280203D02*
X145696937Y-43302140D01*
X146600000Y-54056944D02*
X148675000Y-51981944D01*
X142019231Y-72324998D02*
X143219231Y-71124998D01*
X143219231Y-57993297D02*
X146600000Y-54612528D01*
X142019231Y-103474998D02*
X142019231Y-72324998D01*
X142219231Y-103674998D02*
X142019231Y-103474998D01*
X146600000Y-54612528D02*
X146600000Y-54056944D01*
X143219231Y-71124998D02*
X143219231Y-57993297D01*
X148675000Y-51981944D02*
X148675000Y-46280203D01*
%TO.N,JOYSTICK_X*%
X139864410Y-56610285D02*
X144774695Y-51700000D01*
X144774695Y-51700000D02*
X146175000Y-51700000D01*
X139864410Y-57253235D02*
X139864410Y-56610285D01*
%TO.N,JOYSTICK_Y*%
X139000000Y-56825000D02*
X145200000Y-50625000D01*
X138925000Y-56825000D02*
X139000000Y-56825000D01*
X145200000Y-50625000D02*
X145770514Y-50625000D01*
%TO.N,I2C_SDA*%
X151375000Y-180955000D02*
X151375000Y-182405000D01*
%TO.N,XSHUT_Breakout*%
X155700000Y-175000000D02*
X154900000Y-175000000D01*
X154900000Y-175000000D02*
X146365000Y-183535000D01*
X146365000Y-183535000D02*
X146365000Y-184925000D01*
%TD*%
%TA.AperFunction,Conductor*%
%TO.N,GND*%
G36*
X148109871Y-171181667D02*
G01*
X148131372Y-171201947D01*
X148131753Y-171201567D01*
X148137500Y-171207314D01*
X148230686Y-171300500D01*
X148344814Y-171366392D01*
X148472108Y-171400500D01*
X148472110Y-171400500D01*
X148603890Y-171400500D01*
X148603892Y-171400500D01*
X148731186Y-171366392D01*
X148845314Y-171300500D01*
X148845315Y-171300498D01*
X148850999Y-171297217D01*
X148918899Y-171280744D01*
X148975001Y-171297217D01*
X148980684Y-171300498D01*
X148980686Y-171300500D01*
X149094814Y-171366392D01*
X149222108Y-171400500D01*
X149222110Y-171400500D01*
X149353890Y-171400500D01*
X149353892Y-171400500D01*
X149481186Y-171366392D01*
X149595314Y-171300500D01*
X149595315Y-171300498D01*
X149602352Y-171296436D01*
X149603309Y-171298094D01*
X149658679Y-171276687D01*
X149727124Y-171290724D01*
X149739235Y-171298507D01*
X149742684Y-171300498D01*
X149742686Y-171300500D01*
X149856814Y-171366392D01*
X149984108Y-171400500D01*
X149984110Y-171400500D01*
X150115890Y-171400500D01*
X150115892Y-171400500D01*
X150243186Y-171366392D01*
X150357314Y-171300500D01*
X150357315Y-171300498D01*
X150362999Y-171297217D01*
X150430899Y-171280744D01*
X150487001Y-171297217D01*
X150492684Y-171300498D01*
X150492686Y-171300500D01*
X150606814Y-171366392D01*
X150734108Y-171400500D01*
X150734110Y-171400500D01*
X150865890Y-171400500D01*
X150865892Y-171400500D01*
X150993186Y-171366392D01*
X151107314Y-171300500D01*
X151107321Y-171300492D01*
X151111512Y-171297278D01*
X151176681Y-171272083D01*
X151245126Y-171286120D01*
X151262488Y-171297278D01*
X151266681Y-171300495D01*
X151266686Y-171300500D01*
X151380814Y-171366392D01*
X151508108Y-171400500D01*
X151508110Y-171400500D01*
X151639890Y-171400500D01*
X151639892Y-171400500D01*
X151767186Y-171366392D01*
X151881314Y-171300500D01*
X151974500Y-171207314D01*
X151974500Y-171207313D01*
X151980247Y-171201567D01*
X151982937Y-171204257D01*
X152024451Y-171173075D01*
X152094134Y-171167976D01*
X152125029Y-171179090D01*
X152127482Y-171180360D01*
X152127489Y-171180365D01*
X152378508Y-171289398D01*
X152642035Y-171363235D01*
X152880399Y-171395996D01*
X152913161Y-171400500D01*
X152913162Y-171400500D01*
X153049137Y-171400500D01*
X153049519Y-171400501D01*
X160550884Y-171423581D01*
X160617860Y-171443471D01*
X160663452Y-171496416D01*
X160674500Y-171547580D01*
X160674500Y-185900500D01*
X160654815Y-185967539D01*
X160602011Y-186013294D01*
X160550500Y-186024500D01*
X157991868Y-186024500D01*
X157924829Y-186004815D01*
X157879074Y-185952011D01*
X157868579Y-185887244D01*
X157875499Y-185822881D01*
X157875500Y-185822873D01*
X157875499Y-184027128D01*
X157869091Y-183967517D01*
X157867810Y-183964083D01*
X157818797Y-183832671D01*
X157818793Y-183832664D01*
X157732547Y-183717455D01*
X157732544Y-183717452D01*
X157617335Y-183631206D01*
X157617328Y-183631202D01*
X157482482Y-183580908D01*
X157482483Y-183580908D01*
X157422883Y-183574501D01*
X157422881Y-183574500D01*
X157422873Y-183574500D01*
X157422864Y-183574500D01*
X155627129Y-183574500D01*
X155627123Y-183574501D01*
X155567516Y-183580908D01*
X155432671Y-183631202D01*
X155432664Y-183631206D01*
X155317455Y-183717452D01*
X155317452Y-183717455D01*
X155231206Y-183832664D01*
X155231203Y-183832669D01*
X155182189Y-183964083D01*
X155140317Y-184020016D01*
X155074853Y-184044433D01*
X155006580Y-184029581D01*
X154978326Y-184008430D01*
X154856402Y-183886506D01*
X154856401Y-183886505D01*
X154700523Y-183777358D01*
X154663376Y-183751347D01*
X154619751Y-183696770D01*
X154610500Y-183649772D01*
X154610500Y-182025452D01*
X154630185Y-181958413D01*
X154646819Y-181937771D01*
X154722771Y-181861819D01*
X154784094Y-181828334D01*
X154810452Y-181825500D01*
X154869644Y-181825500D01*
X154869646Y-181825500D01*
X155054803Y-181786144D01*
X155227730Y-181709151D01*
X155380871Y-181597888D01*
X155507533Y-181457216D01*
X155602179Y-181293284D01*
X155660674Y-181113256D01*
X155680460Y-180925000D01*
X155660674Y-180736744D01*
X155602179Y-180556716D01*
X155507533Y-180392784D01*
X155380871Y-180252112D01*
X155380870Y-180252111D01*
X155227734Y-180140851D01*
X155227729Y-180140848D01*
X155054807Y-180063857D01*
X155054802Y-180063855D01*
X154909001Y-180032865D01*
X154869646Y-180024500D01*
X154680354Y-180024500D01*
X154647897Y-180031398D01*
X154495197Y-180063855D01*
X154495192Y-180063857D01*
X154322270Y-180140848D01*
X154322265Y-180140851D01*
X154169129Y-180252111D01*
X154042466Y-180392785D01*
X153947821Y-180556715D01*
X153947818Y-180556722D01*
X153889327Y-180736740D01*
X153889326Y-180736744D01*
X153886173Y-180766744D01*
X153871679Y-180904650D01*
X153845094Y-180969264D01*
X153836039Y-180979369D01*
X153586269Y-181229140D01*
X153499144Y-181316264D01*
X153499138Y-181316272D01*
X153430690Y-181418708D01*
X153430688Y-181418713D01*
X153383540Y-181532538D01*
X153383535Y-181532554D01*
X153367178Y-181614791D01*
X153359500Y-181653389D01*
X153359500Y-183649773D01*
X153339815Y-183716812D01*
X153306623Y-183751348D01*
X153113597Y-183886505D01*
X152946505Y-184053597D01*
X152816575Y-184239158D01*
X152761998Y-184282783D01*
X152692500Y-184289977D01*
X152630145Y-184258454D01*
X152613425Y-184239158D01*
X152483494Y-184053597D01*
X152316402Y-183886506D01*
X152316395Y-183886501D01*
X152122834Y-183750967D01*
X152122830Y-183750965D01*
X152070500Y-183726563D01*
X151908663Y-183651097D01*
X151908659Y-183651096D01*
X151908655Y-183651094D01*
X151680413Y-183589938D01*
X151680403Y-183589936D01*
X151445001Y-183569341D01*
X151444999Y-183569341D01*
X151209596Y-183589936D01*
X151209586Y-183589938D01*
X150981344Y-183651094D01*
X150981335Y-183651098D01*
X150767171Y-183750964D01*
X150767169Y-183750965D01*
X150573597Y-183886505D01*
X150406505Y-184053597D01*
X150276575Y-184239158D01*
X150221998Y-184282783D01*
X150152500Y-184289977D01*
X150090145Y-184258454D01*
X150073425Y-184239158D01*
X149943494Y-184053597D01*
X149776402Y-183886506D01*
X149776395Y-183886501D01*
X149582834Y-183750967D01*
X149582830Y-183750965D01*
X149530500Y-183726563D01*
X149368663Y-183651097D01*
X149368659Y-183651096D01*
X149368655Y-183651094D01*
X149140413Y-183589938D01*
X149140403Y-183589936D01*
X148905001Y-183569341D01*
X148904999Y-183569341D01*
X148669596Y-183589936D01*
X148669586Y-183589938D01*
X148441344Y-183651094D01*
X148441335Y-183651098D01*
X148227171Y-183750964D01*
X148227169Y-183750965D01*
X148033597Y-183886505D01*
X147866505Y-184053597D01*
X147736575Y-184239158D01*
X147681998Y-184282783D01*
X147612500Y-184289977D01*
X147550145Y-184258454D01*
X147533425Y-184239158D01*
X147403494Y-184053597D01*
X147236402Y-183886506D01*
X147236396Y-183886501D01*
X147158467Y-183831935D01*
X147114842Y-183777358D01*
X147107648Y-183707860D01*
X147139171Y-183645505D01*
X147141877Y-183642711D01*
X150359857Y-180424731D01*
X150421178Y-180391248D01*
X150490870Y-180396232D01*
X150546803Y-180438104D01*
X150571220Y-180503568D01*
X150556368Y-180571841D01*
X150554925Y-180574410D01*
X150547823Y-180586711D01*
X150547818Y-180586722D01*
X150489327Y-180766740D01*
X150489326Y-180766744D01*
X150469540Y-180955000D01*
X150489326Y-181143256D01*
X150489327Y-181143259D01*
X150547818Y-181323277D01*
X150547821Y-181323284D01*
X150642467Y-181487216D01*
X150683276Y-181532538D01*
X150717650Y-181570715D01*
X150747880Y-181633706D01*
X150749500Y-181653687D01*
X150749500Y-181706312D01*
X150729815Y-181773351D01*
X150717650Y-181789284D01*
X150642466Y-181872784D01*
X150547821Y-182036715D01*
X150547818Y-182036722D01*
X150489327Y-182216740D01*
X150489326Y-182216744D01*
X150469540Y-182405000D01*
X150489326Y-182593256D01*
X150489327Y-182593259D01*
X150547818Y-182773277D01*
X150547821Y-182773284D01*
X150642467Y-182937216D01*
X150743243Y-183049139D01*
X150769129Y-183077888D01*
X150922265Y-183189148D01*
X150922270Y-183189151D01*
X151095192Y-183266142D01*
X151095197Y-183266144D01*
X151280354Y-183305500D01*
X151280355Y-183305500D01*
X151469644Y-183305500D01*
X151469646Y-183305500D01*
X151654803Y-183266144D01*
X151827730Y-183189151D01*
X151980871Y-183077888D01*
X152107533Y-182937216D01*
X152202179Y-182773284D01*
X152260674Y-182593256D01*
X152280460Y-182405000D01*
X152260674Y-182216744D01*
X152202179Y-182036716D01*
X152107533Y-181872784D01*
X152067510Y-181828334D01*
X152032350Y-181789284D01*
X152002120Y-181726292D01*
X152000500Y-181706312D01*
X152000500Y-181653687D01*
X152020185Y-181586648D01*
X152032350Y-181570715D01*
X152066710Y-181532554D01*
X152107533Y-181487216D01*
X152202179Y-181323284D01*
X152260674Y-181143256D01*
X152280460Y-180955000D01*
X152260674Y-180766744D01*
X152202179Y-180586716D01*
X152107533Y-180422784D01*
X151980871Y-180282112D01*
X151980870Y-180282111D01*
X151827734Y-180170851D01*
X151827729Y-180170848D01*
X151654807Y-180093857D01*
X151654802Y-180093855D01*
X151509001Y-180062865D01*
X151469646Y-180054500D01*
X151280354Y-180054500D01*
X151230375Y-180065123D01*
X151095199Y-180093855D01*
X150977333Y-180146333D01*
X150908083Y-180155617D01*
X150844806Y-180125989D01*
X150807593Y-180066854D01*
X150808258Y-179996987D01*
X150839214Y-179945374D01*
X155029421Y-175755167D01*
X155090742Y-175721684D01*
X155160434Y-175726668D01*
X155189985Y-175742532D01*
X155247265Y-175784148D01*
X155247270Y-175784151D01*
X155420192Y-175861142D01*
X155420197Y-175861144D01*
X155605354Y-175900500D01*
X155605355Y-175900500D01*
X155794644Y-175900500D01*
X155794646Y-175900500D01*
X155979803Y-175861144D01*
X156152730Y-175784151D01*
X156305871Y-175672888D01*
X156432533Y-175532216D01*
X156527179Y-175368284D01*
X156585674Y-175188256D01*
X156605460Y-175000000D01*
X156585674Y-174811744D01*
X156527179Y-174631716D01*
X156432533Y-174467784D01*
X156305871Y-174327112D01*
X156305870Y-174327111D01*
X156152734Y-174215851D01*
X156152729Y-174215848D01*
X155979807Y-174138857D01*
X155979802Y-174138855D01*
X155834001Y-174107865D01*
X155794646Y-174099500D01*
X155605354Y-174099500D01*
X155572897Y-174106398D01*
X155420197Y-174138855D01*
X155420192Y-174138857D01*
X155247270Y-174215848D01*
X155247265Y-174215851D01*
X155094130Y-174327110D01*
X155094126Y-174327114D01*
X155088400Y-174333474D01*
X155028913Y-174370121D01*
X154996252Y-174374500D01*
X154838389Y-174374500D01*
X154777971Y-174386518D01*
X154717548Y-174398537D01*
X154717543Y-174398538D01*
X154683546Y-174412620D01*
X154670397Y-174418067D01*
X154648169Y-174427274D01*
X154603713Y-174445688D01*
X154593557Y-174452475D01*
X154593449Y-174452547D01*
X154501268Y-174514140D01*
X154457705Y-174557703D01*
X154414142Y-174601267D01*
X145879144Y-183136264D01*
X145879138Y-183136272D01*
X145810690Y-183238708D01*
X145810688Y-183238713D01*
X145783025Y-183305499D01*
X145783025Y-183305500D01*
X145763538Y-183352545D01*
X145763535Y-183352555D01*
X145739500Y-183473389D01*
X145739500Y-183649773D01*
X145719815Y-183716812D01*
X145686623Y-183751348D01*
X145493597Y-183886505D01*
X145326508Y-184053594D01*
X145196269Y-184239595D01*
X145141692Y-184283219D01*
X145072193Y-184290412D01*
X145009839Y-184258890D01*
X144993119Y-184239594D01*
X144863113Y-184053926D01*
X144863108Y-184053920D01*
X144696082Y-183886894D01*
X144502578Y-183751399D01*
X144288492Y-183651570D01*
X144288486Y-183651567D01*
X144075000Y-183594364D01*
X144075000Y-184491988D01*
X144017993Y-184459075D01*
X143890826Y-184425000D01*
X143759174Y-184425000D01*
X143632007Y-184459075D01*
X143575000Y-184491988D01*
X143575000Y-183594364D01*
X143574999Y-183594364D01*
X143361513Y-183651567D01*
X143361507Y-183651570D01*
X143147422Y-183751399D01*
X143147420Y-183751400D01*
X142953926Y-183886886D01*
X142953920Y-183886891D01*
X142786891Y-184053920D01*
X142786886Y-184053926D01*
X142651400Y-184247420D01*
X142651399Y-184247422D01*
X142551570Y-184461507D01*
X142551567Y-184461513D01*
X142494364Y-184674999D01*
X142494364Y-184675000D01*
X143391988Y-184675000D01*
X143359075Y-184732007D01*
X143325000Y-184859174D01*
X143325000Y-184990826D01*
X143359075Y-185117993D01*
X143391988Y-185175000D01*
X142494364Y-185175000D01*
X142551567Y-185388486D01*
X142551570Y-185388492D01*
X142651399Y-185602578D01*
X142786894Y-185796082D01*
X142803631Y-185812819D01*
X142837116Y-185874142D01*
X142832132Y-185943834D01*
X142790260Y-185999767D01*
X142724796Y-186024184D01*
X142715950Y-186024500D01*
X139799500Y-186024500D01*
X139732461Y-186004815D01*
X139686706Y-185952011D01*
X139675500Y-185900500D01*
X139675500Y-177725153D01*
X143469693Y-177725153D01*
X143489479Y-177913409D01*
X143489480Y-177913412D01*
X143547971Y-178093430D01*
X143547974Y-178093437D01*
X143642620Y-178257369D01*
X143769282Y-178398041D01*
X143922418Y-178509301D01*
X143922423Y-178509304D01*
X144095345Y-178586295D01*
X144095350Y-178586297D01*
X144280507Y-178625653D01*
X144280508Y-178625653D01*
X144469797Y-178625653D01*
X144469799Y-178625653D01*
X144654956Y-178586297D01*
X144827883Y-178509304D01*
X144981024Y-178398041D01*
X145102170Y-178263494D01*
X145161657Y-178226846D01*
X145194320Y-178222467D01*
X147737091Y-178222467D01*
X147804130Y-178242152D01*
X147829239Y-178263493D01*
X147834965Y-178269852D01*
X147834969Y-178269856D01*
X147988104Y-178381115D01*
X147988109Y-178381118D01*
X148161031Y-178458109D01*
X148161036Y-178458111D01*
X148346193Y-178497467D01*
X148346194Y-178497467D01*
X148535483Y-178497467D01*
X148535485Y-178497467D01*
X148720642Y-178458111D01*
X148893569Y-178381118D01*
X149046710Y-178269855D01*
X149173372Y-178129183D01*
X149268018Y-177965251D01*
X149326513Y-177785223D01*
X149346299Y-177596967D01*
X149326513Y-177408711D01*
X149268018Y-177228683D01*
X149173372Y-177064751D01*
X149046710Y-176924079D01*
X149046709Y-176924078D01*
X148893573Y-176812818D01*
X148893568Y-176812815D01*
X148720646Y-176735824D01*
X148720641Y-176735822D01*
X148574840Y-176704832D01*
X148535485Y-176696467D01*
X148346193Y-176696467D01*
X148313736Y-176703365D01*
X148161036Y-176735822D01*
X148161031Y-176735824D01*
X147988109Y-176812815D01*
X147988104Y-176812818D01*
X147834969Y-176924077D01*
X147834965Y-176924081D01*
X147829239Y-176930441D01*
X147769752Y-176967088D01*
X147737091Y-176971467D01*
X144910105Y-176971467D01*
X144843066Y-176951782D01*
X144837220Y-176947786D01*
X144827883Y-176941002D01*
X144827881Y-176941001D01*
X144827882Y-176941001D01*
X144654960Y-176864010D01*
X144654955Y-176864008D01*
X144509154Y-176833018D01*
X144469799Y-176824653D01*
X144280507Y-176824653D01*
X144248050Y-176831551D01*
X144095350Y-176864008D01*
X144095345Y-176864010D01*
X143922423Y-176941001D01*
X143922418Y-176941004D01*
X143769282Y-177052264D01*
X143642619Y-177192938D01*
X143547974Y-177356868D01*
X143547971Y-177356875D01*
X143531129Y-177408711D01*
X143489479Y-177536897D01*
X143469693Y-177725153D01*
X139675500Y-177725153D01*
X139675500Y-171547519D01*
X139695185Y-171480480D01*
X139747989Y-171434725D01*
X139799103Y-171423520D01*
X147050388Y-171400501D01*
X147050782Y-171400500D01*
X147186839Y-171400500D01*
X147216068Y-171396482D01*
X147457965Y-171363235D01*
X147721492Y-171289398D01*
X147972511Y-171180365D01*
X147975834Y-171178343D01*
X148043341Y-171160327D01*
X148109871Y-171181667D01*
G37*
%TD.AperFunction*%
%TD*%
%TA.AperFunction,Conductor*%
%TO.N,GND*%
G36*
X144867301Y-61242369D02*
G01*
X144873779Y-61248401D01*
X149487412Y-65862034D01*
X149520897Y-65923357D01*
X149523731Y-65949715D01*
X149523731Y-80906675D01*
X149504046Y-80973714D01*
X149487412Y-80994356D01*
X149414834Y-81066933D01*
X149414825Y-81066945D01*
X149343734Y-81138035D01*
X149281136Y-81246461D01*
X149248731Y-81367398D01*
X149248731Y-81961294D01*
X149229046Y-82028333D01*
X149176242Y-82074088D01*
X149107084Y-82084032D01*
X149043528Y-82055007D01*
X149037050Y-82048975D01*
X149011161Y-82023086D01*
X149011159Y-82023084D01*
X148871019Y-81921266D01*
X148716676Y-81842625D01*
X148551932Y-81789096D01*
X148551930Y-81789095D01*
X148551929Y-81789095D01*
X148420502Y-81768279D01*
X148380842Y-81761998D01*
X148207620Y-81761998D01*
X148167959Y-81768279D01*
X148036533Y-81789095D01*
X147871783Y-81842626D01*
X147717442Y-81921266D01*
X147662349Y-81961294D01*
X147577303Y-82023084D01*
X147577301Y-82023086D01*
X147577300Y-82023086D01*
X147454819Y-82145567D01*
X147454812Y-82145576D01*
X147394548Y-82228521D01*
X147339218Y-82271187D01*
X147269605Y-82277165D01*
X147207810Y-82244559D01*
X147193914Y-82228521D01*
X147146130Y-82162755D01*
X147133645Y-82145570D01*
X147011159Y-82023084D01*
X146871019Y-81921266D01*
X146716676Y-81842625D01*
X146551932Y-81789096D01*
X146551930Y-81789095D01*
X146551929Y-81789095D01*
X146420502Y-81768279D01*
X146380842Y-81761998D01*
X146207620Y-81761998D01*
X146167959Y-81768279D01*
X146036533Y-81789095D01*
X145871783Y-81842626D01*
X145717442Y-81921266D01*
X145577304Y-82023083D01*
X145478488Y-82121899D01*
X145417165Y-82155383D01*
X145347473Y-82150399D01*
X145291540Y-82108527D01*
X145290490Y-82107104D01*
X145247677Y-82048178D01*
X145108552Y-81909053D01*
X144949374Y-81793402D01*
X144774066Y-81704079D01*
X144586936Y-81643276D01*
X144544231Y-81636512D01*
X144544231Y-83237220D01*
X144467925Y-83193165D01*
X144353475Y-83162498D01*
X144234987Y-83162498D01*
X144120537Y-83193165D01*
X144044231Y-83237220D01*
X144044231Y-81636512D01*
X144044230Y-81636512D01*
X144001525Y-81643276D01*
X143814392Y-81704080D01*
X143695025Y-81764900D01*
X143626356Y-81777796D01*
X143561616Y-81751519D01*
X143521359Y-81694412D01*
X143514731Y-81654415D01*
X143514731Y-73999201D01*
X143534416Y-73932162D01*
X143587220Y-73886407D01*
X143652615Y-73875981D01*
X143779228Y-73890247D01*
X143779231Y-73890247D01*
X143779234Y-73890247D01*
X143947287Y-73871312D01*
X143947290Y-73871311D01*
X144106921Y-73815454D01*
X144106923Y-73815452D01*
X144106925Y-73815452D01*
X144106928Y-73815450D01*
X144250115Y-73725479D01*
X144250116Y-73725478D01*
X144250121Y-73725475D01*
X144369708Y-73605888D01*
X144378042Y-73592625D01*
X144459683Y-73462695D01*
X144459685Y-73462692D01*
X144459685Y-73462690D01*
X144459687Y-73462688D01*
X144515544Y-73303057D01*
X144515544Y-73303056D01*
X144515545Y-73303054D01*
X144534480Y-73135000D01*
X144534480Y-73128033D01*
X144536542Y-73128033D01*
X144546849Y-73069109D01*
X144570343Y-73036343D01*
X145475253Y-72131433D01*
X145536574Y-72097950D01*
X145576815Y-72095896D01*
X145591884Y-72097594D01*
X145591885Y-72097593D01*
X145591886Y-72097594D01*
X145591887Y-72097594D01*
X145759940Y-72078659D01*
X145759943Y-72078658D01*
X145919574Y-72022801D01*
X145919576Y-72022799D01*
X145919578Y-72022799D01*
X145919581Y-72022797D01*
X146062768Y-71932826D01*
X146062769Y-71932825D01*
X146062774Y-71932822D01*
X146182361Y-71813235D01*
X146272336Y-71670042D01*
X146272338Y-71670039D01*
X146272338Y-71670037D01*
X146272340Y-71670035D01*
X146328197Y-71510404D01*
X146328197Y-71510403D01*
X146328198Y-71510401D01*
X146347133Y-71342347D01*
X146347133Y-71342342D01*
X146328198Y-71174288D01*
X146272338Y-71014650D01*
X146272336Y-71014647D01*
X146182365Y-70871460D01*
X146182360Y-70871454D01*
X146062774Y-70751868D01*
X146062768Y-70751863D01*
X145919581Y-70661892D01*
X145919578Y-70661890D01*
X145759940Y-70606030D01*
X145591887Y-70587096D01*
X145591881Y-70587096D01*
X145423827Y-70606030D01*
X145264189Y-70661890D01*
X145264186Y-70661892D01*
X145120999Y-70751863D01*
X145120993Y-70751868D01*
X145001407Y-70871454D01*
X145001402Y-70871460D01*
X144911431Y-71014647D01*
X144911429Y-71014650D01*
X144855569Y-71174288D01*
X144836635Y-71342342D01*
X144836635Y-71342349D01*
X144838332Y-71357412D01*
X144826277Y-71426233D01*
X144802793Y-71458975D01*
X143913836Y-72347932D01*
X143852513Y-72381417D01*
X143812273Y-72383471D01*
X143779236Y-72379749D01*
X143779227Y-72379749D01*
X143652614Y-72394014D01*
X143583792Y-72381959D01*
X143532413Y-72334610D01*
X143514731Y-72270794D01*
X143514731Y-72190972D01*
X143534416Y-72123933D01*
X143551050Y-72103291D01*
X143995288Y-71659053D01*
X144567093Y-71087248D01*
X144629693Y-70978820D01*
X144662098Y-70857885D01*
X144662098Y-70732683D01*
X144662098Y-61336082D01*
X144681783Y-61269043D01*
X144734587Y-61223288D01*
X144803745Y-61213344D01*
X144867301Y-61242369D01*
G37*
%TD.AperFunction*%
%TA.AperFunction,Conductor*%
G36*
X156434844Y-51884355D02*
G01*
X156490778Y-51926227D01*
X156496504Y-51934564D01*
X156528752Y-51985885D01*
X156528754Y-51985888D01*
X156607412Y-52064546D01*
X156640897Y-52125869D01*
X156643731Y-52152227D01*
X156643731Y-53656676D01*
X156624046Y-53723715D01*
X156607412Y-53744357D01*
X153638911Y-56712857D01*
X153605036Y-56736894D01*
X153601378Y-56738655D01*
X153458175Y-56828636D01*
X153338589Y-56948222D01*
X153338584Y-56948228D01*
X153248613Y-57091415D01*
X153248611Y-57091418D01*
X153192751Y-57251056D01*
X153173817Y-57419110D01*
X153173817Y-57419115D01*
X153192752Y-57587170D01*
X153232073Y-57699544D01*
X153235634Y-57769323D01*
X153200905Y-57829950D01*
X153138912Y-57862177D01*
X153115031Y-57864498D01*
X150466460Y-57864498D01*
X150399421Y-57844813D01*
X150378779Y-57828179D01*
X150300121Y-57749521D01*
X150300115Y-57749516D01*
X150156928Y-57659545D01*
X150156925Y-57659543D01*
X149997287Y-57603683D01*
X149829234Y-57584749D01*
X149829228Y-57584749D01*
X149661174Y-57603683D01*
X149501536Y-57659543D01*
X149501533Y-57659545D01*
X149358346Y-57749516D01*
X149358340Y-57749521D01*
X149238754Y-57869107D01*
X149238749Y-57869113D01*
X149148778Y-58012300D01*
X149148776Y-58012303D01*
X149092916Y-58171941D01*
X149073982Y-58339995D01*
X149073982Y-58340000D01*
X149092917Y-58508057D01*
X149092917Y-58508059D01*
X149147674Y-58664543D01*
X149151236Y-58734322D01*
X149116508Y-58794949D01*
X149054514Y-58827177D01*
X149030633Y-58829498D01*
X147890117Y-58829498D01*
X147823078Y-58809813D01*
X147777323Y-58757009D01*
X147767379Y-58687851D01*
X147796404Y-58624295D01*
X147802436Y-58617817D01*
X148197797Y-58222456D01*
X149403784Y-57016467D01*
X149465105Y-56982984D01*
X149534796Y-56987968D01*
X149544441Y-56994166D01*
X149545275Y-56992436D01*
X149551537Y-56995451D01*
X149551541Y-56995454D01*
X149711172Y-57051311D01*
X149753186Y-57056045D01*
X149879228Y-57070247D01*
X149879231Y-57070247D01*
X149879234Y-57070247D01*
X150047287Y-57051312D01*
X150047290Y-57051311D01*
X150206921Y-56995454D01*
X150206923Y-56995452D01*
X150206925Y-56995452D01*
X150206928Y-56995450D01*
X150350115Y-56905479D01*
X150350116Y-56905478D01*
X150350121Y-56905475D01*
X150469708Y-56785888D01*
X150496331Y-56743518D01*
X150559683Y-56642695D01*
X150559685Y-56642692D01*
X150559685Y-56642690D01*
X150559687Y-56642688D01*
X150615544Y-56483057D01*
X150615544Y-56483056D01*
X150615545Y-56483054D01*
X150634480Y-56315000D01*
X150634480Y-56314995D01*
X150615545Y-56146941D01*
X150581464Y-56049543D01*
X150559687Y-55987308D01*
X150559686Y-55987307D01*
X150559685Y-55987303D01*
X150559683Y-55987300D01*
X150469712Y-55844113D01*
X150469707Y-55844107D01*
X150391050Y-55765450D01*
X150357565Y-55704127D01*
X150354731Y-55677769D01*
X150354731Y-54208013D01*
X150374416Y-54140974D01*
X150391046Y-54120336D01*
X150598797Y-53912584D01*
X150660118Y-53879101D01*
X150729809Y-53884085D01*
X150785743Y-53925956D01*
X150791470Y-53934295D01*
X150798754Y-53945888D01*
X150918340Y-54065474D01*
X150918346Y-54065479D01*
X151061533Y-54155450D01*
X151061536Y-54155452D01*
X151061540Y-54155453D01*
X151061541Y-54155454D01*
X151064965Y-54156652D01*
X151221174Y-54211312D01*
X151389228Y-54230247D01*
X151389231Y-54230247D01*
X151389234Y-54230247D01*
X151557287Y-54211312D01*
X151598297Y-54196962D01*
X151716921Y-54155454D01*
X151716923Y-54155452D01*
X151716925Y-54155452D01*
X151716928Y-54155450D01*
X151860115Y-54065479D01*
X151860116Y-54065478D01*
X151860121Y-54065475D01*
X151938779Y-53986817D01*
X152000102Y-53953332D01*
X152026460Y-53950498D01*
X154131830Y-53950498D01*
X154131832Y-53950498D01*
X154252767Y-53918093D01*
X154361195Y-53855493D01*
X156303832Y-51912854D01*
X156365153Y-51879371D01*
X156434844Y-51884355D01*
G37*
%TD.AperFunction*%
%TA.AperFunction,Conductor*%
G36*
X147949934Y-29415001D02*
G01*
X147956412Y-29421033D01*
X150247999Y-31712620D01*
X150248009Y-31712631D01*
X150252339Y-31716961D01*
X150252340Y-31716962D01*
X150340871Y-31805493D01*
X150340873Y-31805494D01*
X150340877Y-31805497D01*
X150418821Y-31850498D01*
X150418822Y-31850498D01*
X150444294Y-31865203D01*
X150449299Y-31868093D01*
X150449302Y-31868094D01*
X150449305Y-31868095D01*
X150529922Y-31889697D01*
X150570234Y-31900499D01*
X150570235Y-31900499D01*
X150703032Y-31900499D01*
X150703048Y-31900498D01*
X151220910Y-31900498D01*
X151287949Y-31920183D01*
X151308591Y-31936817D01*
X151521807Y-32150033D01*
X151555292Y-32211356D01*
X151550308Y-32281048D01*
X151508436Y-32336981D01*
X151500100Y-32342707D01*
X151473339Y-32359522D01*
X151353754Y-32479107D01*
X151353749Y-32479113D01*
X151263778Y-32622300D01*
X151263776Y-32622303D01*
X151207916Y-32781941D01*
X151188982Y-32949995D01*
X151188982Y-32950000D01*
X151207916Y-33118054D01*
X151263776Y-33277692D01*
X151263778Y-33277695D01*
X151353749Y-33420882D01*
X151353754Y-33420888D01*
X151473340Y-33540474D01*
X151473346Y-33540479D01*
X151616533Y-33630450D01*
X151616536Y-33630452D01*
X151616540Y-33630453D01*
X151616541Y-33630454D01*
X151653653Y-33643440D01*
X151776174Y-33686312D01*
X151944228Y-33705247D01*
X151944229Y-33705247D01*
X151944229Y-33705246D01*
X151944231Y-33705247D01*
X151982038Y-33700986D01*
X152050858Y-33713039D01*
X152083604Y-33736525D01*
X157132412Y-38785332D01*
X157165897Y-38846655D01*
X157168731Y-38873013D01*
X157168731Y-41638769D01*
X157149046Y-41705808D01*
X157096242Y-41751563D01*
X157027084Y-41761507D01*
X156963528Y-41732482D01*
X156957050Y-41726450D01*
X156864024Y-41633424D01*
X156864018Y-41633419D01*
X156720831Y-41543448D01*
X156720828Y-41543446D01*
X156561190Y-41487586D01*
X156393137Y-41468652D01*
X156393131Y-41468652D01*
X156225079Y-41487586D01*
X156218288Y-41489137D01*
X156217843Y-41487187D01*
X156157867Y-41490246D01*
X156099017Y-41457325D01*
X156056918Y-41415226D01*
X156023433Y-41353903D01*
X156021379Y-41313662D01*
X156023077Y-41298595D01*
X156015220Y-41228866D01*
X156004142Y-41130538D01*
X155948282Y-40970900D01*
X155948280Y-40970897D01*
X155858309Y-40827710D01*
X155858304Y-40827704D01*
X155738718Y-40708118D01*
X155738712Y-40708113D01*
X155595525Y-40618142D01*
X155595522Y-40618140D01*
X155435884Y-40562280D01*
X155267831Y-40543346D01*
X155267825Y-40543346D01*
X155099771Y-40562280D01*
X154940133Y-40618140D01*
X154940130Y-40618142D01*
X154796943Y-40708113D01*
X154796937Y-40708118D01*
X154677351Y-40827704D01*
X154677346Y-40827710D01*
X154587375Y-40970897D01*
X154587373Y-40970900D01*
X154531513Y-41130539D01*
X154516366Y-41264976D01*
X154489299Y-41329390D01*
X154431704Y-41368945D01*
X154361867Y-41371082D01*
X154305465Y-41338773D01*
X154122050Y-41155358D01*
X154088565Y-41094035D01*
X154086511Y-41081560D01*
X154085123Y-41069245D01*
X154081592Y-41037903D01*
X154070713Y-40941343D01*
X154070712Y-40941340D01*
X154014855Y-40781709D01*
X154014854Y-40781708D01*
X154014853Y-40781704D01*
X154014851Y-40781701D01*
X153924880Y-40638514D01*
X153924875Y-40638508D01*
X153805289Y-40518922D01*
X153805283Y-40518917D01*
X153662096Y-40428946D01*
X153662093Y-40428944D01*
X153502455Y-40373084D01*
X153334402Y-40354150D01*
X153334396Y-40354150D01*
X153166342Y-40373084D01*
X153006704Y-40428944D01*
X153006701Y-40428946D01*
X152863514Y-40518917D01*
X152863508Y-40518922D01*
X152743922Y-40638508D01*
X152743917Y-40638514D01*
X152653946Y-40781701D01*
X152653944Y-40781704D01*
X152598084Y-40941342D01*
X152579150Y-41109396D01*
X152579150Y-41109401D01*
X152598084Y-41277455D01*
X152653944Y-41437093D01*
X152653946Y-41437096D01*
X152743917Y-41580283D01*
X152743922Y-41580289D01*
X152863508Y-41699875D01*
X152863514Y-41699880D01*
X153006701Y-41789851D01*
X153006704Y-41789853D01*
X153006708Y-41789854D01*
X153006709Y-41789855D01*
X153079312Y-41815259D01*
X153166342Y-41845713D01*
X153334396Y-41864648D01*
X153334398Y-41864648D01*
X153334398Y-41864647D01*
X153334399Y-41864648D01*
X153395824Y-41857726D01*
X153464643Y-41869779D01*
X153471703Y-41873557D01*
X153472231Y-41873862D01*
X153472235Y-41873863D01*
X153479738Y-41876971D01*
X153479316Y-41877989D01*
X153527697Y-41905923D01*
X157957412Y-46335638D01*
X157990897Y-46396961D01*
X157993731Y-46423319D01*
X157993731Y-51065713D01*
X157974046Y-51132752D01*
X157921242Y-51178507D01*
X157852084Y-51188451D01*
X157788528Y-51159426D01*
X157764738Y-51131686D01*
X157709709Y-51044109D01*
X157590121Y-50924521D01*
X157590115Y-50924516D01*
X157446928Y-50834545D01*
X157446925Y-50834543D01*
X157287287Y-50778683D01*
X157119234Y-50759749D01*
X157119227Y-50759749D01*
X156947780Y-50779066D01*
X156878958Y-50767011D01*
X156828905Y-50721819D01*
X156787873Y-50656518D01*
X156668286Y-50536931D01*
X156668280Y-50536926D01*
X156525093Y-50446955D01*
X156525090Y-50446953D01*
X156365452Y-50391093D01*
X156197399Y-50372159D01*
X156197393Y-50372159D01*
X156029338Y-50391094D01*
X155974118Y-50410416D01*
X155904339Y-50413977D01*
X155843712Y-50379248D01*
X155816122Y-50334328D01*
X155794686Y-50273066D01*
X155794683Y-50273061D01*
X155704712Y-50129874D01*
X155704707Y-50129868D01*
X155585121Y-50010282D01*
X155585115Y-50010277D01*
X155441928Y-49920306D01*
X155441925Y-49920304D01*
X155282287Y-49864444D01*
X155114234Y-49845510D01*
X155114226Y-49845510D01*
X155063188Y-49851260D01*
X154994366Y-49839205D01*
X154942988Y-49791855D01*
X154932263Y-49768990D01*
X154932213Y-49768849D01*
X154931800Y-49767667D01*
X154931798Y-49767664D01*
X154931796Y-49767659D01*
X154841825Y-49624472D01*
X154841820Y-49624466D01*
X154722234Y-49504880D01*
X154722228Y-49504875D01*
X154579041Y-49414904D01*
X154579038Y-49414902D01*
X154419400Y-49359042D01*
X154251347Y-49340108D01*
X154251341Y-49340108D01*
X154083285Y-49359043D01*
X154019448Y-49381380D01*
X153949669Y-49384941D01*
X153889042Y-49350211D01*
X153881551Y-49341655D01*
X153877383Y-49336429D01*
X153757798Y-49216844D01*
X153757792Y-49216839D01*
X153614605Y-49126868D01*
X153614602Y-49126866D01*
X153454964Y-49071006D01*
X153286911Y-49052072D01*
X153286905Y-49052072D01*
X153118851Y-49071006D01*
X152959213Y-49126866D01*
X152959210Y-49126868D01*
X152816023Y-49216839D01*
X152816017Y-49216844D01*
X152696431Y-49336430D01*
X152696426Y-49336436D01*
X152606455Y-49479623D01*
X152606453Y-49479626D01*
X152550593Y-49639264D01*
X152531659Y-49807318D01*
X152531659Y-49807323D01*
X152550593Y-49975377D01*
X152606453Y-50135015D01*
X152606455Y-50135018D01*
X152696426Y-50278205D01*
X152696431Y-50278211D01*
X152775089Y-50356869D01*
X152808574Y-50418192D01*
X152811408Y-50444550D01*
X152811408Y-51126208D01*
X152791723Y-51193247D01*
X152775089Y-51213889D01*
X152650799Y-51338179D01*
X152589476Y-51371664D01*
X152563118Y-51374498D01*
X150786347Y-51374498D01*
X150786331Y-51374497D01*
X150778735Y-51374497D01*
X150768731Y-51374497D01*
X150701692Y-51354812D01*
X150655937Y-51302008D01*
X150644731Y-51250497D01*
X150644731Y-47661211D01*
X150664416Y-47594172D01*
X150681050Y-47573530D01*
X150705337Y-47549243D01*
X150737158Y-47517422D01*
X150737162Y-47517416D01*
X150827133Y-47374229D01*
X150827135Y-47374226D01*
X150827135Y-47374224D01*
X150827137Y-47374222D01*
X150882994Y-47214591D01*
X150882994Y-47214590D01*
X150882995Y-47214588D01*
X150901930Y-47046534D01*
X150901930Y-47046529D01*
X150882995Y-46878475D01*
X150827135Y-46718837D01*
X150827133Y-46718834D01*
X150737162Y-46575647D01*
X150737157Y-46575641D01*
X150617571Y-46456055D01*
X150617565Y-46456050D01*
X150474378Y-46366079D01*
X150474375Y-46366077D01*
X150314737Y-46310217D01*
X150146684Y-46291283D01*
X150146678Y-46291283D01*
X149978624Y-46310217D01*
X149818986Y-46366077D01*
X149818983Y-46366079D01*
X149675796Y-46456050D01*
X149675790Y-46456055D01*
X149556204Y-46575641D01*
X149556199Y-46575647D01*
X149466228Y-46718834D01*
X149466226Y-46718837D01*
X149410366Y-46878475D01*
X149397720Y-46990721D01*
X149373030Y-47049476D01*
X149393477Y-47081291D01*
X149397720Y-47102343D01*
X149410366Y-47214587D01*
X149466226Y-47374226D01*
X149466228Y-47374229D01*
X149556199Y-47517416D01*
X149556204Y-47517422D01*
X149657412Y-47618630D01*
X149690897Y-47679953D01*
X149693731Y-47706311D01*
X149693731Y-50464090D01*
X149674046Y-50531129D01*
X149621242Y-50576884D01*
X149555848Y-50587310D01*
X149400004Y-50569751D01*
X149399996Y-50569751D01*
X149288383Y-50582326D01*
X149219561Y-50570271D01*
X149168182Y-50522922D01*
X149150500Y-50459106D01*
X149150500Y-47116226D01*
X149170185Y-47049187D01*
X149175336Y-47044723D01*
X149152360Y-46998231D01*
X149150500Y-46976837D01*
X149150500Y-46217603D01*
X149150500Y-46217602D01*
X149118095Y-46096667D01*
X149055495Y-45988239D01*
X148966964Y-45899708D01*
X148105588Y-45038332D01*
X148072103Y-44977009D01*
X148077087Y-44907317D01*
X148118959Y-44851384D01*
X148127278Y-44845670D01*
X148215121Y-44790475D01*
X148334708Y-44670888D01*
X148424683Y-44527695D01*
X148424685Y-44527692D01*
X148424685Y-44527690D01*
X148424687Y-44527688D01*
X148480544Y-44368057D01*
X148480544Y-44368056D01*
X148480545Y-44368054D01*
X148499480Y-44200000D01*
X148499480Y-44199995D01*
X148480545Y-44031941D01*
X148450091Y-43944911D01*
X148424687Y-43872308D01*
X148424686Y-43872307D01*
X148424685Y-43872303D01*
X148424683Y-43872300D01*
X148334712Y-43729113D01*
X148334707Y-43729107D01*
X148215121Y-43609521D01*
X148215115Y-43609516D01*
X148071928Y-43519545D01*
X148071925Y-43519543D01*
X147912287Y-43463683D01*
X147744234Y-43444749D01*
X147744232Y-43444749D01*
X147744231Y-43444749D01*
X147729160Y-43446446D01*
X147660339Y-43434390D01*
X147627599Y-43410907D01*
X147469552Y-43252860D01*
X147436067Y-43191537D01*
X147434013Y-43151297D01*
X147436743Y-43127073D01*
X147435000Y-43111608D01*
X147420076Y-42979150D01*
X147417807Y-42959014D01*
X147410653Y-42938571D01*
X147407091Y-42868795D01*
X147441819Y-42808166D01*
X147503811Y-42775938D01*
X147573387Y-42782341D01*
X147628456Y-42825344D01*
X147632688Y-42831643D01*
X147663940Y-42881379D01*
X147663942Y-42881382D01*
X147783528Y-43000968D01*
X147783534Y-43000973D01*
X147926721Y-43090944D01*
X147926724Y-43090946D01*
X147926728Y-43090947D01*
X147926729Y-43090948D01*
X147985772Y-43111608D01*
X148086362Y-43146806D01*
X148254416Y-43165741D01*
X148254419Y-43165741D01*
X148254422Y-43165741D01*
X148422475Y-43146806D01*
X148422478Y-43146805D01*
X148582109Y-43090948D01*
X148692875Y-43021348D01*
X148760109Y-43002348D01*
X148826945Y-43022715D01*
X148846527Y-43038661D01*
X148848340Y-43040474D01*
X148848346Y-43040479D01*
X148991533Y-43130450D01*
X148991536Y-43130452D01*
X148991540Y-43130453D01*
X148991541Y-43130454D01*
X149038270Y-43146805D01*
X149151174Y-43186312D01*
X149319228Y-43205247D01*
X149319231Y-43205247D01*
X149319234Y-43205247D01*
X149487287Y-43186312D01*
X149525528Y-43172931D01*
X149646921Y-43130454D01*
X149646923Y-43130452D01*
X149646925Y-43130452D01*
X149646928Y-43130450D01*
X149790115Y-43040479D01*
X149790116Y-43040478D01*
X149790121Y-43040475D01*
X149909708Y-42920888D01*
X149920095Y-42904357D01*
X149999683Y-42777695D01*
X149999685Y-42777692D01*
X149999685Y-42777690D01*
X149999687Y-42777688D01*
X150055544Y-42618057D01*
X150055544Y-42618056D01*
X150055545Y-42618054D01*
X150074480Y-42450000D01*
X150074480Y-42449995D01*
X150055545Y-42281941D01*
X149999685Y-42122303D01*
X149999683Y-42122300D01*
X149909712Y-41979113D01*
X149909707Y-41979107D01*
X149790121Y-41859521D01*
X149790115Y-41859516D01*
X149646928Y-41769545D01*
X149646925Y-41769543D01*
X149487287Y-41713683D01*
X149319234Y-41694749D01*
X149319232Y-41694749D01*
X149319231Y-41694749D01*
X149304160Y-41696446D01*
X149235339Y-41684390D01*
X149202599Y-41660907D01*
X147781050Y-40239358D01*
X147747565Y-40178035D01*
X147744731Y-40151677D01*
X147744731Y-36537342D01*
X148883982Y-36537342D01*
X148883982Y-36537347D01*
X148902916Y-36705401D01*
X148958776Y-36865039D01*
X148958778Y-36865042D01*
X149048749Y-37008229D01*
X149048754Y-37008235D01*
X149168340Y-37127821D01*
X149168346Y-37127826D01*
X149311533Y-37217797D01*
X149311536Y-37217799D01*
X149311540Y-37217800D01*
X149311541Y-37217801D01*
X149384144Y-37243205D01*
X149471174Y-37273659D01*
X149564822Y-37284210D01*
X149639231Y-37292594D01*
X149654295Y-37290896D01*
X149723115Y-37302949D01*
X149755862Y-37326435D01*
X150109920Y-37680493D01*
X150218348Y-37743093D01*
X150339283Y-37775498D01*
X150464485Y-37775498D01*
X152019815Y-37775498D01*
X152086854Y-37795183D01*
X152132609Y-37847987D01*
X152143036Y-37885617D01*
X152145265Y-37905404D01*
X152201123Y-38065039D01*
X152201125Y-38065042D01*
X152291096Y-38208229D01*
X152291101Y-38208235D01*
X152410687Y-38327821D01*
X152410693Y-38327826D01*
X152553880Y-38417797D01*
X152553883Y-38417799D01*
X152553887Y-38417800D01*
X152553888Y-38417801D01*
X152626491Y-38443205D01*
X152713521Y-38473659D01*
X152881575Y-38492594D01*
X152881578Y-38492594D01*
X152881581Y-38492594D01*
X153049634Y-38473659D01*
X153049637Y-38473658D01*
X153209268Y-38417801D01*
X153209270Y-38417799D01*
X153209272Y-38417799D01*
X153209275Y-38417797D01*
X153352462Y-38327826D01*
X153352463Y-38327825D01*
X153352468Y-38327822D01*
X153472055Y-38208235D01*
X153562030Y-38065042D01*
X153562032Y-38065039D01*
X153562032Y-38065037D01*
X153562034Y-38065035D01*
X153617891Y-37905404D01*
X153617891Y-37905403D01*
X153617892Y-37905401D01*
X153636827Y-37737347D01*
X153636827Y-37737342D01*
X153617892Y-37569288D01*
X153562032Y-37409650D01*
X153562030Y-37409647D01*
X153472059Y-37266460D01*
X153472054Y-37266454D01*
X153352468Y-37146868D01*
X153352462Y-37146863D01*
X153209275Y-37056892D01*
X153209272Y-37056890D01*
X153049634Y-37001030D01*
X152881581Y-36982096D01*
X152881579Y-36982096D01*
X152881578Y-36982096D01*
X152866507Y-36983793D01*
X152797686Y-36971737D01*
X152764946Y-36948254D01*
X152736196Y-36919504D01*
X152736195Y-36919503D01*
X152627767Y-36856903D01*
X152627768Y-36856903D01*
X152587455Y-36846101D01*
X152506832Y-36824498D01*
X152506830Y-36824498D01*
X150650205Y-36824498D01*
X150583166Y-36804813D01*
X150562524Y-36788179D01*
X150428321Y-36653976D01*
X150394836Y-36592653D01*
X150392782Y-36552412D01*
X150394480Y-36537345D01*
X150384181Y-36445938D01*
X150375545Y-36369288D01*
X150337102Y-36259424D01*
X150319687Y-36209655D01*
X150319686Y-36209654D01*
X150319685Y-36209650D01*
X150319683Y-36209647D01*
X150229712Y-36066460D01*
X150229707Y-36066454D01*
X150110121Y-35946868D01*
X150110115Y-35946863D01*
X149966928Y-35856892D01*
X149966925Y-35856890D01*
X149807287Y-35801030D01*
X149639234Y-35782096D01*
X149639228Y-35782096D01*
X149471174Y-35801030D01*
X149311536Y-35856890D01*
X149311533Y-35856892D01*
X149168346Y-35946863D01*
X149168340Y-35946868D01*
X149048754Y-36066454D01*
X149048749Y-36066460D01*
X148958778Y-36209647D01*
X148958776Y-36209650D01*
X148902916Y-36369288D01*
X148883982Y-36537342D01*
X147744731Y-36537342D01*
X147744731Y-29508714D01*
X147764416Y-29441675D01*
X147817220Y-29395920D01*
X147886378Y-29385976D01*
X147949934Y-29415001D01*
G37*
%TD.AperFunction*%
%TA.AperFunction,Conductor*%
G36*
X156446223Y-13384770D02*
G01*
X156491978Y-13437574D01*
X156501922Y-13506732D01*
X156490904Y-13542887D01*
X156488776Y-13547304D01*
X156432916Y-13706941D01*
X156413982Y-13874995D01*
X156413982Y-13875000D01*
X156432916Y-14043054D01*
X156488776Y-14202692D01*
X156488778Y-14202695D01*
X156578749Y-14345882D01*
X156578754Y-14345888D01*
X156657412Y-14424546D01*
X156690897Y-14485869D01*
X156693731Y-14512227D01*
X156693731Y-15526676D01*
X156674046Y-15593715D01*
X156657412Y-15614357D01*
X155886377Y-16385391D01*
X155825054Y-16418876D01*
X155755362Y-16413892D01*
X155699429Y-16372020D01*
X155681655Y-16338665D01*
X155649688Y-16247311D01*
X155649683Y-16247300D01*
X155559712Y-16104113D01*
X155559707Y-16104107D01*
X155440121Y-15984521D01*
X155440115Y-15984516D01*
X155296928Y-15894545D01*
X155296925Y-15894543D01*
X155137287Y-15838683D01*
X154969234Y-15819749D01*
X154969228Y-15819749D01*
X154801174Y-15838683D01*
X154641536Y-15894543D01*
X154641533Y-15894545D01*
X154498346Y-15984516D01*
X154498340Y-15984521D01*
X154419683Y-16063179D01*
X154358360Y-16096664D01*
X154332002Y-16099498D01*
X151791164Y-16099498D01*
X151724125Y-16079813D01*
X151678370Y-16027009D01*
X151668426Y-15957851D01*
X151680679Y-15919203D01*
X151728145Y-15826043D01*
X151728147Y-15826040D01*
X151785297Y-15650147D01*
X151814231Y-15467473D01*
X151814231Y-15450000D01*
X150989231Y-15450000D01*
X150989231Y-14950000D01*
X151814231Y-14950000D01*
X151814231Y-14932526D01*
X151785297Y-14749852D01*
X151728147Y-14573959D01*
X151728146Y-14573956D01*
X151644178Y-14409162D01*
X151535476Y-14259545D01*
X151535472Y-14259540D01*
X151404690Y-14128758D01*
X151404685Y-14128754D01*
X151255068Y-14020052D01*
X151090274Y-13936084D01*
X151090268Y-13936082D01*
X150914375Y-13878932D01*
X150889231Y-13874950D01*
X150889231Y-14705025D01*
X150854136Y-14669930D01*
X150774326Y-14623852D01*
X150685309Y-14600000D01*
X150593153Y-14600000D01*
X150504136Y-14623852D01*
X150424326Y-14669930D01*
X150389231Y-14705025D01*
X150389231Y-13874950D01*
X150389230Y-13874950D01*
X150364086Y-13878932D01*
X150188193Y-13936082D01*
X150188187Y-13936084D01*
X150023393Y-14020052D01*
X149873776Y-14128754D01*
X149873771Y-14128758D01*
X149742989Y-14259540D01*
X149742985Y-14259545D01*
X149634283Y-14409162D01*
X149550315Y-14573956D01*
X149550314Y-14573959D01*
X149493164Y-14749852D01*
X149464231Y-14932526D01*
X149464231Y-14950000D01*
X150289231Y-14950000D01*
X150289231Y-15450000D01*
X149464231Y-15450000D01*
X149464231Y-15467473D01*
X149493164Y-15650147D01*
X149550314Y-15826040D01*
X149550316Y-15826043D01*
X149597783Y-15919203D01*
X149610679Y-15987873D01*
X149584402Y-16052613D01*
X149527296Y-16092870D01*
X149487298Y-16099498D01*
X146331164Y-16099498D01*
X146264125Y-16079813D01*
X146218370Y-16027009D01*
X146208426Y-15957851D01*
X146220679Y-15919203D01*
X146268145Y-15826043D01*
X146268147Y-15826040D01*
X146325297Y-15650147D01*
X146354231Y-15467473D01*
X146354231Y-15450000D01*
X145529231Y-15450000D01*
X145529231Y-14950000D01*
X146354231Y-14950000D01*
X146354231Y-14932526D01*
X146325297Y-14749852D01*
X146268147Y-14573959D01*
X146268146Y-14573956D01*
X146184178Y-14409162D01*
X146075476Y-14259545D01*
X146075472Y-14259540D01*
X145944690Y-14128758D01*
X145944685Y-14128754D01*
X145795068Y-14020052D01*
X145630274Y-13936084D01*
X145630268Y-13936082D01*
X145454375Y-13878932D01*
X145429231Y-13874950D01*
X145429231Y-14705025D01*
X145394136Y-14669930D01*
X145314326Y-14623852D01*
X145225309Y-14600000D01*
X145133153Y-14600000D01*
X145044136Y-14623852D01*
X144964326Y-14669930D01*
X144929231Y-14705025D01*
X144929231Y-13874950D01*
X144929230Y-13874950D01*
X144904086Y-13878932D01*
X144728193Y-13936082D01*
X144728187Y-13936084D01*
X144563393Y-14020052D01*
X144413776Y-14128754D01*
X144413771Y-14128758D01*
X144282989Y-14259540D01*
X144282985Y-14259545D01*
X144174283Y-14409162D01*
X144090315Y-14573956D01*
X144090314Y-14573959D01*
X144033164Y-14749852D01*
X144004231Y-14932526D01*
X144004231Y-14950000D01*
X144829231Y-14950000D01*
X144829231Y-15450000D01*
X144004231Y-15450000D01*
X144004231Y-15467473D01*
X144033164Y-15650147D01*
X144090314Y-15826040D01*
X144090315Y-15826043D01*
X144174283Y-15990837D01*
X144282985Y-16140454D01*
X144282989Y-16140459D01*
X144413769Y-16271239D01*
X144521805Y-16349731D01*
X144564471Y-16405061D01*
X144570450Y-16474674D01*
X144537845Y-16536470D01*
X144536601Y-16537731D01*
X142386154Y-18688179D01*
X142324831Y-18721664D01*
X142298473Y-18724498D01*
X137606832Y-18724498D01*
X137481630Y-18724498D01*
X137401006Y-18746101D01*
X137360694Y-18756903D01*
X137252268Y-18819502D01*
X137252265Y-18819504D01*
X136438737Y-19633032D01*
X136438735Y-19633035D01*
X136376136Y-19741461D01*
X136364768Y-19783888D01*
X136343731Y-19862397D01*
X136343731Y-37307550D01*
X136343731Y-37432752D01*
X136359197Y-37490471D01*
X136376136Y-37553687D01*
X136438735Y-37662113D01*
X136438737Y-37662116D01*
X144495660Y-45719039D01*
X144529145Y-45780362D01*
X144531199Y-45820600D01*
X144529503Y-45835668D01*
X144529502Y-45835673D01*
X144548436Y-46003727D01*
X144604296Y-46163365D01*
X144604298Y-46163368D01*
X144694269Y-46306555D01*
X144694274Y-46306561D01*
X144813860Y-46426147D01*
X144813866Y-46426152D01*
X144957053Y-46516123D01*
X144957056Y-46516125D01*
X144957060Y-46516126D01*
X144957061Y-46516127D01*
X144992490Y-46528524D01*
X145116694Y-46571985D01*
X145284748Y-46590920D01*
X145284751Y-46590920D01*
X145284754Y-46590920D01*
X145452807Y-46571985D01*
X145452810Y-46571984D01*
X145612441Y-46516127D01*
X145612443Y-46516125D01*
X145612445Y-46516125D01*
X145612448Y-46516123D01*
X145755635Y-46426152D01*
X145755636Y-46426151D01*
X145755641Y-46426148D01*
X145875228Y-46306561D01*
X145884828Y-46291283D01*
X145965203Y-46163368D01*
X145965205Y-46163365D01*
X145965205Y-46163363D01*
X145965207Y-46163361D01*
X146021064Y-46003730D01*
X146021064Y-46003729D01*
X146021065Y-46003727D01*
X146040000Y-45835673D01*
X146040000Y-45835668D01*
X146021065Y-45667614D01*
X145965205Y-45507976D01*
X145965203Y-45507973D01*
X145875232Y-45364786D01*
X145875227Y-45364780D01*
X145755641Y-45245194D01*
X145755635Y-45245189D01*
X145612448Y-45155218D01*
X145612445Y-45155216D01*
X145452807Y-45099356D01*
X145284754Y-45080422D01*
X145284752Y-45080422D01*
X145284751Y-45080422D01*
X145269680Y-45082119D01*
X145200859Y-45070063D01*
X145168119Y-45046580D01*
X137331050Y-37209511D01*
X137297565Y-37148188D01*
X137294731Y-37121830D01*
X137294731Y-20173319D01*
X137314416Y-20106280D01*
X137331050Y-20085638D01*
X137704871Y-19711817D01*
X137766194Y-19678332D01*
X137792552Y-19675498D01*
X142609393Y-19675498D01*
X142609395Y-19675498D01*
X142730330Y-19643093D01*
X142838758Y-19580493D01*
X144432931Y-17986318D01*
X144494254Y-17952834D01*
X144520612Y-17950000D01*
X145166164Y-17950000D01*
X145164231Y-17957213D01*
X145164231Y-18442787D01*
X145166164Y-18450000D01*
X144439231Y-18450000D01*
X144439231Y-18503420D01*
X144479579Y-18706266D01*
X144479581Y-18706274D01*
X144558731Y-18897358D01*
X144558736Y-18897368D01*
X144673641Y-19069335D01*
X144673644Y-19069339D01*
X144819891Y-19215586D01*
X144819895Y-19215589D01*
X144991862Y-19330494D01*
X144991872Y-19330499D01*
X145182954Y-19409648D01*
X145182956Y-19409649D01*
X145239231Y-19420842D01*
X145239231Y-18609618D01*
X145289677Y-18660064D01*
X145363786Y-18702851D01*
X145446444Y-18725000D01*
X145532018Y-18725000D01*
X145614676Y-18702851D01*
X145688785Y-18660064D01*
X145739231Y-18609618D01*
X145739231Y-19420842D01*
X145795505Y-19409649D01*
X145795507Y-19409648D01*
X145986589Y-19330499D01*
X145986599Y-19330494D01*
X146158566Y-19215589D01*
X146158570Y-19215586D01*
X146304817Y-19069339D01*
X146304820Y-19069335D01*
X146419725Y-18897368D01*
X146419730Y-18897358D01*
X146498880Y-18706274D01*
X146498882Y-18706266D01*
X146539230Y-18503420D01*
X146539231Y-18503417D01*
X146539231Y-18450000D01*
X145812298Y-18450000D01*
X145814231Y-18442787D01*
X145814231Y-17957213D01*
X145812298Y-17950000D01*
X146539231Y-17950000D01*
X146539231Y-17896583D01*
X146539230Y-17896579D01*
X146498882Y-17693733D01*
X146498880Y-17693725D01*
X146419730Y-17502641D01*
X146419725Y-17502631D01*
X146304820Y-17330664D01*
X146304817Y-17330660D01*
X146236336Y-17262179D01*
X146202851Y-17200856D01*
X146207835Y-17131164D01*
X146249707Y-17075231D01*
X146315171Y-17050814D01*
X146324017Y-17050498D01*
X149494445Y-17050498D01*
X149561484Y-17070183D01*
X149607239Y-17122987D01*
X149617183Y-17192145D01*
X149588158Y-17255701D01*
X149582126Y-17262179D01*
X149513644Y-17330660D01*
X149513641Y-17330664D01*
X149398736Y-17502631D01*
X149398731Y-17502641D01*
X149319581Y-17693725D01*
X149319579Y-17693733D01*
X149279231Y-17896579D01*
X149279231Y-17950000D01*
X150006164Y-17950000D01*
X150004231Y-17957213D01*
X150004231Y-18442787D01*
X150006164Y-18450000D01*
X149279231Y-18450000D01*
X149279231Y-18503420D01*
X149319579Y-18706266D01*
X149319581Y-18706274D01*
X149398731Y-18897358D01*
X149398736Y-18897368D01*
X149513641Y-19069335D01*
X149513644Y-19069339D01*
X149659891Y-19215586D01*
X149659895Y-19215589D01*
X149831862Y-19330494D01*
X149831872Y-19330499D01*
X150022954Y-19409648D01*
X150022956Y-19409649D01*
X150079231Y-19420842D01*
X150079231Y-18609618D01*
X150129677Y-18660064D01*
X150203786Y-18702851D01*
X150286444Y-18725000D01*
X150372018Y-18725000D01*
X150454676Y-18702851D01*
X150528785Y-18660064D01*
X150579231Y-18609618D01*
X150579231Y-19420842D01*
X150635505Y-19409649D01*
X150635507Y-19409648D01*
X150826589Y-19330499D01*
X150826599Y-19330494D01*
X150998566Y-19215589D01*
X150998570Y-19215586D01*
X151144817Y-19069339D01*
X151144820Y-19069335D01*
X151259725Y-18897368D01*
X151259730Y-18897358D01*
X151338880Y-18706274D01*
X151338882Y-18706266D01*
X151379230Y-18503420D01*
X151379231Y-18503417D01*
X151379231Y-18450000D01*
X150652298Y-18450000D01*
X150654231Y-18442787D01*
X150654231Y-17957213D01*
X150652298Y-17950000D01*
X151379231Y-17950000D01*
X151379231Y-17896583D01*
X151379230Y-17896579D01*
X151338882Y-17693733D01*
X151338880Y-17693725D01*
X151259730Y-17502641D01*
X151259725Y-17502631D01*
X151144820Y-17330664D01*
X151144817Y-17330660D01*
X151076336Y-17262179D01*
X151042851Y-17200856D01*
X151047835Y-17131164D01*
X151089707Y-17075231D01*
X151155171Y-17050814D01*
X151164017Y-17050498D01*
X154332002Y-17050498D01*
X154399041Y-17070183D01*
X154419683Y-17086817D01*
X154498340Y-17165474D01*
X154498346Y-17165479D01*
X154641533Y-17255450D01*
X154641538Y-17255452D01*
X154641541Y-17255454D01*
X154641544Y-17255455D01*
X154732898Y-17287422D01*
X154789674Y-17328143D01*
X154815421Y-17393096D01*
X154801965Y-17461658D01*
X154779624Y-17492144D01*
X150985861Y-21285907D01*
X150924538Y-21319392D01*
X150884298Y-21321446D01*
X150869235Y-21319749D01*
X150869228Y-21319749D01*
X150701174Y-21338683D01*
X150541536Y-21394543D01*
X150541533Y-21394545D01*
X150398346Y-21484516D01*
X150398340Y-21484521D01*
X150278754Y-21604107D01*
X150278749Y-21604113D01*
X150188778Y-21747300D01*
X150188776Y-21747303D01*
X150132916Y-21906941D01*
X150113982Y-22074995D01*
X150113982Y-22075000D01*
X150132916Y-22243054D01*
X150188776Y-22402692D01*
X150188778Y-22402695D01*
X150278749Y-22545882D01*
X150278754Y-22545888D01*
X150398340Y-22665474D01*
X150398346Y-22665479D01*
X150541533Y-22755450D01*
X150541536Y-22755452D01*
X150541540Y-22755453D01*
X150541541Y-22755454D01*
X150614144Y-22780858D01*
X150701174Y-22811312D01*
X150869228Y-22830247D01*
X150869231Y-22830247D01*
X150869234Y-22830247D01*
X151037287Y-22811312D01*
X151037290Y-22811311D01*
X151196921Y-22755454D01*
X151196923Y-22755452D01*
X151196925Y-22755452D01*
X151196928Y-22755450D01*
X151340115Y-22665479D01*
X151340116Y-22665478D01*
X151340121Y-22665475D01*
X151459708Y-22545888D01*
X151549683Y-22402695D01*
X151549685Y-22402692D01*
X151549685Y-22402690D01*
X151549687Y-22402688D01*
X151605544Y-22243057D01*
X151605544Y-22243056D01*
X151605545Y-22243054D01*
X151624480Y-22075000D01*
X151624480Y-22074999D01*
X151624480Y-22074995D01*
X151622782Y-22059931D01*
X151634835Y-21991110D01*
X151658318Y-21958368D01*
X157549726Y-16066962D01*
X157612326Y-15958534D01*
X157644731Y-15837599D01*
X157644731Y-15712397D01*
X157644731Y-14512227D01*
X157664416Y-14445188D01*
X157681050Y-14424546D01*
X157696434Y-14409162D01*
X157759708Y-14345888D01*
X157759712Y-14345882D01*
X157849683Y-14202695D01*
X157849685Y-14202692D01*
X157849685Y-14202690D01*
X157849687Y-14202688D01*
X157905544Y-14043057D01*
X157905544Y-14043056D01*
X157905545Y-14043054D01*
X157924480Y-13875000D01*
X157924480Y-13874995D01*
X157905545Y-13706941D01*
X157886925Y-13653728D01*
X157849687Y-13547308D01*
X157849685Y-13547305D01*
X157849685Y-13547304D01*
X157847558Y-13542887D01*
X157836206Y-13473946D01*
X157863928Y-13409811D01*
X157921923Y-13370845D01*
X157959278Y-13365085D01*
X164705064Y-13365085D01*
X164772103Y-13384770D01*
X164817858Y-13437574D01*
X164829063Y-13489124D01*
X164799939Y-103347308D01*
X164779223Y-167261253D01*
X164759517Y-167328286D01*
X164706698Y-167374024D01*
X164655376Y-167385213D01*
X153049296Y-167399500D01*
X152913161Y-167399500D01*
X152642035Y-167436765D01*
X152642029Y-167436766D01*
X152378506Y-167510602D01*
X152127485Y-167619635D01*
X152125023Y-167620912D01*
X152124161Y-167621079D01*
X152123604Y-167621322D01*
X152123550Y-167621198D01*
X152056444Y-167634277D01*
X151991526Y-167608442D01*
X151980911Y-167597768D01*
X151980247Y-167598433D01*
X151881316Y-167499502D01*
X151881314Y-167499500D01*
X151824250Y-167466554D01*
X151767187Y-167433608D01*
X151703539Y-167416554D01*
X151639892Y-167399500D01*
X151508108Y-167399500D01*
X151380812Y-167433608D01*
X151266680Y-167499503D01*
X151262482Y-167502725D01*
X151197312Y-167527916D01*
X151128868Y-167513875D01*
X151111518Y-167502725D01*
X151107319Y-167499503D01*
X150993187Y-167433608D01*
X150929539Y-167416554D01*
X150865892Y-167399500D01*
X150734108Y-167399500D01*
X150606814Y-167433608D01*
X150606813Y-167433608D01*
X150606811Y-167433609D01*
X150606810Y-167433609D01*
X150487000Y-167502782D01*
X150419100Y-167519255D01*
X150363000Y-167502782D01*
X150243189Y-167433609D01*
X150243186Y-167433608D01*
X150115892Y-167399500D01*
X149984108Y-167399500D01*
X149856814Y-167433608D01*
X149856813Y-167433608D01*
X149856811Y-167433609D01*
X149856810Y-167433609D01*
X149737000Y-167502782D01*
X149669100Y-167519255D01*
X149613000Y-167502782D01*
X149493189Y-167433609D01*
X149493186Y-167433608D01*
X149365892Y-167399500D01*
X149234108Y-167399500D01*
X149106812Y-167433608D01*
X149027006Y-167479684D01*
X148992686Y-167499500D01*
X148992684Y-167499501D01*
X148985648Y-167503564D01*
X148984691Y-167501907D01*
X148929304Y-167523313D01*
X148860861Y-167509268D01*
X148848746Y-167501482D01*
X148845315Y-167499501D01*
X148845314Y-167499500D01*
X148792545Y-167469034D01*
X148731187Y-167433608D01*
X148667539Y-167416554D01*
X148603892Y-167399500D01*
X148472108Y-167399500D01*
X148344812Y-167433608D01*
X148230686Y-167499500D01*
X148230683Y-167499502D01*
X148131753Y-167598433D01*
X148130479Y-167597159D01*
X148082206Y-167632402D01*
X148012460Y-167636552D01*
X147975845Y-167621662D01*
X147972509Y-167619633D01*
X147721493Y-167510602D01*
X147457970Y-167436766D01*
X147457966Y-167436765D01*
X147457965Y-167436765D01*
X147322401Y-167418132D01*
X147186839Y-167399500D01*
X147186838Y-167399500D01*
X147050152Y-167399500D01*
X135903206Y-167385225D01*
X135836192Y-167365455D01*
X135790505Y-167312592D01*
X135779365Y-167261201D01*
X135779589Y-166112123D01*
X135779948Y-164266737D01*
X142143731Y-164266737D01*
X142143731Y-166033258D01*
X142153657Y-166101389D01*
X142205034Y-166206483D01*
X142287745Y-166289194D01*
X142287746Y-166289194D01*
X142287748Y-166289196D01*
X142392838Y-166340571D01*
X142426904Y-166345534D01*
X142460970Y-166350498D01*
X142460971Y-166350498D01*
X144227492Y-166350498D01*
X144250202Y-166347189D01*
X144295624Y-166340571D01*
X144400714Y-166289196D01*
X144483429Y-166206481D01*
X144534804Y-166101391D01*
X144544731Y-166033258D01*
X144544731Y-165680419D01*
X144564416Y-165613380D01*
X144617220Y-165567625D01*
X144686378Y-165557681D01*
X144749934Y-165586706D01*
X144779731Y-165625147D01*
X144859169Y-165784681D01*
X144859174Y-165784689D01*
X144993251Y-165962236D01*
X145157668Y-166112121D01*
X145157670Y-166112123D01*
X145346826Y-166229243D01*
X145346827Y-166229243D01*
X145346830Y-166229245D01*
X145554291Y-166309616D01*
X145772988Y-166350498D01*
X145772990Y-166350498D01*
X145995472Y-166350498D01*
X145995474Y-166350498D01*
X146214171Y-166309616D01*
X146421632Y-166229245D01*
X146610793Y-166112122D01*
X146775212Y-165962234D01*
X146909289Y-165784687D01*
X147008460Y-165585526D01*
X147034965Y-165492369D01*
X147072244Y-165433276D01*
X147135554Y-165403719D01*
X147204793Y-165413081D01*
X147257980Y-165458391D01*
X147273497Y-165492370D01*
X147300000Y-165585521D01*
X147300006Y-165585536D01*
X147399169Y-165784681D01*
X147399174Y-165784689D01*
X147533251Y-165962236D01*
X147697668Y-166112121D01*
X147697670Y-166112123D01*
X147886826Y-166229243D01*
X147886827Y-166229243D01*
X147886830Y-166229245D01*
X148094291Y-166309616D01*
X148312988Y-166350498D01*
X148312990Y-166350498D01*
X148535472Y-166350498D01*
X148535474Y-166350498D01*
X148754171Y-166309616D01*
X148961632Y-166229245D01*
X149150793Y-166112122D01*
X149315212Y-165962234D01*
X149449289Y-165784687D01*
X149548460Y-165585526D01*
X149574965Y-165492369D01*
X149612244Y-165433276D01*
X149675554Y-165403719D01*
X149744793Y-165413081D01*
X149797980Y-165458391D01*
X149813497Y-165492370D01*
X149840000Y-165585521D01*
X149840006Y-165585536D01*
X149939169Y-165784681D01*
X149939174Y-165784689D01*
X150073251Y-165962236D01*
X150237668Y-166112121D01*
X150237670Y-166112123D01*
X150426826Y-166229243D01*
X150426827Y-166229243D01*
X150426830Y-166229245D01*
X150634291Y-166309616D01*
X150852988Y-166350498D01*
X150852990Y-166350498D01*
X151075472Y-166350498D01*
X151075474Y-166350498D01*
X151294171Y-166309616D01*
X151501632Y-166229245D01*
X151690793Y-166112122D01*
X151855212Y-165962234D01*
X151989289Y-165784687D01*
X152088460Y-165585526D01*
X152114965Y-165492369D01*
X152152244Y-165433276D01*
X152215554Y-165403719D01*
X152284793Y-165413081D01*
X152337980Y-165458391D01*
X152353497Y-165492370D01*
X152380000Y-165585521D01*
X152380006Y-165585536D01*
X152479169Y-165784681D01*
X152479174Y-165784689D01*
X152613251Y-165962236D01*
X152777668Y-166112121D01*
X152777670Y-166112123D01*
X152966826Y-166229243D01*
X152966827Y-166229243D01*
X152966830Y-166229245D01*
X153174291Y-166309616D01*
X153392988Y-166350498D01*
X153392990Y-166350498D01*
X153615472Y-166350498D01*
X153615474Y-166350498D01*
X153834171Y-166309616D01*
X154041632Y-166229245D01*
X154230793Y-166112122D01*
X154395212Y-165962234D01*
X154529289Y-165784687D01*
X154580566Y-165681710D01*
X154628068Y-165630473D01*
X154695731Y-165613051D01*
X154762072Y-165634976D01*
X154803948Y-165684576D01*
X154870630Y-165827576D01*
X155006125Y-166021080D01*
X155173148Y-166188103D01*
X155366652Y-166323598D01*
X155580738Y-166423427D01*
X155580747Y-166423431D01*
X155794231Y-166480632D01*
X155794231Y-165583010D01*
X155851238Y-165615923D01*
X155978405Y-165649998D01*
X156110057Y-165649998D01*
X156237224Y-165615923D01*
X156294231Y-165583010D01*
X156294231Y-166480631D01*
X156507714Y-166423431D01*
X156507723Y-166423427D01*
X156721809Y-166323598D01*
X156915313Y-166188103D01*
X157082336Y-166021080D01*
X157217831Y-165827576D01*
X157317660Y-165613490D01*
X157317663Y-165613484D01*
X157374867Y-165399998D01*
X156477243Y-165399998D01*
X156510156Y-165342991D01*
X156544231Y-165215824D01*
X156544231Y-165084172D01*
X156510156Y-164957005D01*
X156477243Y-164899998D01*
X157374867Y-164899998D01*
X157374866Y-164899997D01*
X157317663Y-164686511D01*
X157317660Y-164686505D01*
X157217831Y-164472420D01*
X157217830Y-164472418D01*
X157082344Y-164278924D01*
X157082339Y-164278918D01*
X156915313Y-164111892D01*
X156721809Y-163976397D01*
X156507723Y-163876568D01*
X156507717Y-163876565D01*
X156294231Y-163819362D01*
X156294231Y-164716986D01*
X156237224Y-164684073D01*
X156110057Y-164649998D01*
X155978405Y-164649998D01*
X155851238Y-164684073D01*
X155794231Y-164716986D01*
X155794231Y-163819362D01*
X155794230Y-163819362D01*
X155580744Y-163876565D01*
X155580738Y-163876568D01*
X155366653Y-163976397D01*
X155366651Y-163976398D01*
X155173157Y-164111884D01*
X155173151Y-164111889D01*
X155006122Y-164278918D01*
X155006117Y-164278924D01*
X154870631Y-164472418D01*
X154870630Y-164472420D01*
X154803948Y-164615419D01*
X154757775Y-164667858D01*
X154690581Y-164687010D01*
X154623700Y-164666794D01*
X154580566Y-164618286D01*
X154529292Y-164515314D01*
X154529287Y-164515306D01*
X154395210Y-164337759D01*
X154230793Y-164187874D01*
X154230791Y-164187872D01*
X154041635Y-164070752D01*
X154041629Y-164070750D01*
X153834171Y-163990380D01*
X153615474Y-163949498D01*
X153392988Y-163949498D01*
X153174291Y-163990380D01*
X153043095Y-164041205D01*
X152966832Y-164070750D01*
X152966826Y-164070752D01*
X152777670Y-164187872D01*
X152777668Y-164187874D01*
X152613251Y-164337759D01*
X152479174Y-164515306D01*
X152479169Y-164515314D01*
X152380006Y-164714459D01*
X152380000Y-164714474D01*
X152353497Y-164807625D01*
X152316218Y-164866719D01*
X152252908Y-164896276D01*
X152183669Y-164886914D01*
X152130482Y-164841604D01*
X152114965Y-164807625D01*
X152088461Y-164714474D01*
X152088460Y-164714470D01*
X152088455Y-164714459D01*
X151989292Y-164515314D01*
X151989287Y-164515306D01*
X151855210Y-164337759D01*
X151690793Y-164187874D01*
X151690791Y-164187872D01*
X151501635Y-164070752D01*
X151501629Y-164070750D01*
X151294171Y-163990380D01*
X151075474Y-163949498D01*
X150852988Y-163949498D01*
X150634291Y-163990380D01*
X150503095Y-164041205D01*
X150426832Y-164070750D01*
X150426826Y-164070752D01*
X150237670Y-164187872D01*
X150237668Y-164187874D01*
X150073251Y-164337759D01*
X149939174Y-164515306D01*
X149939169Y-164515314D01*
X149840006Y-164714459D01*
X149840000Y-164714474D01*
X149813497Y-164807625D01*
X149776218Y-164866719D01*
X149712908Y-164896276D01*
X149643669Y-164886914D01*
X149590482Y-164841604D01*
X149574965Y-164807625D01*
X149548461Y-164714474D01*
X149548460Y-164714470D01*
X149548455Y-164714459D01*
X149449292Y-164515314D01*
X149449287Y-164515306D01*
X149315210Y-164337759D01*
X149150793Y-164187874D01*
X149150791Y-164187872D01*
X148961635Y-164070752D01*
X148961629Y-164070750D01*
X148754171Y-163990380D01*
X148535474Y-163949498D01*
X148312988Y-163949498D01*
X148094291Y-163990380D01*
X147963095Y-164041205D01*
X147886832Y-164070750D01*
X147886826Y-164070752D01*
X147697670Y-164187872D01*
X147697668Y-164187874D01*
X147533251Y-164337759D01*
X147399174Y-164515306D01*
X147399169Y-164515314D01*
X147300006Y-164714459D01*
X147300000Y-164714474D01*
X147273497Y-164807625D01*
X147236218Y-164866719D01*
X147172908Y-164896276D01*
X147103669Y-164886914D01*
X147050482Y-164841604D01*
X147034965Y-164807625D01*
X147008461Y-164714474D01*
X147008460Y-164714470D01*
X147008455Y-164714459D01*
X146909292Y-164515314D01*
X146909287Y-164515306D01*
X146775210Y-164337759D01*
X146610793Y-164187874D01*
X146610791Y-164187872D01*
X146421635Y-164070752D01*
X146421629Y-164070750D01*
X146214171Y-163990380D01*
X145995474Y-163949498D01*
X145772988Y-163949498D01*
X145554291Y-163990380D01*
X145423095Y-164041205D01*
X145346832Y-164070750D01*
X145346826Y-164070752D01*
X145157670Y-164187872D01*
X145157668Y-164187874D01*
X144993251Y-164337759D01*
X144859174Y-164515306D01*
X144859169Y-164515314D01*
X144779731Y-164674848D01*
X144732228Y-164726085D01*
X144664565Y-164743506D01*
X144598225Y-164721580D01*
X144554270Y-164667269D01*
X144544731Y-164619576D01*
X144544731Y-164266737D01*
X144534804Y-164198606D01*
X144534804Y-164198605D01*
X144483429Y-164093515D01*
X144483427Y-164093513D01*
X144483427Y-164093512D01*
X144400716Y-164010801D01*
X144295622Y-163959424D01*
X144227492Y-163949498D01*
X144227491Y-163949498D01*
X142460971Y-163949498D01*
X142460970Y-163949498D01*
X142392839Y-163959424D01*
X142287745Y-164010801D01*
X142205034Y-164093512D01*
X142153657Y-164198606D01*
X142143731Y-164266737D01*
X135779948Y-164266737D01*
X135781230Y-157674991D01*
X144213931Y-157674991D01*
X144213931Y-157675004D01*
X144233095Y-157906295D01*
X144233097Y-157906306D01*
X144290073Y-158131298D01*
X144383306Y-158343846D01*
X144510247Y-158538145D01*
X144510250Y-158538149D01*
X144510252Y-158538151D01*
X144667447Y-158708911D01*
X144667450Y-158708913D01*
X144667453Y-158708916D01*
X144850596Y-158851462D01*
X144850602Y-158851466D01*
X144850605Y-158851468D01*
X145054728Y-158961934D01*
X145168718Y-159001066D01*
X145274246Y-159037295D01*
X145274248Y-159037295D01*
X145274250Y-159037296D01*
X145503182Y-159075498D01*
X145503183Y-159075498D01*
X145735279Y-159075498D01*
X145735280Y-159075498D01*
X145964212Y-159037296D01*
X146183734Y-158961934D01*
X146387857Y-158851468D01*
X146571015Y-158708911D01*
X146728210Y-158538151D01*
X146855155Y-158343847D01*
X146948388Y-158131298D01*
X147005365Y-157906303D01*
X147024531Y-157674998D01*
X147024531Y-157674991D01*
X147005366Y-157443700D01*
X147005364Y-157443689D01*
X146948388Y-157218697D01*
X146855155Y-157006149D01*
X146728214Y-156811850D01*
X146728211Y-156811847D01*
X146728210Y-156811845D01*
X146571015Y-156641085D01*
X146571010Y-156641081D01*
X146571008Y-156641079D01*
X146507613Y-156591737D01*
X149218731Y-156591737D01*
X149218731Y-158758258D01*
X149228657Y-158826389D01*
X149280034Y-158931483D01*
X149362745Y-159014194D01*
X149362746Y-159014194D01*
X149362748Y-159014196D01*
X149467838Y-159065571D01*
X149501904Y-159070534D01*
X149535970Y-159075498D01*
X149535971Y-159075498D01*
X151702492Y-159075498D01*
X151725202Y-159072189D01*
X151770624Y-159065571D01*
X151875714Y-159014196D01*
X151958429Y-158931481D01*
X152009804Y-158826391D01*
X152019731Y-158758258D01*
X152019731Y-156591738D01*
X152009804Y-156523605D01*
X151958429Y-156418515D01*
X151958427Y-156418513D01*
X151958427Y-156418512D01*
X151875716Y-156335801D01*
X151770622Y-156284424D01*
X151702492Y-156274498D01*
X151702491Y-156274498D01*
X149535971Y-156274498D01*
X149535970Y-156274498D01*
X149467839Y-156284424D01*
X149362745Y-156335801D01*
X149280034Y-156418512D01*
X149228657Y-156523606D01*
X149218731Y-156591737D01*
X146507613Y-156591737D01*
X146387865Y-156498533D01*
X146387859Y-156498529D01*
X146183735Y-156388062D01*
X146183726Y-156388059D01*
X145964215Y-156312700D01*
X145792513Y-156284048D01*
X145735280Y-156274498D01*
X145503182Y-156274498D01*
X145457395Y-156282138D01*
X145274246Y-156312700D01*
X145054735Y-156388059D01*
X145054726Y-156388062D01*
X144850602Y-156498529D01*
X144850596Y-156498533D01*
X144667453Y-156641079D01*
X144667450Y-156641082D01*
X144510247Y-156811850D01*
X144383306Y-157006149D01*
X144290073Y-157218697D01*
X144233097Y-157443689D01*
X144233095Y-157443700D01*
X144213931Y-157674991D01*
X135781230Y-157674991D01*
X135782202Y-152674991D01*
X144213931Y-152674991D01*
X144213931Y-152675004D01*
X144233095Y-152906295D01*
X144233097Y-152906306D01*
X144290073Y-153131298D01*
X144383306Y-153343846D01*
X144510247Y-153538145D01*
X144510250Y-153538149D01*
X144510252Y-153538151D01*
X144667447Y-153708911D01*
X144667450Y-153708913D01*
X144667453Y-153708916D01*
X144850596Y-153851462D01*
X144850602Y-153851466D01*
X144850605Y-153851468D01*
X145054728Y-153961934D01*
X145168718Y-154001066D01*
X145274246Y-154037295D01*
X145274248Y-154037295D01*
X145274250Y-154037296D01*
X145503182Y-154075498D01*
X145503183Y-154075498D01*
X145735279Y-154075498D01*
X145735280Y-154075498D01*
X145964212Y-154037296D01*
X146183734Y-153961934D01*
X146387857Y-153851468D01*
X146571015Y-153708911D01*
X146728210Y-153538151D01*
X146855155Y-153343847D01*
X146948388Y-153131298D01*
X147005365Y-152906303D01*
X147024531Y-152674998D01*
X147024531Y-152674991D01*
X149213931Y-152674991D01*
X149213931Y-152675004D01*
X149233095Y-152906295D01*
X149233097Y-152906306D01*
X149290073Y-153131298D01*
X149383306Y-153343846D01*
X149510247Y-153538145D01*
X149510250Y-153538149D01*
X149510252Y-153538151D01*
X149667447Y-153708911D01*
X149667450Y-153708913D01*
X149667453Y-153708916D01*
X149850596Y-153851462D01*
X149850602Y-153851466D01*
X149850605Y-153851468D01*
X150054728Y-153961934D01*
X150168718Y-154001066D01*
X150274246Y-154037295D01*
X150274248Y-154037295D01*
X150274250Y-154037296D01*
X150503182Y-154075498D01*
X150503183Y-154075498D01*
X150735279Y-154075498D01*
X150735280Y-154075498D01*
X150964212Y-154037296D01*
X151183734Y-153961934D01*
X151387857Y-153851468D01*
X151571015Y-153708911D01*
X151728210Y-153538151D01*
X151855155Y-153343847D01*
X151948388Y-153131298D01*
X152005365Y-152906303D01*
X152024531Y-152674998D01*
X152024531Y-152674991D01*
X152005366Y-152443700D01*
X152005364Y-152443689D01*
X151948388Y-152218697D01*
X151855155Y-152006149D01*
X151728214Y-151811850D01*
X151728211Y-151811847D01*
X151728210Y-151811845D01*
X151571015Y-151641085D01*
X151571010Y-151641081D01*
X151571008Y-151641079D01*
X151387865Y-151498533D01*
X151387859Y-151498529D01*
X151183735Y-151388062D01*
X151183726Y-151388059D01*
X150964215Y-151312700D01*
X150792513Y-151284048D01*
X150735280Y-151274498D01*
X150503182Y-151274498D01*
X150457395Y-151282138D01*
X150274246Y-151312700D01*
X150054735Y-151388059D01*
X150054726Y-151388062D01*
X149850602Y-151498529D01*
X149850596Y-151498533D01*
X149667453Y-151641079D01*
X149667450Y-151641082D01*
X149510247Y-151811850D01*
X149383306Y-152006149D01*
X149290073Y-152218697D01*
X149233097Y-152443689D01*
X149233095Y-152443700D01*
X149213931Y-152674991D01*
X147024531Y-152674991D01*
X147005366Y-152443700D01*
X147005364Y-152443689D01*
X146948388Y-152218697D01*
X146855155Y-152006149D01*
X146728214Y-151811850D01*
X146728211Y-151811847D01*
X146728210Y-151811845D01*
X146571015Y-151641085D01*
X146571010Y-151641081D01*
X146571008Y-151641079D01*
X146387865Y-151498533D01*
X146387859Y-151498529D01*
X146183735Y-151388062D01*
X146183726Y-151388059D01*
X145964215Y-151312700D01*
X145792513Y-151284048D01*
X145735280Y-151274498D01*
X145503182Y-151274498D01*
X145457395Y-151282138D01*
X145274246Y-151312700D01*
X145054735Y-151388059D01*
X145054726Y-151388062D01*
X144850602Y-151498529D01*
X144850596Y-151498533D01*
X144667453Y-151641079D01*
X144667450Y-151641082D01*
X144510247Y-151811850D01*
X144383306Y-152006149D01*
X144290073Y-152218697D01*
X144233097Y-152443689D01*
X144233095Y-152443700D01*
X144213931Y-152674991D01*
X135782202Y-152674991D01*
X135784965Y-138468711D01*
X139818731Y-138468711D01*
X139818731Y-138681284D01*
X139851984Y-138891237D01*
X139917675Y-139093412D01*
X140014182Y-139282818D01*
X140139121Y-139454784D01*
X140289444Y-139605107D01*
X140461410Y-139730046D01*
X140461412Y-139730047D01*
X140461415Y-139730049D01*
X140650819Y-139826555D01*
X140852988Y-139892244D01*
X141062944Y-139925498D01*
X141062945Y-139925498D01*
X141275517Y-139925498D01*
X141275518Y-139925498D01*
X141485474Y-139892244D01*
X141687643Y-139826555D01*
X141877047Y-139730049D01*
X141899020Y-139714084D01*
X142049017Y-139605107D01*
X142049019Y-139605104D01*
X142049023Y-139605102D01*
X142199335Y-139454790D01*
X142199337Y-139454786D01*
X142199340Y-139454784D01*
X142324279Y-139282818D01*
X142324278Y-139282818D01*
X142324282Y-139282814D01*
X142420788Y-139093410D01*
X142486477Y-138891241D01*
X142519731Y-138681285D01*
X142519731Y-138468711D01*
X142486477Y-138258755D01*
X142420788Y-138056586D01*
X142324282Y-137867182D01*
X142324280Y-137867179D01*
X142324279Y-137867177D01*
X142199340Y-137695211D01*
X142049017Y-137544888D01*
X141877051Y-137419949D01*
X141687645Y-137323442D01*
X141687644Y-137323441D01*
X141687643Y-137323441D01*
X141485474Y-137257752D01*
X141485472Y-137257751D01*
X141485471Y-137257751D01*
X141324188Y-137232206D01*
X141275518Y-137224498D01*
X141062944Y-137224498D01*
X141014273Y-137232206D01*
X140852991Y-137257751D01*
X140650816Y-137323442D01*
X140461410Y-137419949D01*
X140289444Y-137544888D01*
X140139121Y-137695211D01*
X140014182Y-137867177D01*
X139917675Y-138056583D01*
X139851984Y-138258758D01*
X139818731Y-138468711D01*
X135784965Y-138468711D01*
X135794472Y-89580247D01*
X135796236Y-80509028D01*
X139243731Y-80509028D01*
X139243731Y-80715967D01*
X139283712Y-80916964D01*
X139284101Y-80918918D01*
X139363290Y-81110096D01*
X139381958Y-81138035D01*
X139478255Y-81282155D01*
X139624573Y-81428473D01*
X139624576Y-81428475D01*
X139796633Y-81543439D01*
X139987811Y-81622628D01*
X140190761Y-81662997D01*
X140190765Y-81662998D01*
X140190766Y-81662998D01*
X140397697Y-81662998D01*
X140397698Y-81662997D01*
X140600651Y-81622628D01*
X140791829Y-81543439D01*
X140963886Y-81428475D01*
X141110208Y-81282153D01*
X141225172Y-81110096D01*
X141304361Y-80918918D01*
X141304361Y-80918916D01*
X141305170Y-80916964D01*
X141349011Y-80862561D01*
X141415305Y-80840496D01*
X141483004Y-80857775D01*
X141530615Y-80908912D01*
X141543731Y-80964417D01*
X141543731Y-103312076D01*
X141536772Y-103353031D01*
X141482917Y-103506936D01*
X141482917Y-103506938D01*
X141463982Y-103674995D01*
X141463982Y-103675000D01*
X141482916Y-103843054D01*
X141538776Y-104002692D01*
X141538778Y-104002695D01*
X141628749Y-104145882D01*
X141628754Y-104145888D01*
X141748340Y-104265474D01*
X141748346Y-104265479D01*
X141891533Y-104355450D01*
X141891536Y-104355452D01*
X141891540Y-104355453D01*
X141891541Y-104355454D01*
X141964144Y-104380858D01*
X142051174Y-104411312D01*
X142219228Y-104430247D01*
X142219231Y-104430247D01*
X142219234Y-104430247D01*
X142387286Y-104411312D01*
X142387288Y-104411311D01*
X142387290Y-104411311D01*
X142398773Y-104407292D01*
X142468550Y-104403728D01*
X142529179Y-104438455D01*
X142561409Y-104500447D01*
X142563731Y-104524333D01*
X142563731Y-112820629D01*
X142544046Y-112887668D01*
X142491242Y-112933423D01*
X142422084Y-112943367D01*
X142358528Y-112914342D01*
X142329247Y-112876926D01*
X142324280Y-112867178D01*
X142199340Y-112695211D01*
X142049017Y-112544888D01*
X141877051Y-112419949D01*
X141687645Y-112323442D01*
X141687644Y-112323441D01*
X141687643Y-112323441D01*
X141485474Y-112257752D01*
X141485472Y-112257751D01*
X141485471Y-112257751D01*
X141324188Y-112232206D01*
X141275518Y-112224498D01*
X141062944Y-112224498D01*
X141014273Y-112232206D01*
X140852991Y-112257751D01*
X140650816Y-112323442D01*
X140461410Y-112419949D01*
X140289444Y-112544888D01*
X140139121Y-112695211D01*
X140014182Y-112867177D01*
X139917675Y-113056583D01*
X139851984Y-113258758D01*
X139818731Y-113468711D01*
X139818731Y-113681284D01*
X139851984Y-113891237D01*
X139917675Y-114093412D01*
X140014182Y-114282818D01*
X140139121Y-114454784D01*
X140289444Y-114605107D01*
X140461410Y-114730046D01*
X140461412Y-114730047D01*
X140461415Y-114730049D01*
X140650819Y-114826555D01*
X140852988Y-114892244D01*
X141062944Y-114925498D01*
X141062945Y-114925498D01*
X141275517Y-114925498D01*
X141275518Y-114925498D01*
X141485474Y-114892244D01*
X141687643Y-114826555D01*
X141877047Y-114730049D01*
X141899020Y-114714084D01*
X142049017Y-114605107D01*
X142049019Y-114605104D01*
X142049023Y-114605102D01*
X142199335Y-114454790D01*
X142199337Y-114454786D01*
X142199340Y-114454784D01*
X142324281Y-114282815D01*
X142329246Y-114273072D01*
X142377220Y-114222276D01*
X142445040Y-114205480D01*
X142511176Y-114228017D01*
X142554628Y-114282731D01*
X142563731Y-114329366D01*
X142563731Y-119406740D01*
X142544046Y-119473779D01*
X142527412Y-119494421D01*
X142301237Y-119720595D01*
X142301235Y-119720598D01*
X142238636Y-119829024D01*
X142238636Y-119829025D01*
X142206231Y-119949960D01*
X142206231Y-136300099D01*
X142238636Y-136421034D01*
X142301235Y-136529460D01*
X142301237Y-136529463D01*
X142363531Y-136591757D01*
X142383237Y-136617438D01*
X142388733Y-136626958D01*
X142388737Y-136626963D01*
X143570140Y-137808366D01*
X143603625Y-137869689D01*
X143605679Y-137909927D01*
X143603983Y-137924995D01*
X143603982Y-137925000D01*
X143622916Y-138093054D01*
X143678776Y-138252692D01*
X143678778Y-138252695D01*
X143768749Y-138395882D01*
X143768754Y-138395888D01*
X143888340Y-138515474D01*
X143888346Y-138515479D01*
X144031533Y-138605450D01*
X144031536Y-138605452D01*
X144031540Y-138605453D01*
X144031541Y-138605454D01*
X144104144Y-138630858D01*
X144191174Y-138661312D01*
X144359228Y-138680247D01*
X144359231Y-138680247D01*
X144359234Y-138680247D01*
X144527287Y-138661312D01*
X144527290Y-138661311D01*
X144686921Y-138605454D01*
X144686923Y-138605452D01*
X144686925Y-138605452D01*
X144686928Y-138605450D01*
X144830115Y-138515479D01*
X144830116Y-138515478D01*
X144830121Y-138515475D01*
X144876885Y-138468711D01*
X153568731Y-138468711D01*
X153568731Y-138681284D01*
X153601984Y-138891237D01*
X153667675Y-139093412D01*
X153764182Y-139282818D01*
X153889121Y-139454784D01*
X154039444Y-139605107D01*
X154211410Y-139730046D01*
X154211412Y-139730047D01*
X154211415Y-139730049D01*
X154400819Y-139826555D01*
X154602988Y-139892244D01*
X154812944Y-139925498D01*
X154812945Y-139925498D01*
X155025517Y-139925498D01*
X155025518Y-139925498D01*
X155235474Y-139892244D01*
X155437643Y-139826555D01*
X155627047Y-139730049D01*
X155649020Y-139714084D01*
X155799017Y-139605107D01*
X155799019Y-139605104D01*
X155799023Y-139605102D01*
X155949335Y-139454790D01*
X155949337Y-139454786D01*
X155949340Y-139454784D01*
X156074279Y-139282818D01*
X156074278Y-139282818D01*
X156074282Y-139282814D01*
X156170788Y-139093410D01*
X156236477Y-138891241D01*
X156269731Y-138681285D01*
X156269731Y-138468711D01*
X156236477Y-138258755D01*
X156170788Y-138056586D01*
X156074282Y-137867182D01*
X156074280Y-137867179D01*
X156074279Y-137867177D01*
X155949340Y-137695211D01*
X155799017Y-137544888D01*
X155627051Y-137419949D01*
X155437645Y-137323442D01*
X155437644Y-137323441D01*
X155437643Y-137323441D01*
X155235474Y-137257752D01*
X155235472Y-137257751D01*
X155235471Y-137257751D01*
X155074188Y-137232206D01*
X155025518Y-137224498D01*
X154812944Y-137224498D01*
X154764273Y-137232206D01*
X154602991Y-137257751D01*
X154400816Y-137323442D01*
X154211410Y-137419949D01*
X154039444Y-137544888D01*
X153889121Y-137695211D01*
X153764182Y-137867177D01*
X153667675Y-138056583D01*
X153601984Y-138258758D01*
X153568731Y-138468711D01*
X144876885Y-138468711D01*
X144949708Y-138395888D01*
X145039683Y-138252695D01*
X145039685Y-138252692D01*
X145039685Y-138252690D01*
X145039687Y-138252688D01*
X145095544Y-138093057D01*
X145095544Y-138093056D01*
X145095545Y-138093054D01*
X145114480Y-137925000D01*
X145114480Y-137924995D01*
X145095545Y-137756941D01*
X145039685Y-137597303D01*
X145039683Y-137597300D01*
X144949712Y-137454113D01*
X144949707Y-137454107D01*
X144830121Y-137334521D01*
X144830115Y-137334516D01*
X144686928Y-137244545D01*
X144686925Y-137244543D01*
X144527287Y-137188683D01*
X144359234Y-137169749D01*
X144359232Y-137169749D01*
X144359231Y-137169749D01*
X144344160Y-137171446D01*
X144275339Y-137159390D01*
X144242599Y-137135907D01*
X143193550Y-136086858D01*
X143160065Y-136025535D01*
X143157231Y-135999177D01*
X143157231Y-129207433D01*
X143176916Y-129140394D01*
X143229720Y-129094639D01*
X143298878Y-129084695D01*
X143328683Y-129092872D01*
X143337818Y-129096656D01*
X143337822Y-129096656D01*
X143337823Y-129096657D01*
X143482810Y-129125498D01*
X143482813Y-129125498D01*
X143630651Y-129125498D01*
X143728193Y-129106094D01*
X143775644Y-129096656D01*
X143912226Y-129040082D01*
X144035147Y-128957949D01*
X144139682Y-128853414D01*
X144221815Y-128730493D01*
X144278389Y-128593911D01*
X144307231Y-128448916D01*
X144307231Y-128301080D01*
X144307231Y-128301077D01*
X144278390Y-128156090D01*
X144278389Y-128156089D01*
X144278389Y-128156085D01*
X144278387Y-128156080D01*
X144221818Y-128019509D01*
X144221811Y-128019496D01*
X144139682Y-127896582D01*
X144139679Y-127896578D01*
X144035150Y-127792049D01*
X144035146Y-127792046D01*
X143912232Y-127709917D01*
X143912219Y-127709910D01*
X143775648Y-127653341D01*
X143775638Y-127653338D01*
X143630651Y-127624498D01*
X143630649Y-127624498D01*
X143482813Y-127624498D01*
X143482811Y-127624498D01*
X143337823Y-127653338D01*
X143337818Y-127653340D01*
X143328680Y-127657125D01*
X143259210Y-127664591D01*
X143196732Y-127633314D01*
X143161082Y-127573224D01*
X143157231Y-127542562D01*
X143157231Y-121207433D01*
X143176916Y-121140394D01*
X143229720Y-121094639D01*
X143298878Y-121084695D01*
X143328683Y-121092872D01*
X143337818Y-121096656D01*
X143337822Y-121096656D01*
X143337823Y-121096657D01*
X143482810Y-121125498D01*
X143482813Y-121125498D01*
X143630651Y-121125498D01*
X143728193Y-121106094D01*
X143775644Y-121096656D01*
X143912226Y-121040082D01*
X144035147Y-120957949D01*
X144139682Y-120853414D01*
X144221815Y-120730493D01*
X144278389Y-120593911D01*
X144307231Y-120448916D01*
X144307231Y-120301080D01*
X144307231Y-120301077D01*
X144278390Y-120156090D01*
X144278389Y-120156089D01*
X144278389Y-120156085D01*
X144278387Y-120156080D01*
X144221818Y-120019509D01*
X144221811Y-120019496D01*
X144139682Y-119896582D01*
X144139679Y-119896578D01*
X144035150Y-119792049D01*
X144035146Y-119792046D01*
X143912232Y-119709917D01*
X143912219Y-119709910D01*
X143775648Y-119653341D01*
X143775638Y-119653338D01*
X143630647Y-119624497D01*
X143626567Y-119624095D01*
X143561782Y-119597929D01*
X143521428Y-119540892D01*
X143514731Y-119500693D01*
X143514731Y-113468711D01*
X153568731Y-113468711D01*
X153568731Y-113681284D01*
X153601984Y-113891237D01*
X153667675Y-114093412D01*
X153764182Y-114282818D01*
X153889121Y-114454784D01*
X154039444Y-114605107D01*
X154211410Y-114730046D01*
X154211412Y-114730047D01*
X154211415Y-114730049D01*
X154400819Y-114826555D01*
X154602988Y-114892244D01*
X154812944Y-114925498D01*
X154812945Y-114925498D01*
X155025517Y-114925498D01*
X155025518Y-114925498D01*
X155235474Y-114892244D01*
X155437643Y-114826555D01*
X155627047Y-114730049D01*
X155649020Y-114714084D01*
X155799017Y-114605107D01*
X155799019Y-114605104D01*
X155799023Y-114605102D01*
X155949335Y-114454790D01*
X155949337Y-114454786D01*
X155949340Y-114454784D01*
X156074279Y-114282818D01*
X156074281Y-114282815D01*
X156074282Y-114282814D01*
X156170788Y-114093410D01*
X156236477Y-113891241D01*
X156269731Y-113681285D01*
X156269731Y-113468711D01*
X156236477Y-113258755D01*
X156170788Y-113056586D01*
X156074282Y-112867182D01*
X156074280Y-112867179D01*
X156074279Y-112867177D01*
X155949340Y-112695211D01*
X155799017Y-112544888D01*
X155627051Y-112419949D01*
X155437645Y-112323442D01*
X155437644Y-112323441D01*
X155437643Y-112323441D01*
X155235474Y-112257752D01*
X155235472Y-112257751D01*
X155235471Y-112257751D01*
X155074188Y-112232206D01*
X155025518Y-112224498D01*
X154812944Y-112224498D01*
X154764273Y-112232206D01*
X154602991Y-112257751D01*
X154400816Y-112323442D01*
X154211410Y-112419949D01*
X154039444Y-112544888D01*
X153889121Y-112695211D01*
X153764182Y-112867177D01*
X153667675Y-113056583D01*
X153601984Y-113258758D01*
X153568731Y-113468711D01*
X143514731Y-113468711D01*
X143514731Y-85570580D01*
X143534416Y-85503541D01*
X143587220Y-85457786D01*
X143656378Y-85447842D01*
X143695026Y-85460095D01*
X143814393Y-85520916D01*
X144001514Y-85581716D01*
X144044231Y-85588482D01*
X144044231Y-83987775D01*
X144120537Y-84031831D01*
X144234987Y-84062498D01*
X144353475Y-84062498D01*
X144467925Y-84031831D01*
X144544231Y-83987775D01*
X144544231Y-85588481D01*
X144586947Y-85581716D01*
X144774068Y-85520916D01*
X144949374Y-85431593D01*
X145108552Y-85315942D01*
X145247674Y-85176820D01*
X145247674Y-85176819D01*
X145290489Y-85117892D01*
X145345819Y-85075227D01*
X145415433Y-85069248D01*
X145477228Y-85101854D01*
X145478488Y-85103097D01*
X145577303Y-85201912D01*
X145717443Y-85303730D01*
X145871786Y-85382371D01*
X146036530Y-85435900D01*
X146207620Y-85462998D01*
X146207621Y-85462998D01*
X146380841Y-85462998D01*
X146380842Y-85462998D01*
X146551932Y-85435900D01*
X146716676Y-85382371D01*
X146871019Y-85303730D01*
X147011159Y-85201912D01*
X147133645Y-85079426D01*
X147193913Y-84996473D01*
X147249243Y-84953809D01*
X147318857Y-84947830D01*
X147380652Y-84980436D01*
X147394546Y-84996471D01*
X147454817Y-85079426D01*
X147577303Y-85201912D01*
X147717443Y-85303730D01*
X147871786Y-85382371D01*
X148036530Y-85435900D01*
X148207620Y-85462998D01*
X148207621Y-85462998D01*
X148380841Y-85462998D01*
X148380842Y-85462998D01*
X148551932Y-85435900D01*
X148716676Y-85382371D01*
X148871019Y-85303730D01*
X149011159Y-85201912D01*
X149037050Y-85176021D01*
X149098373Y-85142536D01*
X149168065Y-85147520D01*
X149223998Y-85189392D01*
X149248415Y-85254856D01*
X149248731Y-85263702D01*
X149248731Y-88127769D01*
X149229046Y-88194808D01*
X149212412Y-88215450D01*
X149133754Y-88294107D01*
X149133749Y-88294113D01*
X149043778Y-88437300D01*
X149043776Y-88437303D01*
X148987916Y-88596941D01*
X148968982Y-88764995D01*
X148968982Y-88765000D01*
X148987916Y-88933054D01*
X149043776Y-89092692D01*
X149043778Y-89092695D01*
X149133749Y-89235882D01*
X149133754Y-89235888D01*
X149253340Y-89355474D01*
X149253346Y-89355479D01*
X149396533Y-89445450D01*
X149396536Y-89445452D01*
X149396540Y-89445453D01*
X149396541Y-89445454D01*
X149469144Y-89470858D01*
X149556174Y-89501312D01*
X149724228Y-89520247D01*
X149724231Y-89520247D01*
X149724234Y-89520247D01*
X149835847Y-89507671D01*
X149904669Y-89519725D01*
X149956049Y-89567074D01*
X149973731Y-89630891D01*
X149973731Y-91406677D01*
X149954046Y-91473716D01*
X149937412Y-91494358D01*
X148343589Y-93088181D01*
X148282266Y-93121666D01*
X148255908Y-93124500D01*
X148237229Y-93124500D01*
X148170190Y-93104815D01*
X148149548Y-93088181D01*
X148070890Y-93009523D01*
X148070884Y-93009518D01*
X147927697Y-92919547D01*
X147927694Y-92919545D01*
X147768056Y-92863685D01*
X147600003Y-92844751D01*
X147599997Y-92844751D01*
X147431943Y-92863685D01*
X147272305Y-92919545D01*
X147272302Y-92919547D01*
X147129115Y-93009518D01*
X147129109Y-93009523D01*
X147009523Y-93129109D01*
X147009518Y-93129115D01*
X146919547Y-93272302D01*
X146919545Y-93272305D01*
X146863685Y-93431943D01*
X146844751Y-93599997D01*
X146844751Y-93600002D01*
X146863685Y-93768056D01*
X146919545Y-93927694D01*
X146919547Y-93927697D01*
X147009518Y-94070884D01*
X147009523Y-94070890D01*
X147129109Y-94190476D01*
X147129115Y-94190481D01*
X147272302Y-94280452D01*
X147272305Y-94280454D01*
X147272309Y-94280455D01*
X147272310Y-94280456D01*
X147344913Y-94305860D01*
X147431943Y-94336314D01*
X147599997Y-94355249D01*
X147600000Y-94355249D01*
X147600003Y-94355249D01*
X147768056Y-94336314D01*
X147768059Y-94336313D01*
X147927690Y-94280456D01*
X147927692Y-94280454D01*
X147927694Y-94280454D01*
X147927697Y-94280452D01*
X148070884Y-94190481D01*
X148070885Y-94190480D01*
X148070890Y-94190477D01*
X148149548Y-94111819D01*
X148210871Y-94078334D01*
X148237229Y-94075500D01*
X148566828Y-94075500D01*
X148566830Y-94075500D01*
X148687765Y-94043095D01*
X148796193Y-93980495D01*
X150829726Y-91946962D01*
X150892326Y-91838534D01*
X150924731Y-91717599D01*
X150924731Y-91592397D01*
X150924731Y-84098074D01*
X150944416Y-84031035D01*
X150997220Y-83985280D01*
X151062615Y-83974854D01*
X151199228Y-83990247D01*
X151199231Y-83990247D01*
X151199234Y-83990247D01*
X151367287Y-83971312D01*
X151367290Y-83971311D01*
X151526921Y-83915454D01*
X151526923Y-83915452D01*
X151526925Y-83915452D01*
X151526928Y-83915450D01*
X151670115Y-83825479D01*
X151670116Y-83825478D01*
X151670121Y-83825475D01*
X151789708Y-83705888D01*
X151789712Y-83705882D01*
X151879683Y-83562695D01*
X151879685Y-83562692D01*
X151879685Y-83562690D01*
X151879687Y-83562688D01*
X151935544Y-83403057D01*
X151935544Y-83403056D01*
X151935545Y-83403054D01*
X151954480Y-83235000D01*
X151954480Y-83234995D01*
X151935545Y-83066941D01*
X151879685Y-82907303D01*
X151879683Y-82907300D01*
X151789712Y-82764113D01*
X151789707Y-82764107D01*
X151670121Y-82644521D01*
X151670115Y-82644516D01*
X151572759Y-82583343D01*
X151526468Y-82531009D01*
X151514731Y-82478350D01*
X151514731Y-69587066D01*
X151534416Y-69520027D01*
X151587220Y-69474272D01*
X151656378Y-69464328D01*
X151707621Y-69483963D01*
X151796633Y-69543439D01*
X151987811Y-69622628D01*
X152190761Y-69662997D01*
X152190765Y-69662998D01*
X152190766Y-69662998D01*
X152397697Y-69662998D01*
X152397698Y-69662997D01*
X152600651Y-69622628D01*
X152791829Y-69543439D01*
X152963886Y-69428475D01*
X153110208Y-69282153D01*
X153225172Y-69110096D01*
X153304361Y-68918918D01*
X153344731Y-68715963D01*
X153344731Y-68509033D01*
X153304361Y-68306078D01*
X153225172Y-68114900D01*
X153110208Y-67942843D01*
X153110206Y-67942840D01*
X152963888Y-67796522D01*
X152877857Y-67739039D01*
X152791829Y-67681557D01*
X152757646Y-67667398D01*
X152600651Y-67602368D01*
X152600643Y-67602366D01*
X152397700Y-67561998D01*
X152397696Y-67561998D01*
X152190766Y-67561998D01*
X152190761Y-67561998D01*
X151987818Y-67602366D01*
X151987810Y-67602368D01*
X151796634Y-67681556D01*
X151707621Y-67741032D01*
X151640943Y-67761909D01*
X151573563Y-67743424D01*
X151526874Y-67691445D01*
X151514731Y-67637929D01*
X151514731Y-65226534D01*
X151514731Y-65226533D01*
X151482326Y-65105598D01*
X151419726Y-64997170D01*
X151331195Y-64908639D01*
X146894935Y-60472379D01*
X146861450Y-60411056D01*
X146866434Y-60341364D01*
X146908306Y-60285431D01*
X146973770Y-60261014D01*
X147023571Y-60267657D01*
X147091170Y-60291311D01*
X147259228Y-60310247D01*
X147259231Y-60310247D01*
X147259234Y-60310247D01*
X147427287Y-60291312D01*
X147427290Y-60291311D01*
X147586921Y-60235454D01*
X147586923Y-60235452D01*
X147586925Y-60235452D01*
X147586928Y-60235450D01*
X147730115Y-60145479D01*
X147730116Y-60145478D01*
X147730121Y-60145475D01*
X147849708Y-60025888D01*
X147858025Y-60012652D01*
X147939682Y-59882697D01*
X147939684Y-59882692D01*
X147939687Y-59882688D01*
X147946386Y-59863541D01*
X147987107Y-59806768D01*
X148052059Y-59781020D01*
X148063427Y-59780498D01*
X153871312Y-59780498D01*
X153938351Y-59800183D01*
X153984106Y-59852987D01*
X153994532Y-59890615D01*
X154008281Y-60012651D01*
X154064141Y-60172290D01*
X154064143Y-60172293D01*
X154154114Y-60315480D01*
X154154119Y-60315486D01*
X154273705Y-60435072D01*
X154273711Y-60435077D01*
X154416898Y-60525048D01*
X154416901Y-60525050D01*
X154416905Y-60525051D01*
X154416906Y-60525052D01*
X154465218Y-60541957D01*
X154576539Y-60580910D01*
X154744593Y-60599845D01*
X154744596Y-60599845D01*
X154744599Y-60599845D01*
X154912652Y-60580910D01*
X154912655Y-60580909D01*
X155072286Y-60525052D01*
X155072288Y-60525050D01*
X155072290Y-60525050D01*
X155072293Y-60525048D01*
X155215480Y-60435077D01*
X155215481Y-60435076D01*
X155215486Y-60435073D01*
X155335073Y-60315486D01*
X155350263Y-60291311D01*
X155425048Y-60172293D01*
X155425050Y-60172290D01*
X155425050Y-60172288D01*
X155425052Y-60172286D01*
X155480909Y-60012655D01*
X155480909Y-60012654D01*
X155480910Y-60012652D01*
X155499845Y-59844598D01*
X155499845Y-59844597D01*
X155499845Y-59844596D01*
X155498147Y-59829529D01*
X155510200Y-59760708D01*
X155533683Y-59727966D01*
X156944834Y-58316817D01*
X157006157Y-58283332D01*
X157032515Y-58280498D01*
X158562572Y-58280498D01*
X158629611Y-58300183D01*
X158675366Y-58352987D01*
X158685310Y-58422145D01*
X158661526Y-58479225D01*
X158619174Y-58535306D01*
X158619169Y-58535314D01*
X158520006Y-58734459D01*
X158520000Y-58734474D01*
X158459116Y-58948460D01*
X158459115Y-58948462D01*
X158438588Y-59169997D01*
X158438588Y-59169998D01*
X158459115Y-59391533D01*
X158459116Y-59391535D01*
X158520000Y-59605521D01*
X158520006Y-59605536D01*
X158619169Y-59804681D01*
X158619174Y-59804689D01*
X158753251Y-59982236D01*
X158905319Y-60120864D01*
X158917640Y-60132096D01*
X158917668Y-60132121D01*
X158917670Y-60132123D01*
X159106826Y-60249243D01*
X159106827Y-60249243D01*
X159106830Y-60249245D01*
X159300755Y-60324372D01*
X159356155Y-60366944D01*
X159379746Y-60432711D01*
X159364035Y-60500791D01*
X159314011Y-60549570D01*
X159300764Y-60555620D01*
X159152719Y-60612973D01*
X159106832Y-60630750D01*
X159106826Y-60630752D01*
X158917670Y-60747872D01*
X158917668Y-60747874D01*
X158753251Y-60897759D01*
X158619174Y-61075306D01*
X158619169Y-61075314D01*
X158520006Y-61274459D01*
X158520000Y-61274474D01*
X158459116Y-61488460D01*
X158459115Y-61488462D01*
X158438588Y-61709997D01*
X158438588Y-61709998D01*
X158459115Y-61931533D01*
X158459116Y-61931535D01*
X158520000Y-62145521D01*
X158520006Y-62145536D01*
X158619169Y-62344681D01*
X158619174Y-62344689D01*
X158753251Y-62522236D01*
X158917668Y-62672121D01*
X158917670Y-62672123D01*
X159106826Y-62789243D01*
X159106827Y-62789243D01*
X159106830Y-62789245D01*
X159300755Y-62864372D01*
X159356155Y-62906944D01*
X159379746Y-62972711D01*
X159364035Y-63040791D01*
X159314011Y-63089570D01*
X159300764Y-63095620D01*
X159152719Y-63152973D01*
X159106832Y-63170750D01*
X159106826Y-63170752D01*
X158917670Y-63287872D01*
X158917668Y-63287874D01*
X158753251Y-63437759D01*
X158619174Y-63615306D01*
X158619169Y-63615314D01*
X158533829Y-63786700D01*
X158486326Y-63837937D01*
X158418663Y-63855358D01*
X158378932Y-63845585D01*
X158378493Y-63846842D01*
X158371922Y-63844542D01*
X158371921Y-63844542D01*
X158331895Y-63830536D01*
X158212287Y-63788683D01*
X158044234Y-63769749D01*
X158044227Y-63769749D01*
X157920267Y-63783715D01*
X157851445Y-63771660D01*
X157800066Y-63724311D01*
X157782384Y-63660495D01*
X157782384Y-61524574D01*
X157802069Y-61457535D01*
X157818703Y-61436893D01*
X157897361Y-61358235D01*
X157949992Y-61274474D01*
X157987336Y-61215042D01*
X157987338Y-61215039D01*
X157987338Y-61215037D01*
X157987340Y-61215035D01*
X158043197Y-61055404D01*
X158043197Y-61055403D01*
X158043198Y-61055401D01*
X158062133Y-60887347D01*
X158062133Y-60887342D01*
X158043198Y-60719288D01*
X157987338Y-60559650D01*
X157987336Y-60559647D01*
X157897365Y-60416460D01*
X157897360Y-60416454D01*
X157777774Y-60296868D01*
X157777768Y-60296863D01*
X157634581Y-60206892D01*
X157634578Y-60206890D01*
X157474940Y-60151030D01*
X157306887Y-60132096D01*
X157306881Y-60132096D01*
X157138827Y-60151030D01*
X156979189Y-60206890D01*
X156979186Y-60206892D01*
X156835999Y-60296863D01*
X156835993Y-60296868D01*
X156716407Y-60416454D01*
X156716402Y-60416460D01*
X156626431Y-60559647D01*
X156626429Y-60559650D01*
X156570569Y-60719288D01*
X156551635Y-60887342D01*
X156551635Y-60887347D01*
X156570569Y-61055401D01*
X156626429Y-61215039D01*
X156626431Y-61215042D01*
X156716402Y-61358229D01*
X156716407Y-61358235D01*
X156795065Y-61436893D01*
X156828550Y-61498216D01*
X156831384Y-61524574D01*
X156831384Y-66688147D01*
X156831384Y-66813349D01*
X156863789Y-66934284D01*
X156926388Y-67042710D01*
X156926390Y-67042713D01*
X157788181Y-67904504D01*
X157821666Y-67965827D01*
X157824500Y-67992185D01*
X157824500Y-100654727D01*
X157805494Y-100720698D01*
X157788777Y-100747302D01*
X157788776Y-100747303D01*
X157732916Y-100906941D01*
X157713982Y-101074995D01*
X157713982Y-101075000D01*
X157732916Y-101243054D01*
X157788776Y-101402692D01*
X157788778Y-101402695D01*
X157878749Y-101545882D01*
X157878754Y-101545888D01*
X157998342Y-101665476D01*
X158009933Y-101672759D01*
X158056224Y-101725094D01*
X158066871Y-101794147D01*
X158038496Y-101857995D01*
X158031648Y-101865426D01*
X157933894Y-101963180D01*
X157872574Y-101996664D01*
X157846215Y-101999498D01*
X157831460Y-101999498D01*
X157764421Y-101979813D01*
X157743779Y-101963179D01*
X157665121Y-101884521D01*
X157665115Y-101884516D01*
X157521928Y-101794545D01*
X157521925Y-101794543D01*
X157362287Y-101738683D01*
X157194234Y-101719749D01*
X157194228Y-101719749D01*
X157026174Y-101738683D01*
X156866536Y-101794543D01*
X156866533Y-101794545D01*
X156723346Y-101884516D01*
X156723339Y-101884522D01*
X156682771Y-101925090D01*
X156621448Y-101958575D01*
X156551756Y-101953589D01*
X156495823Y-101911717D01*
X156478049Y-101878363D01*
X156449685Y-101797303D01*
X156449683Y-101797300D01*
X156359712Y-101654113D01*
X156359707Y-101654107D01*
X156240121Y-101534521D01*
X156240115Y-101534516D01*
X156096928Y-101444545D01*
X156096925Y-101444543D01*
X155937287Y-101388683D01*
X155769234Y-101369749D01*
X155769232Y-101369749D01*
X155769231Y-101369749D01*
X155754160Y-101371446D01*
X155685339Y-101359390D01*
X155652599Y-101335907D01*
X153631050Y-99314358D01*
X153597565Y-99253035D01*
X153594731Y-99226677D01*
X153594731Y-77518702D01*
X153614416Y-77451663D01*
X153667220Y-77405908D01*
X153736378Y-77395964D01*
X153799934Y-77424989D01*
X153806412Y-77431021D01*
X153827303Y-77451912D01*
X153967443Y-77553730D01*
X154121786Y-77632371D01*
X154286530Y-77685900D01*
X154457620Y-77712998D01*
X154457621Y-77712998D01*
X156130841Y-77712998D01*
X156130842Y-77712998D01*
X156301932Y-77685900D01*
X156466676Y-77632371D01*
X156621019Y-77553730D01*
X156761159Y-77451912D01*
X156883645Y-77329426D01*
X156985463Y-77189286D01*
X157064104Y-77034943D01*
X157117633Y-76870199D01*
X157144731Y-76699109D01*
X157144731Y-76525887D01*
X157117633Y-76354797D01*
X157064104Y-76190053D01*
X156985463Y-76035710D01*
X156883645Y-75895570D01*
X156761159Y-75773084D01*
X156678206Y-75712815D01*
X156635542Y-75657486D01*
X156629563Y-75587872D01*
X156662169Y-75526077D01*
X156678207Y-75512180D01*
X156761159Y-75451912D01*
X156883645Y-75329426D01*
X156985463Y-75189286D01*
X157064104Y-75034943D01*
X157117633Y-74870199D01*
X157144731Y-74699109D01*
X157144731Y-74525887D01*
X157117633Y-74354797D01*
X157064104Y-74190053D01*
X156985463Y-74035710D01*
X156883645Y-73895570D01*
X156784830Y-73796755D01*
X156751345Y-73735432D01*
X156756329Y-73665740D01*
X156798201Y-73609807D01*
X156799625Y-73608756D01*
X156858552Y-73565941D01*
X156858553Y-73565941D01*
X156997675Y-73426819D01*
X157113326Y-73267641D01*
X157202649Y-73092335D01*
X157263449Y-72905214D01*
X157270215Y-72862498D01*
X155669509Y-72862498D01*
X155713564Y-72786192D01*
X155744231Y-72671742D01*
X155744231Y-72553254D01*
X155713564Y-72438804D01*
X155669509Y-72362498D01*
X157270215Y-72362498D01*
X157263449Y-72319781D01*
X157202649Y-72132660D01*
X157113326Y-71957354D01*
X156997675Y-71798176D01*
X156858552Y-71659053D01*
X156699374Y-71543402D01*
X156524066Y-71454079D01*
X156336936Y-71393276D01*
X156142613Y-71362498D01*
X155544231Y-71362498D01*
X155544231Y-72237220D01*
X155467925Y-72193165D01*
X155353475Y-72162498D01*
X155234987Y-72162498D01*
X155120537Y-72193165D01*
X155044231Y-72237220D01*
X155044231Y-71362498D01*
X154445849Y-71362498D01*
X154251525Y-71393276D01*
X154064395Y-71454079D01*
X153889087Y-71543402D01*
X153729909Y-71659053D01*
X153590786Y-71798176D01*
X153475131Y-71957359D01*
X153439103Y-72028069D01*
X153391129Y-72078865D01*
X153323308Y-72095660D01*
X153294120Y-72090055D01*
X153294080Y-72090234D01*
X153288927Y-72089058D01*
X153287662Y-72088815D01*
X153287287Y-72088684D01*
X153119234Y-72069749D01*
X153119228Y-72069749D01*
X152951174Y-72088683D01*
X152791536Y-72144543D01*
X152791533Y-72144545D01*
X152648346Y-72234516D01*
X152648340Y-72234521D01*
X152528754Y-72354107D01*
X152528749Y-72354113D01*
X152438778Y-72497300D01*
X152438776Y-72497303D01*
X152382916Y-72656941D01*
X152363982Y-72824995D01*
X152363982Y-72825000D01*
X152382916Y-72993054D01*
X152438776Y-73152692D01*
X152438778Y-73152695D01*
X152528749Y-73295882D01*
X152528754Y-73295888D01*
X152607412Y-73374546D01*
X152640897Y-73435869D01*
X152643731Y-73462227D01*
X152643731Y-99412397D01*
X152643731Y-99537599D01*
X152653753Y-99575000D01*
X152676136Y-99658534D01*
X152738735Y-99766960D01*
X152738737Y-99766963D01*
X154980140Y-102008366D01*
X155013625Y-102069689D01*
X155015680Y-102109928D01*
X155013982Y-102125000D01*
X155032916Y-102293054D01*
X155082426Y-102434543D01*
X155085987Y-102504322D01*
X155051258Y-102564950D01*
X154989265Y-102597177D01*
X154965384Y-102599498D01*
X152642857Y-102599498D01*
X152575818Y-102579813D01*
X152555176Y-102563179D01*
X148384279Y-98392282D01*
X148350794Y-98330959D01*
X148348741Y-98318498D01*
X148343197Y-98269286D01*
X148287340Y-98109655D01*
X148287337Y-98109650D01*
X148287336Y-98109647D01*
X148197365Y-97966460D01*
X148197360Y-97966454D01*
X148077774Y-97846868D01*
X148077768Y-97846863D01*
X147934581Y-97756892D01*
X147934578Y-97756890D01*
X147774940Y-97701030D01*
X147606887Y-97682096D01*
X147606881Y-97682096D01*
X147438827Y-97701030D01*
X147279189Y-97756890D01*
X147279186Y-97756892D01*
X147135999Y-97846863D01*
X147135993Y-97846868D01*
X147016407Y-97966454D01*
X147016402Y-97966460D01*
X146926431Y-98109647D01*
X146926429Y-98109650D01*
X146870569Y-98269288D01*
X146851635Y-98437342D01*
X146851635Y-98437347D01*
X146870569Y-98605401D01*
X146926429Y-98765039D01*
X146926431Y-98765042D01*
X147016402Y-98908229D01*
X147016407Y-98908235D01*
X147135996Y-99027824D01*
X147167714Y-99047753D01*
X147214006Y-99100087D01*
X147224655Y-99169140D01*
X147206739Y-99218716D01*
X147188776Y-99247305D01*
X147132916Y-99406941D01*
X147113982Y-99574995D01*
X147113982Y-99575000D01*
X147132916Y-99743054D01*
X147188776Y-99902692D01*
X147188778Y-99902695D01*
X147278749Y-100045882D01*
X147278754Y-100045888D01*
X147398340Y-100165474D01*
X147398346Y-100165479D01*
X147541533Y-100255450D01*
X147541539Y-100255453D01*
X147541541Y-100255454D01*
X147701172Y-100311311D01*
X147793259Y-100321686D01*
X147806718Y-100323203D01*
X147871132Y-100350269D01*
X147880516Y-100358742D01*
X151884395Y-104362620D01*
X151884405Y-104362631D01*
X151977268Y-104455494D01*
X152031481Y-104486793D01*
X152085695Y-104518093D01*
X152085698Y-104518093D01*
X152085701Y-104518095D01*
X152166318Y-104539697D01*
X152206630Y-104550499D01*
X152206631Y-104550499D01*
X152339428Y-104550499D01*
X152339444Y-104550498D01*
X155832002Y-104550498D01*
X155899041Y-104570183D01*
X155919683Y-104586817D01*
X155998340Y-104665474D01*
X155998346Y-104665479D01*
X156141533Y-104755450D01*
X156141536Y-104755452D01*
X156141540Y-104755453D01*
X156141541Y-104755454D01*
X156214144Y-104780858D01*
X156301174Y-104811312D01*
X156469228Y-104830247D01*
X156469231Y-104830247D01*
X156469234Y-104830247D01*
X156637287Y-104811312D01*
X156637290Y-104811311D01*
X156796921Y-104755454D01*
X156796923Y-104755452D01*
X156796925Y-104755452D01*
X156796928Y-104755450D01*
X156940115Y-104665479D01*
X156940116Y-104665478D01*
X156940121Y-104665475D01*
X157018779Y-104586817D01*
X157080102Y-104553332D01*
X157106460Y-104550498D01*
X157193531Y-104550498D01*
X157193533Y-104550498D01*
X157314468Y-104518093D01*
X157422896Y-104455493D01*
X160124726Y-101753663D01*
X160187326Y-101645235D01*
X160219731Y-101524300D01*
X160219731Y-101399098D01*
X160219731Y-89690891D01*
X160239416Y-89623852D01*
X160292220Y-89578097D01*
X160357615Y-89567671D01*
X160469228Y-89580247D01*
X160469231Y-89580247D01*
X160469234Y-89580247D01*
X160637287Y-89561312D01*
X160637290Y-89561311D01*
X160796921Y-89505454D01*
X160796923Y-89505452D01*
X160796925Y-89505452D01*
X160796928Y-89505450D01*
X160940115Y-89415479D01*
X160940116Y-89415478D01*
X160940121Y-89415475D01*
X161018779Y-89336817D01*
X161080102Y-89303332D01*
X161106460Y-89300498D01*
X161556830Y-89300498D01*
X161556832Y-89300498D01*
X161677767Y-89268093D01*
X161786195Y-89205493D01*
X162077601Y-88914085D01*
X162138920Y-88880603D01*
X162179162Y-88878549D01*
X162194231Y-88880247D01*
X162194232Y-88880246D01*
X162194233Y-88880247D01*
X162194234Y-88880247D01*
X162362287Y-88861312D01*
X162362290Y-88861311D01*
X162521921Y-88805454D01*
X162521923Y-88805452D01*
X162521925Y-88805452D01*
X162521928Y-88805450D01*
X162665115Y-88715479D01*
X162665116Y-88715478D01*
X162665121Y-88715475D01*
X162784708Y-88595888D01*
X162874683Y-88452695D01*
X162874685Y-88452692D01*
X162874685Y-88452690D01*
X162874687Y-88452688D01*
X162930544Y-88293057D01*
X162930544Y-88293056D01*
X162930545Y-88293054D01*
X162949480Y-88125000D01*
X162949480Y-88124995D01*
X162930545Y-87956941D01*
X162874685Y-87797303D01*
X162874683Y-87797300D01*
X162784712Y-87654113D01*
X162784707Y-87654107D01*
X162665121Y-87534521D01*
X162665115Y-87534516D01*
X162521928Y-87444545D01*
X162521925Y-87444543D01*
X162362287Y-87388683D01*
X162194234Y-87369749D01*
X162194228Y-87369749D01*
X162026174Y-87388683D01*
X161866536Y-87444543D01*
X161866533Y-87444545D01*
X161723346Y-87534516D01*
X161723340Y-87534521D01*
X161603754Y-87654107D01*
X161603749Y-87654113D01*
X161513778Y-87797300D01*
X161513776Y-87797303D01*
X161457916Y-87956941D01*
X161438982Y-88124995D01*
X161438982Y-88125002D01*
X161440679Y-88140065D01*
X161428624Y-88208886D01*
X161405141Y-88241628D01*
X161333591Y-88313179D01*
X161272268Y-88346664D01*
X161245909Y-88349498D01*
X161106460Y-88349498D01*
X161039421Y-88329813D01*
X161018779Y-88313179D01*
X160940121Y-88234521D01*
X160940115Y-88234516D01*
X160796928Y-88144545D01*
X160796925Y-88144543D01*
X160637287Y-88088683D01*
X160469234Y-88069749D01*
X160469227Y-88069749D01*
X160357614Y-88082324D01*
X160288792Y-88070269D01*
X160237413Y-88022920D01*
X160219731Y-87959104D01*
X160219731Y-68600018D01*
X160239416Y-68532979D01*
X160256046Y-68512341D01*
X161100985Y-67667401D01*
X161100990Y-67667398D01*
X161111193Y-67657194D01*
X161111195Y-67657194D01*
X161199726Y-67568663D01*
X161262326Y-67460235D01*
X161271239Y-67426973D01*
X161288283Y-67363369D01*
X161288283Y-67363365D01*
X161294732Y-67339300D01*
X161294732Y-67214098D01*
X161294732Y-67206503D01*
X161294731Y-67206485D01*
X161294731Y-60282398D01*
X161289001Y-60261014D01*
X161262326Y-60161462D01*
X161199726Y-60053034D01*
X161111195Y-59964503D01*
X160816389Y-59669697D01*
X160782904Y-59608374D01*
X160784804Y-59548082D01*
X160789788Y-59530566D01*
X160829346Y-59391534D01*
X160849874Y-59169998D01*
X160843177Y-59097730D01*
X160829346Y-58948462D01*
X160829345Y-58948460D01*
X160797062Y-58834998D01*
X160768460Y-58734470D01*
X160768455Y-58734459D01*
X160669292Y-58535314D01*
X160669287Y-58535306D01*
X160626936Y-58479225D01*
X160535212Y-58357762D01*
X160528907Y-58352014D01*
X160492625Y-58292303D01*
X160494384Y-58222456D01*
X160524761Y-58172697D01*
X162389959Y-56307500D01*
X162452559Y-56199072D01*
X162484964Y-56078137D01*
X162484964Y-55952935D01*
X162484964Y-49571863D01*
X162452559Y-49450928D01*
X162389959Y-49342500D01*
X162301428Y-49253969D01*
X161676962Y-48629503D01*
X161568534Y-48566903D01*
X161568535Y-48566903D01*
X161528222Y-48556101D01*
X161447599Y-48534498D01*
X161447597Y-48534498D01*
X160825334Y-48534498D01*
X160758295Y-48514813D01*
X160714334Y-48465770D01*
X160669292Y-48375314D01*
X160669287Y-48375306D01*
X160535210Y-48197759D01*
X160370793Y-48047874D01*
X160370791Y-48047872D01*
X160181635Y-47930752D01*
X160181626Y-47930748D01*
X160088187Y-47894550D01*
X159987706Y-47855623D01*
X159932306Y-47813052D01*
X159908715Y-47747286D01*
X159924426Y-47679205D01*
X159974450Y-47630426D01*
X159987697Y-47624375D01*
X160181632Y-47549245D01*
X160370793Y-47432122D01*
X160535212Y-47282234D01*
X160669289Y-47104687D01*
X160768460Y-46905526D01*
X160829346Y-46691534D01*
X160849874Y-46469998D01*
X160847172Y-46440843D01*
X160829346Y-46248462D01*
X160829345Y-46248460D01*
X160820565Y-46217603D01*
X160768460Y-46034470D01*
X160768455Y-46034459D01*
X160669292Y-45835314D01*
X160669287Y-45835306D01*
X160535210Y-45657759D01*
X160370793Y-45507874D01*
X160370791Y-45507872D01*
X160181635Y-45390752D01*
X160181629Y-45390749D01*
X160128390Y-45370125D01*
X160072989Y-45327552D01*
X160049398Y-45261785D01*
X160065109Y-45193705D01*
X160115133Y-45144926D01*
X160173184Y-45130498D01*
X160527492Y-45130498D01*
X160550202Y-45127189D01*
X160595624Y-45120571D01*
X160700714Y-45069196D01*
X160783429Y-44986481D01*
X160834804Y-44881391D01*
X160844731Y-44813258D01*
X160844731Y-43046738D01*
X160844028Y-43041916D01*
X160834804Y-42978606D01*
X160834804Y-42978605D01*
X160783429Y-42873515D01*
X160783427Y-42873513D01*
X160783427Y-42873512D01*
X160700716Y-42790801D01*
X160595622Y-42739424D01*
X160527492Y-42729498D01*
X160527491Y-42729498D01*
X159167552Y-42729498D01*
X159100513Y-42709813D01*
X159079871Y-42693179D01*
X158606050Y-42219358D01*
X158572565Y-42158035D01*
X158569731Y-42131677D01*
X158569731Y-40961348D01*
X158589416Y-40894309D01*
X158642220Y-40848554D01*
X158711378Y-40838610D01*
X158774934Y-40867635D01*
X158777214Y-40869661D01*
X158867669Y-40952122D01*
X158867671Y-40952123D01*
X158867672Y-40952124D01*
X159056826Y-41069243D01*
X159056827Y-41069243D01*
X159056830Y-41069245D01*
X159264291Y-41149616D01*
X159482988Y-41190498D01*
X159482990Y-41190498D01*
X159705472Y-41190498D01*
X159705474Y-41190498D01*
X159924171Y-41149616D01*
X160131632Y-41069245D01*
X160320793Y-40952122D01*
X160485212Y-40802234D01*
X160619289Y-40624687D01*
X160718460Y-40425526D01*
X160779346Y-40211534D01*
X160799874Y-39989998D01*
X160779346Y-39768462D01*
X160718460Y-39554470D01*
X160718455Y-39554459D01*
X160619292Y-39355314D01*
X160619287Y-39355306D01*
X160485210Y-39177759D01*
X160320793Y-39027874D01*
X160320791Y-39027872D01*
X160131635Y-38910752D01*
X160131629Y-38910749D01*
X160078390Y-38890125D01*
X160022989Y-38847552D01*
X159999398Y-38781785D01*
X160015109Y-38713705D01*
X160065133Y-38664926D01*
X160123184Y-38650498D01*
X160477492Y-38650498D01*
X160500202Y-38647189D01*
X160545624Y-38640571D01*
X160650714Y-38589196D01*
X160733429Y-38506481D01*
X160784804Y-38401391D01*
X160794731Y-38333258D01*
X160794731Y-36566738D01*
X160793655Y-36559356D01*
X160784804Y-36498606D01*
X160784804Y-36498605D01*
X160733429Y-36393515D01*
X160733427Y-36393513D01*
X160733427Y-36393512D01*
X160650716Y-36310801D01*
X160545622Y-36259424D01*
X160477492Y-36249498D01*
X160477491Y-36249498D01*
X158710971Y-36249498D01*
X158710970Y-36249498D01*
X158642839Y-36259424D01*
X158537745Y-36310801D01*
X158455034Y-36393512D01*
X158403657Y-36498606D01*
X158393731Y-36566737D01*
X158393731Y-37377677D01*
X158374046Y-37444716D01*
X158321242Y-37490471D01*
X158252084Y-37500415D01*
X158188528Y-37471390D01*
X158182050Y-37465358D01*
X154256689Y-33539997D01*
X158313588Y-33539997D01*
X158313588Y-33539998D01*
X158334115Y-33761533D01*
X158334116Y-33761535D01*
X158395000Y-33975521D01*
X158395006Y-33975536D01*
X158494169Y-34174681D01*
X158494174Y-34174689D01*
X158628251Y-34352236D01*
X158792668Y-34502121D01*
X158792670Y-34502123D01*
X158981826Y-34619243D01*
X158981827Y-34619243D01*
X158981830Y-34619245D01*
X159189291Y-34699616D01*
X159407988Y-34740498D01*
X159407990Y-34740498D01*
X159630472Y-34740498D01*
X159630474Y-34740498D01*
X159849171Y-34699616D01*
X160056632Y-34619245D01*
X160245793Y-34502122D01*
X160410212Y-34352234D01*
X160544289Y-34174687D01*
X160643460Y-33975526D01*
X160704346Y-33761534D01*
X160724874Y-33539998D01*
X160704346Y-33318462D01*
X160643460Y-33104470D01*
X160566542Y-32949998D01*
X160544292Y-32905314D01*
X160544287Y-32905306D01*
X160410210Y-32727759D01*
X160245793Y-32577874D01*
X160245791Y-32577872D01*
X160056635Y-32460752D01*
X160056629Y-32460749D01*
X160003390Y-32440125D01*
X159947989Y-32397552D01*
X159924398Y-32331785D01*
X159940109Y-32263705D01*
X159990133Y-32214926D01*
X160048184Y-32200498D01*
X160402492Y-32200498D01*
X160425202Y-32197189D01*
X160470624Y-32190571D01*
X160575714Y-32139196D01*
X160658429Y-32056481D01*
X160709804Y-31951391D01*
X160719731Y-31883258D01*
X160719731Y-30116738D01*
X160718679Y-30109521D01*
X160709804Y-30048606D01*
X160709804Y-30048605D01*
X160658429Y-29943515D01*
X160658427Y-29943513D01*
X160658427Y-29943512D01*
X160575716Y-29860801D01*
X160470622Y-29809424D01*
X160402492Y-29799498D01*
X160402491Y-29799498D01*
X158635971Y-29799498D01*
X158635970Y-29799498D01*
X158567839Y-29809424D01*
X158462745Y-29860801D01*
X158380034Y-29943512D01*
X158328657Y-30048606D01*
X158318731Y-30116737D01*
X158318731Y-31883258D01*
X158328657Y-31951389D01*
X158380034Y-32056483D01*
X158462745Y-32139194D01*
X158462746Y-32139194D01*
X158462748Y-32139196D01*
X158567838Y-32190571D01*
X158601904Y-32195534D01*
X158635970Y-32200498D01*
X158990278Y-32200498D01*
X159057317Y-32220183D01*
X159103072Y-32272987D01*
X159113016Y-32342145D01*
X159083991Y-32405701D01*
X159035072Y-32440125D01*
X158981832Y-32460749D01*
X158981826Y-32460752D01*
X158792670Y-32577872D01*
X158792668Y-32577874D01*
X158628251Y-32727759D01*
X158494174Y-32905306D01*
X158494169Y-32905314D01*
X158395006Y-33104459D01*
X158395000Y-33104474D01*
X158334116Y-33318460D01*
X158334115Y-33318462D01*
X158313588Y-33539997D01*
X154256689Y-33539997D01*
X151986446Y-31269754D01*
X151952961Y-31208431D01*
X151957945Y-31138739D01*
X151969134Y-31116100D01*
X152024685Y-31027691D01*
X152024684Y-31027691D01*
X152024687Y-31027688D01*
X152080544Y-30868057D01*
X152080544Y-30868056D01*
X152080545Y-30868054D01*
X152099480Y-30700000D01*
X152099480Y-30699995D01*
X152080545Y-30531941D01*
X152024685Y-30372303D01*
X152024683Y-30372300D01*
X151934712Y-30229113D01*
X151934707Y-30229107D01*
X151815121Y-30109521D01*
X151815115Y-30109516D01*
X151671928Y-30019545D01*
X151671925Y-30019543D01*
X151512287Y-29963683D01*
X151344234Y-29944749D01*
X151344228Y-29944749D01*
X151176174Y-29963683D01*
X151016536Y-30019543D01*
X151016533Y-30019545D01*
X150873346Y-30109516D01*
X150873339Y-30109522D01*
X150837456Y-30145405D01*
X150776133Y-30178890D01*
X150706441Y-30173904D01*
X150662095Y-30145404D01*
X149364114Y-28847423D01*
X149330629Y-28786100D01*
X149335613Y-28716408D01*
X149346802Y-28693769D01*
X149388191Y-28627899D01*
X149388190Y-28627899D01*
X149388193Y-28627896D01*
X149444050Y-28468265D01*
X149444050Y-28468264D01*
X149444051Y-28468262D01*
X149462986Y-28300208D01*
X149462986Y-28300203D01*
X149444051Y-28132149D01*
X149388191Y-27972511D01*
X149388189Y-27972508D01*
X149298218Y-27829321D01*
X149298213Y-27829315D01*
X149178627Y-27709729D01*
X149178621Y-27709724D01*
X149035434Y-27619753D01*
X149035431Y-27619751D01*
X148875793Y-27563891D01*
X148707740Y-27544957D01*
X148707733Y-27544957D01*
X148596120Y-27557532D01*
X148527298Y-27545477D01*
X148475919Y-27498128D01*
X148458237Y-27434312D01*
X148458237Y-21850066D01*
X148477922Y-21783027D01*
X148516263Y-21745073D01*
X148595151Y-21695505D01*
X148714738Y-21575918D01*
X148804713Y-21432725D01*
X148804715Y-21432722D01*
X148804715Y-21432720D01*
X148804717Y-21432718D01*
X148860574Y-21273087D01*
X148860574Y-21273086D01*
X148860575Y-21273084D01*
X148879510Y-21105030D01*
X148879510Y-21105025D01*
X148860575Y-20936971D01*
X148804715Y-20777333D01*
X148804713Y-20777330D01*
X148714742Y-20634143D01*
X148712118Y-20630853D01*
X148711085Y-20628323D01*
X148711034Y-20628242D01*
X148711048Y-20628232D01*
X148685709Y-20566167D01*
X148698464Y-20497472D01*
X148746333Y-20446577D01*
X148768111Y-20436497D01*
X148771645Y-20435259D01*
X148779682Y-20432448D01*
X148779685Y-20432445D01*
X148779689Y-20432444D01*
X148922876Y-20342473D01*
X148922877Y-20342472D01*
X148922882Y-20342469D01*
X149042469Y-20222882D01*
X149042473Y-20222876D01*
X149132444Y-20079689D01*
X149132446Y-20079686D01*
X149132446Y-20079684D01*
X149132448Y-20079682D01*
X149188305Y-19920051D01*
X149188305Y-19920050D01*
X149188306Y-19920048D01*
X149207241Y-19751994D01*
X149207241Y-19751989D01*
X149188306Y-19583935D01*
X149132446Y-19424297D01*
X149132444Y-19424294D01*
X149042473Y-19281107D01*
X149042468Y-19281101D01*
X148922882Y-19161515D01*
X148922876Y-19161510D01*
X148779689Y-19071539D01*
X148779686Y-19071537D01*
X148620048Y-19015677D01*
X148451995Y-18996743D01*
X148451989Y-18996743D01*
X148283935Y-19015677D01*
X148124299Y-19071537D01*
X148029077Y-19131370D01*
X147961841Y-19150370D01*
X147895005Y-19130002D01*
X147875424Y-19114057D01*
X147870890Y-19109523D01*
X147870884Y-19109518D01*
X147727697Y-19019547D01*
X147727694Y-19019545D01*
X147568056Y-18963685D01*
X147400003Y-18944751D01*
X147399997Y-18944751D01*
X147231943Y-18963685D01*
X147072305Y-19019545D01*
X147072302Y-19019547D01*
X146929115Y-19109518D01*
X146929109Y-19109523D01*
X146809523Y-19229109D01*
X146809518Y-19229115D01*
X146719547Y-19372302D01*
X146719545Y-19372305D01*
X146663685Y-19531943D01*
X146644751Y-19699997D01*
X146644751Y-19700004D01*
X146646448Y-19715067D01*
X146634393Y-19783888D01*
X146610910Y-19816630D01*
X146527267Y-19900274D01*
X146438734Y-19988806D01*
X146376136Y-20097232D01*
X146376136Y-20097233D01*
X146355749Y-20173319D01*
X146343731Y-20218169D01*
X146343731Y-33520702D01*
X146324046Y-33587741D01*
X146271242Y-33633496D01*
X146202084Y-33643440D01*
X146180730Y-33638409D01*
X146171930Y-33635493D01*
X146171921Y-33635491D01*
X146069217Y-33624998D01*
X145669231Y-33624998D01*
X145669231Y-34691986D01*
X145612224Y-34659073D01*
X145485057Y-34624998D01*
X145353405Y-34624998D01*
X145226238Y-34659073D01*
X145169231Y-34691986D01*
X145169231Y-33624998D01*
X144769259Y-33624998D01*
X144769243Y-33624999D01*
X144666533Y-33635492D01*
X144500111Y-33690639D01*
X144500106Y-33690641D01*
X144350885Y-33782682D01*
X144226915Y-33906652D01*
X144134874Y-34055873D01*
X144134873Y-34055876D01*
X144085732Y-34204173D01*
X144045959Y-34261617D01*
X143981443Y-34288440D01*
X143912667Y-34276125D01*
X143867711Y-34238056D01*
X143834921Y-34192925D01*
X143701304Y-34059308D01*
X143548430Y-33948238D01*
X143380067Y-33862452D01*
X143200349Y-33804057D01*
X143013717Y-33774498D01*
X143013712Y-33774498D01*
X142824750Y-33774498D01*
X142824745Y-33774498D01*
X142638112Y-33804057D01*
X142458394Y-33862452D01*
X142290031Y-33948238D01*
X142202810Y-34011608D01*
X142137158Y-34059308D01*
X142137156Y-34059310D01*
X142137155Y-34059310D01*
X142003543Y-34192922D01*
X142003543Y-34192923D01*
X142003541Y-34192925D01*
X141955841Y-34258577D01*
X141892471Y-34345798D01*
X141806685Y-34514161D01*
X141748290Y-34693879D01*
X141718731Y-34880511D01*
X141718731Y-35369484D01*
X141748290Y-35556116D01*
X141806685Y-35735834D01*
X141868366Y-35856889D01*
X141892471Y-35904197D01*
X142003541Y-36057071D01*
X142137158Y-36190688D01*
X142290032Y-36301758D01*
X142369578Y-36342288D01*
X142458394Y-36387543D01*
X142458396Y-36387543D01*
X142458399Y-36387545D01*
X142554728Y-36418844D01*
X142638112Y-36445938D01*
X142824745Y-36475498D01*
X142824750Y-36475498D01*
X143013717Y-36475498D01*
X143200349Y-36445938D01*
X143380063Y-36387545D01*
X143548430Y-36301758D01*
X143701304Y-36190688D01*
X143834921Y-36057071D01*
X143867710Y-36011940D01*
X143923037Y-35969277D01*
X143992651Y-35963298D01*
X144054446Y-35995903D01*
X144085732Y-36045823D01*
X144134873Y-36194119D01*
X144134874Y-36194122D01*
X144226915Y-36343343D01*
X144350885Y-36467313D01*
X144500106Y-36559354D01*
X144500111Y-36559356D01*
X144666533Y-36614503D01*
X144666540Y-36614504D01*
X144769250Y-36624997D01*
X145169230Y-36624997D01*
X145169231Y-36624996D01*
X145169231Y-35558010D01*
X145226238Y-35590923D01*
X145353405Y-35624998D01*
X145485057Y-35624998D01*
X145612224Y-35590923D01*
X145669231Y-35558010D01*
X145669231Y-36624997D01*
X146069203Y-36624997D01*
X146069217Y-36624996D01*
X146171929Y-36614503D01*
X146180725Y-36611589D01*
X146250554Y-36609186D01*
X146310596Y-36644917D01*
X146341789Y-36707436D01*
X146343731Y-36729294D01*
X146343731Y-40912703D01*
X146343731Y-41037905D01*
X146376136Y-41158840D01*
X146394413Y-41190498D01*
X146438735Y-41267266D01*
X146438737Y-41267269D01*
X147465328Y-42293860D01*
X147498813Y-42355183D01*
X147500868Y-42395422D01*
X147499170Y-42410494D01*
X147518105Y-42578551D01*
X147518105Y-42578553D01*
X147525258Y-42598993D01*
X147528820Y-42668772D01*
X147494092Y-42729399D01*
X147432098Y-42761627D01*
X147362523Y-42755222D01*
X147307455Y-42712218D01*
X147303224Y-42705921D01*
X147271972Y-42656184D01*
X147152384Y-42536596D01*
X147152378Y-42536591D01*
X147009191Y-42446620D01*
X147009188Y-42446618D01*
X146849550Y-42390758D01*
X146681497Y-42371824D01*
X146681491Y-42371824D01*
X146513437Y-42390758D01*
X146353799Y-42446618D01*
X146353796Y-42446620D01*
X146210609Y-42536591D01*
X146154458Y-42592742D01*
X146093134Y-42626226D01*
X146025823Y-42622102D01*
X145864994Y-42565826D01*
X145696940Y-42546891D01*
X145696934Y-42546891D01*
X145528880Y-42565825D01*
X145369242Y-42621685D01*
X145369239Y-42621687D01*
X145226052Y-42711658D01*
X145226046Y-42711663D01*
X145106460Y-42831249D01*
X145106455Y-42831255D01*
X145016484Y-42974442D01*
X145016482Y-42974445D01*
X144960622Y-43134083D01*
X144941688Y-43302137D01*
X144941688Y-43302142D01*
X144960622Y-43470196D01*
X145016482Y-43629834D01*
X145016484Y-43629837D01*
X145106455Y-43773024D01*
X145106460Y-43773030D01*
X145226046Y-43892616D01*
X145226052Y-43892621D01*
X145369239Y-43982592D01*
X145369242Y-43982594D01*
X145369246Y-43982595D01*
X145369247Y-43982596D01*
X145441850Y-44008000D01*
X145528880Y-44038454D01*
X145622528Y-44049005D01*
X145696937Y-44057389D01*
X145712001Y-44055691D01*
X145780821Y-44067744D01*
X145813568Y-44091230D01*
X148163181Y-46440843D01*
X148196666Y-46502166D01*
X148199500Y-46528524D01*
X148199500Y-51733623D01*
X148179815Y-51800662D01*
X148163181Y-51821304D01*
X146219506Y-53764978D01*
X146219504Y-53764981D01*
X146156905Y-53873407D01*
X146154044Y-53884085D01*
X146136249Y-53950498D01*
X146124500Y-53994344D01*
X146124500Y-54364207D01*
X146104815Y-54431246D01*
X146088181Y-54451888D01*
X143337407Y-57202661D01*
X143276084Y-57236146D01*
X143206392Y-57231162D01*
X143150459Y-57189290D01*
X143126042Y-57123826D01*
X143137416Y-57064270D01*
X143137387Y-57064260D01*
X143137456Y-57064061D01*
X143138008Y-57061174D01*
X143139684Y-57057692D01*
X143139687Y-57057688D01*
X143195544Y-56898057D01*
X143195544Y-56898056D01*
X143195545Y-56898054D01*
X143214480Y-56730000D01*
X143214480Y-56729995D01*
X143195545Y-56561941D01*
X143139685Y-56402303D01*
X143139683Y-56402300D01*
X143049712Y-56259113D01*
X143049707Y-56259107D01*
X142930121Y-56139521D01*
X142930115Y-56139516D01*
X142786928Y-56049545D01*
X142786925Y-56049543D01*
X142627287Y-55993683D01*
X142459234Y-55974749D01*
X142459228Y-55974749D01*
X142291174Y-55993683D01*
X142131536Y-56049543D01*
X142131533Y-56049545D01*
X141988346Y-56139516D01*
X141988340Y-56139521D01*
X141868754Y-56259107D01*
X141868749Y-56259113D01*
X141778778Y-56402300D01*
X141778776Y-56402303D01*
X141722916Y-56561941D01*
X141703982Y-56729995D01*
X141703982Y-56730000D01*
X141722916Y-56898054D01*
X141778776Y-57057692D01*
X141778778Y-57057695D01*
X141868749Y-57200882D01*
X141868754Y-57200888D01*
X141947412Y-57279546D01*
X141980897Y-57340869D01*
X141983731Y-57367227D01*
X141983731Y-58197769D01*
X141964046Y-58264808D01*
X141947412Y-58285450D01*
X141868754Y-58364107D01*
X141868749Y-58364113D01*
X141778778Y-58507300D01*
X141778776Y-58507303D01*
X141722916Y-58666941D01*
X141703982Y-58834995D01*
X141703982Y-58835000D01*
X141722916Y-59003054D01*
X141778776Y-59162692D01*
X141778778Y-59162695D01*
X141868749Y-59305882D01*
X141868754Y-59305888D01*
X141988340Y-59425474D01*
X141988346Y-59425479D01*
X142131533Y-59515450D01*
X142131536Y-59515452D01*
X142131540Y-59515453D01*
X142131541Y-59515454D01*
X142174729Y-59530566D01*
X142291174Y-59571312D01*
X142459228Y-59590247D01*
X142459231Y-59590247D01*
X142459233Y-59590247D01*
X142566062Y-59578209D01*
X142605847Y-59573727D01*
X142674669Y-59585781D01*
X142726048Y-59633130D01*
X142743731Y-59696947D01*
X142743731Y-70876677D01*
X142724046Y-70943716D01*
X142707412Y-70964358D01*
X141638737Y-72033032D01*
X141638735Y-72033035D01*
X141576136Y-72141461D01*
X141575310Y-72144543D01*
X141551201Y-72234521D01*
X141543731Y-72262398D01*
X141543731Y-80260578D01*
X141524046Y-80327617D01*
X141471242Y-80373372D01*
X141402084Y-80383316D01*
X141338528Y-80354291D01*
X141305170Y-80308031D01*
X141225173Y-80114901D01*
X141110206Y-79942840D01*
X140963888Y-79796522D01*
X140877857Y-79739039D01*
X140791829Y-79681557D01*
X140600651Y-79602368D01*
X140600643Y-79602366D01*
X140397700Y-79561998D01*
X140397696Y-79561998D01*
X140190766Y-79561998D01*
X140190761Y-79561998D01*
X139987818Y-79602366D01*
X139987810Y-79602368D01*
X139796634Y-79681556D01*
X139624573Y-79796522D01*
X139478255Y-79942840D01*
X139363289Y-80114901D01*
X139284101Y-80306077D01*
X139284099Y-80306085D01*
X139243731Y-80509028D01*
X135796236Y-80509028D01*
X135800842Y-56824997D01*
X138169751Y-56824997D01*
X138169751Y-56825002D01*
X138188685Y-56993056D01*
X138244545Y-57152694D01*
X138244547Y-57152697D01*
X138334518Y-57295884D01*
X138334523Y-57295890D01*
X138454109Y-57415476D01*
X138454115Y-57415481D01*
X138597302Y-57505452D01*
X138597305Y-57505454D01*
X138597309Y-57505455D01*
X138597310Y-57505456D01*
X138669913Y-57530860D01*
X138756943Y-57561314D01*
X138924997Y-57580249D01*
X138925000Y-57580249D01*
X138925002Y-57580249D01*
X139036125Y-57567727D01*
X139089011Y-57561769D01*
X139157833Y-57573823D01*
X139207888Y-57619016D01*
X139258488Y-57699544D01*
X139273933Y-57724125D01*
X139393519Y-57843711D01*
X139393525Y-57843716D01*
X139536712Y-57933687D01*
X139536715Y-57933689D01*
X139536719Y-57933690D01*
X139536720Y-57933691D01*
X139609323Y-57959095D01*
X139696353Y-57989549D01*
X139864407Y-58008484D01*
X139864410Y-58008484D01*
X139864413Y-58008484D01*
X140032466Y-57989549D01*
X140032469Y-57989548D01*
X140192100Y-57933691D01*
X140192102Y-57933689D01*
X140192104Y-57933689D01*
X140192107Y-57933687D01*
X140335294Y-57843716D01*
X140335295Y-57843715D01*
X140335300Y-57843712D01*
X140454887Y-57724125D01*
X140454891Y-57724119D01*
X140544862Y-57580932D01*
X140544864Y-57580929D01*
X140544864Y-57580927D01*
X140544866Y-57580925D01*
X140600723Y-57421294D01*
X140600723Y-57421293D01*
X140600724Y-57421291D01*
X140619659Y-57253237D01*
X140619659Y-57253232D01*
X140600724Y-57085178D01*
X140582104Y-57031965D01*
X140544866Y-56925545D01*
X140544864Y-56925542D01*
X140544864Y-56925541D01*
X140472738Y-56810755D01*
X140453737Y-56743518D01*
X140474104Y-56676683D01*
X140490045Y-56657106D01*
X144935334Y-52211819D01*
X144996657Y-52178334D01*
X145023015Y-52175500D01*
X145537771Y-52175500D01*
X145604810Y-52195185D01*
X145625452Y-52211819D01*
X145704109Y-52290476D01*
X145704115Y-52290481D01*
X145847302Y-52380452D01*
X145847305Y-52380454D01*
X145847309Y-52380455D01*
X145847310Y-52380456D01*
X145894482Y-52396962D01*
X146006943Y-52436314D01*
X146174997Y-52455249D01*
X146175000Y-52455249D01*
X146175003Y-52455249D01*
X146343056Y-52436314D01*
X146343059Y-52436313D01*
X146502690Y-52380456D01*
X146502692Y-52380454D01*
X146502694Y-52380454D01*
X146502697Y-52380452D01*
X146645884Y-52290481D01*
X146645885Y-52290480D01*
X146645890Y-52290477D01*
X146765477Y-52170890D01*
X146809477Y-52100865D01*
X146855452Y-52027697D01*
X146855454Y-52027694D01*
X146855454Y-52027692D01*
X146855456Y-52027690D01*
X146911313Y-51868059D01*
X146911313Y-51868058D01*
X146911314Y-51868056D01*
X146930249Y-51700002D01*
X146930249Y-51699997D01*
X146911314Y-51531943D01*
X146857046Y-51376855D01*
X146855456Y-51372310D01*
X146855455Y-51372309D01*
X146855454Y-51372305D01*
X146855452Y-51372302D01*
X146765481Y-51229115D01*
X146765476Y-51229109D01*
X146645888Y-51109521D01*
X146524843Y-51033463D01*
X146478553Y-50981129D01*
X146467905Y-50912075D01*
X146473772Y-50887522D01*
X146506827Y-50793059D01*
X146525763Y-50625000D01*
X146525763Y-50624997D01*
X146506828Y-50456943D01*
X146450968Y-50297305D01*
X146450966Y-50297302D01*
X146360995Y-50154115D01*
X146360990Y-50154109D01*
X146241404Y-50034523D01*
X146241398Y-50034518D01*
X146098211Y-49944547D01*
X146098208Y-49944545D01*
X145938570Y-49888685D01*
X145770517Y-49869751D01*
X145770511Y-49869751D01*
X145602457Y-49888685D01*
X145442819Y-49944545D01*
X145442816Y-49944547D01*
X145299629Y-50034518D01*
X145299623Y-50034523D01*
X145220966Y-50113181D01*
X145159643Y-50146666D01*
X145145425Y-50148194D01*
X145145458Y-50148439D01*
X145137401Y-50149499D01*
X145016463Y-50181905D01*
X144908037Y-50244504D01*
X144908034Y-50244506D01*
X139109035Y-56043504D01*
X139047712Y-56076989D01*
X139007470Y-56079043D01*
X138925002Y-56069751D01*
X138924997Y-56069751D01*
X138756943Y-56088685D01*
X138597305Y-56144545D01*
X138597302Y-56144547D01*
X138454115Y-56234518D01*
X138454109Y-56234523D01*
X138334523Y-56354109D01*
X138334518Y-56354115D01*
X138244547Y-56497302D01*
X138244545Y-56497305D01*
X138188685Y-56656943D01*
X138169751Y-56824997D01*
X135800842Y-56824997D01*
X135809270Y-13489061D01*
X135828968Y-13422025D01*
X135881780Y-13376281D01*
X135933270Y-13365085D01*
X156379184Y-13365085D01*
X156446223Y-13384770D01*
G37*
%TD.AperFunction*%
%TD*%
D22*
X152600000Y-36300000D03*
X158400000Y-139300000D03*
X158400000Y-136800000D03*
X151700000Y-87800000D03*
X151700000Y-86400000D03*
X151700000Y-85000000D03*
X156700000Y-31170000D03*
X139390000Y-35180000D03*
X155114231Y-50600759D03*
X149879231Y-56314998D03*
X152020000Y-75790000D03*
X149351731Y-91400000D03*
X151465000Y-159869998D03*
X146900000Y-173700000D03*
X139300000Y-26400000D03*
X138765000Y-154789998D03*
X145800000Y-37700000D03*
X138765000Y-96369998D03*
X138765000Y-157329998D03*
X141305000Y-162409998D03*
X138765000Y-106529998D03*
X148925000Y-76049998D03*
X142700000Y-29300000D03*
X140979133Y-39620866D03*
X141305000Y-116689998D03*
X141305000Y-134469998D03*
X138650000Y-73500000D03*
X148925000Y-131929998D03*
X161600000Y-28800000D03*
X151500000Y-92200000D03*
X146385000Y-137009998D03*
X161625000Y-37949998D03*
X160500000Y-117750000D03*
X154005000Y-134469998D03*
X148544231Y-97800000D03*
X141305000Y-175109998D03*
X158800000Y-182200000D03*
X151000000Y-177100000D03*
X160500000Y-144250000D03*
X141305000Y-131929998D03*
X146550000Y-129300000D03*
X146385000Y-119229998D03*
X160500000Y-136750000D03*
X151465000Y-129389998D03*
X148925000Y-126025000D03*
X138200000Y-80600000D03*
X141305000Y-124309998D03*
X138765000Y-116689998D03*
X140900000Y-46200000D03*
X141305000Y-149709998D03*
X138765000Y-70969998D03*
X140200000Y-15300000D03*
X143845000Y-162409998D03*
X161625000Y-25249998D03*
X162200000Y-58200000D03*
X138765000Y-126849998D03*
X160500000Y-120750000D03*
X143250000Y-20000000D03*
X162600000Y-161200000D03*
X151769231Y-38199998D03*
X138750000Y-32750000D03*
X155327116Y-37332884D03*
X157200000Y-176000000D03*
X159085000Y-149709998D03*
X144600000Y-40400000D03*
X154200000Y-81700000D03*
X146385000Y-149709998D03*
X148650000Y-137625000D03*
X142725000Y-54925000D03*
X160500000Y-97250000D03*
X144350000Y-53425000D03*
X151465000Y-134469998D03*
X160500000Y-129000000D03*
X146385000Y-116689998D03*
X137100000Y-42500000D03*
X151475000Y-141575000D03*
X138765000Y-119229998D03*
X148978269Y-116000000D03*
X138600000Y-68900000D03*
X146385000Y-124309998D03*
X157250000Y-17200000D03*
X161625000Y-22709998D03*
X138765000Y-139549998D03*
X160500000Y-81500000D03*
X143845000Y-142089998D03*
X153100000Y-101700000D03*
X160500000Y-139250000D03*
X159600000Y-152200000D03*
X151465000Y-131500000D03*
X148925000Y-78589998D03*
X148925000Y-162409998D03*
X142750000Y-14000000D03*
X151025000Y-51075000D03*
X141250000Y-20000000D03*
X155400000Y-33600000D03*
X141305000Y-142089998D03*
X154400000Y-25600000D03*
X146385000Y-114149998D03*
X148500000Y-35700000D03*
X141305000Y-119229998D03*
X159085000Y-172569998D03*
X154005000Y-149709998D03*
X141305000Y-182729998D03*
X151465000Y-154789998D03*
X148925000Y-154789998D03*
X138765000Y-131929998D03*
X148925000Y-159869998D03*
X141305000Y-154789998D03*
X143845000Y-121769998D03*
X152400000Y-66200000D03*
X154005000Y-152249998D03*
X138250000Y-40250000D03*
X140900000Y-36700000D03*
X152050000Y-77640000D03*
X140400000Y-53021767D03*
X156200000Y-123500000D03*
X154005000Y-142089998D03*
X141305000Y-106529998D03*
X147250000Y-111700000D03*
X138600000Y-25800000D03*
X138765000Y-159869998D03*
X156545000Y-116689998D03*
X159085000Y-175109998D03*
X161625000Y-17629998D03*
X161625000Y-15089998D03*
X148853269Y-113750000D03*
X148000000Y-66200000D03*
X141305000Y-177649998D03*
X138765000Y-129389998D03*
X162200000Y-60800000D03*
X145000000Y-31800000D03*
X156400000Y-69800000D03*
X159085000Y-22709998D03*
X160500000Y-74750000D03*
X150480000Y-44010000D03*
X138765000Y-114149998D03*
X156400000Y-68400000D03*
X142400000Y-62300000D03*
X152400000Y-70400000D03*
X138765000Y-121769998D03*
X146385000Y-134469998D03*
X161625000Y-40489998D03*
X146385000Y-126849998D03*
X153497116Y-35502884D03*
X141305000Y-65889998D03*
X157550000Y-144450000D03*
X138765000Y-142089998D03*
X149900000Y-173200000D03*
X160500000Y-114500000D03*
X138765000Y-147169998D03*
X153400000Y-17400000D03*
X143845000Y-126849998D03*
X146385000Y-131929998D03*
X161625000Y-32869998D03*
X156545000Y-152249998D03*
X151800000Y-28100000D03*
X155050000Y-15350000D03*
X159085000Y-147169998D03*
X148650000Y-128850000D03*
X138765000Y-124309998D03*
X138765000Y-103989998D03*
X144550000Y-109700000D03*
X138765000Y-164949998D03*
X156600000Y-81700000D03*
X141305000Y-180189998D03*
X140600000Y-82850000D03*
X155400000Y-178300000D03*
X144400000Y-55090000D03*
X138765000Y-137009998D03*
X159400000Y-161200000D03*
X138765000Y-109069998D03*
X138765000Y-98909998D03*
X137000000Y-39250000D03*
X154005000Y-147169998D03*
X148925000Y-134469998D03*
X138750000Y-31250000D03*
X160500000Y-100250000D03*
X138765000Y-152249998D03*
X154300000Y-178300000D03*
X150800000Y-98800000D03*
X155600000Y-156000000D03*
X148125000Y-71325000D03*
X142750000Y-17250000D03*
X137525000Y-47875000D03*
X141200000Y-94600000D03*
X161200000Y-159400000D03*
X145350000Y-64100000D03*
X162800000Y-157800000D03*
X160500000Y-106750000D03*
X138000000Y-37250000D03*
X160500000Y-110500000D03*
X153289231Y-55744998D03*
X160500000Y-126000000D03*
X141050000Y-109700000D03*
X156150000Y-21500000D03*
X160500000Y-103500000D03*
X148925000Y-121769998D03*
X142300668Y-51400668D03*
X145250000Y-20000000D03*
X156422306Y-48888205D03*
X159085000Y-35409998D03*
X138750000Y-34250000D03*
X159085000Y-164949998D03*
X148650000Y-138825000D03*
X143800000Y-181600000D03*
X143845000Y-159869998D03*
X154770000Y-44880000D03*
X143845000Y-139549998D03*
X160500000Y-84750000D03*
X138765000Y-91289998D03*
X143400000Y-54100000D03*
X141305000Y-164949998D03*
X151475000Y-126000000D03*
X160500000Y-134000000D03*
X148925000Y-118875000D03*
X138765000Y-149709998D03*
X160500000Y-141750000D03*
X144000000Y-78600000D03*
X156545000Y-134469998D03*
X144750000Y-146750000D03*
X151465000Y-137525000D03*
X147800000Y-183600000D03*
X160600000Y-163200000D03*
X146385000Y-162409998D03*
X146385000Y-142089998D03*
X161625000Y-35409998D03*
X146385000Y-121769998D03*
X138765000Y-111609998D03*
X161625000Y-20169998D03*
X143590000Y-55980000D03*
X143845000Y-134469998D03*
X144000000Y-76400000D03*
X141305000Y-129389998D03*
X154200000Y-29000000D03*
X136540000Y-53330000D03*
X160500000Y-123500000D03*
X151465000Y-138900000D03*
X138765000Y-162409998D03*
X151700000Y-20200000D03*
X156545000Y-142089998D03*
X141305000Y-159869998D03*
X140700000Y-101950000D03*
X141305000Y-157329998D03*
X154005000Y-129389998D03*
X139000000Y-38250000D03*
X140700000Y-78050000D03*
X138765000Y-101449998D03*
X141575000Y-53021767D03*
X146385000Y-159869998D03*
X151819231Y-96074998D03*
X148925000Y-124309998D03*
X144200000Y-94600000D03*
X160500000Y-131500000D03*
X156400000Y-67200000D03*
X141305000Y-126849998D03*
X160500000Y-78250000D03*
X143845000Y-124309998D03*
X152619231Y-60174998D03*
X156545000Y-147169998D03*
X141305000Y-121769998D03*
X160500000Y-71250000D03*
X145600000Y-101650000D03*
X141305000Y-152249998D03*
X145240000Y-54310000D03*
X142300000Y-172600000D03*
X139500000Y-20000000D03*
X154950000Y-144500000D03*
X138765000Y-144629998D03*
X138765000Y-134469998D03*
X146094232Y-30724694D03*
X157400000Y-154200000D03*
X142200000Y-49050000D03*
X146385000Y-154789998D03*
X157350000Y-110050000D03*
X159600000Y-177800000D03*
X148925000Y-149709998D03*
X156545000Y-149709998D03*
X151944231Y-32949998D03*
X151344231Y-30699998D03*
X148707737Y-28300206D03*
X156197396Y-51127408D03*
X151389231Y-53474998D03*
X143779231Y-73134998D03*
X145591884Y-71342345D03*
X154251344Y-50095357D03*
X146261598Y-59486196D03*
X142459231Y-56729998D03*
X154744596Y-59844596D03*
X142459231Y-58834998D03*
X150869231Y-22074998D03*
X157169231Y-13874998D03*
X144375153Y-177725153D03*
X148440839Y-177596967D03*
X154775000Y-180925000D03*
X145284751Y-45835671D03*
X154969231Y-16574998D03*
X144359231Y-137924998D03*
X149400000Y-51325000D03*
X148400000Y-20900000D03*
X149829231Y-58339998D03*
X162194231Y-88124998D03*
X160469231Y-88824998D03*
X161284464Y-54215536D03*
X153334399Y-41109399D03*
X156393134Y-42223901D03*
X155267828Y-41298595D03*
X147259231Y-59554998D03*
X158044231Y-64524998D03*
X157194231Y-102474998D03*
X147606884Y-98437345D03*
X147349618Y-55711169D03*
X149724231Y-88764998D03*
X153286908Y-49807321D03*
X151199231Y-83234998D03*
X150146681Y-47046532D03*
X147600000Y-93600000D03*
X156469231Y-104074998D03*
X147869231Y-99574998D03*
X152881578Y-37737345D03*
X149639231Y-36537345D03*
X148254419Y-42410492D03*
X147400000Y-19700000D03*
X148451992Y-19751992D03*
X149319231Y-42449998D03*
X153929066Y-57419113D03*
X157119231Y-51514998D03*
X153119231Y-72824998D03*
X155769231Y-102124998D03*
X158469231Y-101074998D03*
X157306884Y-60887345D03*
X146681494Y-43127073D03*
X147744231Y-44199998D03*
X145696937Y-43302140D03*
X142219231Y-103674998D03*
X146175000Y-51700000D03*
X139864410Y-57253235D03*
X145770514Y-50625000D03*
X138925000Y-56825000D03*
X151375000Y-180955000D03*
X151375000Y-182405000D03*
X155700000Y-175000000D03*
X140294231Y-80612498D03*
X152294231Y-68612498D03*
X155294231Y-74612498D03*
X155294231Y-76612498D03*
X155294231Y-72612498D03*
X146294231Y-83612498D03*
X148294231Y-83612498D03*
X144294231Y-83612498D03*
X143556731Y-120374998D03*
X143556731Y-128374998D03*
X141169231Y-138574998D03*
X143344231Y-165149998D03*
X145884231Y-165149998D03*
X148424231Y-165149998D03*
X150964231Y-165149998D03*
X153504231Y-165149998D03*
X156044231Y-165149998D03*
X154919231Y-113574998D03*
X156525000Y-184925000D03*
X153985000Y-184925000D03*
X151445000Y-184925000D03*
X148905000Y-184925000D03*
X146365000Y-184925000D03*
X143825000Y-184925000D03*
X159644231Y-43929998D03*
X159644231Y-46469998D03*
X159644231Y-49009998D03*
X159644231Y-51549998D03*
X159644231Y-54089998D03*
X159644231Y-56629998D03*
X159644231Y-59169998D03*
X159644231Y-61709998D03*
X159644231Y-64249998D03*
X159644231Y-66789998D03*
X141169231Y-113574998D03*
X150619231Y-157674998D03*
X145619231Y-157674998D03*
X150619231Y-152674998D03*
X145619231Y-152674998D03*
X159594231Y-37449998D03*
X159594231Y-39989998D03*
D23*
X150639231Y-15200000D03*
D24*
X150329231Y-18200000D03*
X145489231Y-18200000D03*
D23*
X145179231Y-15200000D03*
D22*
X159519231Y-30999998D03*
X159519231Y-33539998D03*
X154919231Y-138574998D03*
X148538000Y-167900000D03*
X148538000Y-170900000D03*
X149288000Y-170900000D03*
X149300000Y-167900000D03*
X150050000Y-167900000D03*
X150050000Y-170900000D03*
X150800000Y-167900000D03*
X150800000Y-170900000D03*
X151574000Y-167900000D03*
X151574000Y-170900000D03*
X145419231Y-35124998D03*
X142919231Y-35124998D03*
M02*
