%TF.GenerationSoftware,KiCad,Pcbnew,8.0.6*%
%TF.CreationDate,2024-11-11T22:34:59-05:00*%
%TF.ProjectId,rulerSchematic,72756c65-7253-4636-9865-6d617469632e,rev?*%
%TF.SameCoordinates,Original*%
%TF.FileFunction,Profile,NP*%
%FSLAX46Y46*%
G04 Gerber Fmt 4.6, Leading zero omitted, Abs format (unit mm)*
G04 Created by KiCad (PCBNEW 8.0.6) date 2024-11-11 22:34:59*
%MOMM*%
%LPD*%
G01*
G04 APERTURE LIST*
%TA.AperFunction,Profile*%
%ADD10C,0.050000*%
%TD*%
%ADD11C,0.350000*%
%ADD12O,0.700000X1.200000*%
%ADD13O,0.650000X1.050000*%
G04 APERTURE END LIST*
D10*
X165279644Y-167508439D02*
G75*
G02*
X164902672Y-167885444I-377044J39D01*
G01*
X161175000Y-186525000D02*
X139175000Y-186525000D01*
X153050000Y-170900000D02*
G75*
G02*
X153050000Y-167900000I0J1500000D01*
G01*
X165329644Y-13241557D02*
X165279643Y-167508439D01*
X164902672Y-167885410D02*
X153050000Y-167900000D01*
X147050000Y-167900000D02*
G75*
G02*
X147050000Y-170900000I0J-1500000D01*
G01*
X147050000Y-167900000D02*
X135655790Y-167885410D01*
X135308818Y-13241557D02*
G75*
G02*
X135685790Y-12864618I376982J-43D01*
G01*
X153050000Y-170900000D02*
X161175000Y-170925000D01*
X161175000Y-170925000D02*
X161175000Y-186525000D01*
X164952672Y-12864585D02*
G75*
G02*
X165329615Y-13241557I-72J-377015D01*
G01*
X139175000Y-186525000D02*
X139175000Y-170925000D01*
X135655790Y-167885410D02*
G75*
G02*
X135278790Y-167508439I10J377010D01*
G01*
X139175000Y-170925000D02*
X147050000Y-170900000D01*
X135685790Y-12864585D02*
X164952672Y-12864585D01*
X135278818Y-167508439D02*
X135308818Y-13241557D01*
D11*
X140294231Y-80612498D03*
X152294231Y-68612498D03*
X155294231Y-74612498D03*
X155294231Y-76612498D03*
X155294231Y-72612498D03*
X146294231Y-83612498D03*
X148294231Y-83612498D03*
X144294231Y-83612498D03*
X143556731Y-120374998D03*
X143556731Y-128374998D03*
X141169231Y-138574998D03*
X143344231Y-165149998D03*
X145884231Y-165149998D03*
X148424231Y-165149998D03*
X150964231Y-165149998D03*
X153504231Y-165149998D03*
X156044231Y-165149998D03*
X154919231Y-113574998D03*
X156525000Y-184925000D03*
X153985000Y-184925000D03*
X151445000Y-184925000D03*
X148905000Y-184925000D03*
X146365000Y-184925000D03*
X143825000Y-184925000D03*
X159644231Y-43929998D03*
X159644231Y-46469998D03*
X159644231Y-49009998D03*
X159644231Y-51549998D03*
X159644231Y-54089998D03*
X159644231Y-56629998D03*
X159644231Y-59169998D03*
X159644231Y-61709998D03*
X159644231Y-64249998D03*
X159644231Y-66789998D03*
X141169231Y-113574998D03*
X150619231Y-157674998D03*
X145619231Y-157674998D03*
X150619231Y-152674998D03*
X145619231Y-152674998D03*
X159594231Y-37449998D03*
X159594231Y-39989998D03*
D12*
X150639231Y-15200000D03*
D13*
X150329231Y-18200000D03*
X145489231Y-18200000D03*
D12*
X145179231Y-15200000D03*
D11*
X159519231Y-30999998D03*
X159519231Y-33539998D03*
X154919231Y-138574998D03*
X148538000Y-167900000D03*
X148538000Y-170900000D03*
X149288000Y-170900000D03*
X149300000Y-167900000D03*
X150050000Y-167900000D03*
X150050000Y-170900000D03*
X150800000Y-167900000D03*
X150800000Y-170900000D03*
X151574000Y-167900000D03*
X151574000Y-170900000D03*
X145419231Y-35124998D03*
X142919231Y-35124998D03*
M02*
